wien
Wien
   16.209076   48.148592
   16.173469   48.164075
   16.168389   48.170828
   16.192928   48.207204
   16.174776   48.217489
   16.172145   48.225486
   16.200575   48.271642
   16.214338   48.271658
   16.253734   48.252446
   16.284136   48.278982
   16.344495   48.299141
   16.361149   48.293286
   16.377337   48.326774
   16.421452   48.331449
   16.431865   48.328442
   16.473889   48.290168
   16.490070   48.300410
   16.501435   48.300849
   16.522379   48.275685
   16.558828   48.267283
   16.550517   48.179981
   16.587445   48.165477
   16.589429   48.134519
   16.582409   48.127302
   16.572008   48.126637
   16.493997   48.148877
   16.447800   48.132839
   16.450310   48.118605
   16.441640   48.111484
   16.332150   48.127353
   16.321878   48.113495
   16.311667   48.110451
   16.269252   48.124343
   16.210124   48.116931
   16.201563   48.124084
   16.209076   48.148592
END
END
