australia
1
   89.512500   -11.143360
   61.663780   -9.177713
   64.690550   -19.918219
   53.335410   -35.981435
   44.655470   -57.087780
   156.382158   -57.051044
   160.367295   -55.222169
   160.645536   -54.074706
   155.486031   -44.217564
   169.714815   -29.372015
   168.060125   -27.741473
   161.683516   -28.524448
   156.686189   -23.622440
   158.266943   -16.357979
   157.824609   -14.625504
   156.626029   -14.141751
   150.832893   -14.307727
   146.589560   -10.769661
   144.600000   -9.800000
   144.350000   -9.200000
   144.050000   -9.050000
   143.800000   -9.000000
   143.450000   -9.250000
   142.850000   -9.200000
   142.200000   -9.100000
   142.000000   -9.120000
   141.455206   -9.456718
   130.266900   -10.043780
   118.255700   -13.011650
   102.800900   -8.390453
   89.512500   -11.143360
END
END
