Cariboo_Chilcotin_Coast
Cariboo Chilcotin Coast
   -129.07175129 51.00239753
   -129.02668480 51.11528242
   -129.01004445 51.20090858
   -129.01018662 51.82008582
   -129.06791017 51.93408323
   -129.07756967 52.00247351
   -129.06812922 52.00634373
   -128.83230889 52.00635206
   -128.82975862 52.12894423
   -128.81561525 52.14924613
   -128.75623194 52.19788688
   -128.67199775 52.22119361
   -128.62758899 52.24564157
   -128.60406129 52.26713154
   -128.53716633 52.37385682
   -128.46710320 52.44138519
   -128.35150494 52.48256603
   -128.18724539 52.49020541
   -128.20478240 52.51353274
   -128.19562981 52.55416073
   -128.18641223 52.55885490
   -128.18899940 52.57200750
   -128.20712304 52.58143831
   -128.19145839 52.59487006
   -128.19674288 52.61192286
   -128.14928745 52.63113893
   -128.13264390 52.62458950
   -128.12245797 52.64347788
   -128.14280515 52.64778069
   -128.16172121 52.66515309
   -128.15536571 52.68240926
   -128.14055850 52.69169527
   -128.11130701 52.68562410
   -128.01463379 52.72550825
   -127.97009453 52.71484689
   -127.93782702 52.72730088
   -127.91907913 52.71969085
   -127.90843651 52.68308257
   -127.86668281 52.68478002
   -127.84314400 52.67993708
   -127.83969202 52.67135852
   -127.81336915 52.67068118
   -127.79290695 52.67938016
   -127.79003434 52.70066788
   -127.74441460 52.72336559
   -127.72991204 52.72340785
   -127.72844581 52.77331012
   -127.69846449 52.79386029
   -127.67933960 52.79761974
   -127.63919711 52.78683223
   -127.60764664 52.78966041
   -127.58890870 52.78309273
   -127.58792589 52.76014487
   -127.60647839 52.73689437
   -127.58015913 52.72602083
   -127.55801999 52.69936644
   -127.49298193 52.69892785
   -127.40896776 52.74052210
   -127.39449232 52.75448091
   -127.38117179 52.75622569
   -127.39171177 52.76851830
   -127.38978476 52.78535586
   -127.35904580 52.81329402
   -127.34824034 52.81388303
   -127.32510313 52.80198307
   -127.29640798 52.82185940
   -127.27792590 52.81847422
   -127.23547568 52.82548129
   -127.23403293 52.84867042
   -127.28908553 52.88292290
   -127.28887839 52.89609373
   -127.30809228 52.90731606
   -127.29465143 52.94059693
   -127.24857643 52.96311134
   -127.26685878 52.97865432
   -127.25377632 53.01422352
   -127.31254969 53.05422575
   -127.36389302 53.07569364
   -127.45045857 53.08706667
   -127.45924384 53.09927733
   -127.44898642 53.11655609
   -127.46201399 53.11375647
   -127.48030140 53.11994458
   -127.48714995 53.13923819
   -127.46193019 53.14917046
   -127.44703176 53.16630717
   -127.41574444 53.16634617
   -127.41118553 53.18973118
   -127.39512503 53.19184464
   -127.36443954 53.18484130
   -127.37038816 53.23145031
   -127.35389845 53.23844124
   -127.33722761 53.23722488
   -127.31229749 53.22136212
   -127.27099098 53.28330630
   -127.24736041 53.28027383
   -127.21928438 53.25636623
   -127.20714914 53.25591559
   -127.20221181 53.26944217
   -127.14671768 53.28698313
   -127.13267848 53.28040610
   -127.10310261 53.23973869
   -127.08471748 53.25321726
   -127.07805702 53.28813177
   -127.05609889 53.30406500
   -127.00813710 53.31349363
   -126.97279378 53.28138596
   -126.96835290 53.26742051
   -126.97888573 53.25282220
   -127.00339781 53.24456620
   -127.03783972 53.20886940
   -127.02384001 53.20863089
   -127.00394792 53.19203556
   -126.99343827 53.15992517
   -127.00431422 53.12790079
   -127.01989637 53.11320891
   -126.99140649 53.09048477
   -127.00071317 53.07968394
   -126.99096202 53.07780058
   -126.95007341 53.09970961
   -126.92558329 53.09156039
   -126.88944968 53.08969167
   -126.86785451 53.11235274
   -126.83649747 53.11601432
   -126.81399359 53.10657201
   -126.79017839 53.07597330
   -126.77906616 53.05011548
   -126.77960730 53.00682333
   -126.75914199 53.00651334
   -126.74782312 52.99958059
   -126.71268101 53.00656127
   -126.67894312 53.02986503
   -126.64992056 53.03861914
   -126.61232623 53.00656306
   -125.01080786 53.00658990
   -125.01118380 53.44965219
   -124.99729116 53.45253405
   -124.97762447 53.43945504
   -124.93453966 53.44514616
   -124.89383993 53.44083954
   -124.84696354 53.40047675
   -124.79997883 53.37437854
   -124.73283888 53.36133134
   -124.69360100 53.38577719
   -124.69591546 53.40336083
   -124.66410086 53.41475449
   -124.64026725 53.41220204
   -124.62326379 53.39247198
   -124.53339066 53.40051964
   -124.54801643 53.43644421
   -124.53278027 53.44874926
   -124.57171625 53.46787397
   -124.52839837 53.48112235
   -124.52112542 53.50050795
   -124.54742328 53.52449881
   -124.54452242 53.53255399
   -124.52892027 53.53736659
   -124.37475666 53.50678734
   -124.37089644 53.49569991
   -124.38065709 53.49061641
   -124.37406510 53.46164417
   -124.33777819 53.46731427
   -124.29774345 53.46177590
   -124.29054829 53.46439762
   -124.29598554 53.47907062
   -124.27582416 53.48597479
   -124.24598848 53.47071234
   -124.23731432 53.45891753
   -124.20673805 53.44704433
   -124.20647965 53.42520560
   -124.14389651 53.41451027
   -124.11991493 53.41931587
   -124.12271479 53.42651558
   -124.10921589 53.43679350
   -124.08653283 53.44121727
   -124.04610151 53.43893563
   -124.00815299 53.44987619
   -124.00816792 53.48492239
   -123.99861102 53.49056019
   -123.41981952 53.48978930
   -123.40882746 53.47640683
   -123.29868352 53.47624493
   -123.29115744 53.47022888
   -123.29405880 53.29024414
   -123.24406372 53.30636137
   -123.16787830 53.30592272
   -123.13848375 53.29531731
   -123.09847157 53.30025104
   -123.07599447 53.29505994
   -123.05529122 53.30666684
   -123.01745551 53.29540159
   -123.00661972 53.28503467
   -122.98313396 53.28968257
   -122.96968418 53.30681335
   -122.93772712 53.30231509
   -122.92049292 53.30676373
   -122.86083727 53.35302772
   -122.84147286 53.37967180
   -122.77041312 53.39212146
   -122.74518751 53.38931033
   -122.70356317 53.39497526
   -122.66486926 53.38644058
   -122.63507828 53.39271394
   -122.62575774 53.38225645
   -122.60278566 53.37869668
   -122.35461707 53.37972370
   -122.35520901 53.40115622
   -122.33755940 53.41370764
   -122.35866021 53.44057928
   -122.34215306 53.45534819
   -122.29225532 53.45629964
   -122.27671831 53.46224723
   -122.16309038 53.46306729
   -121.57117137 53.45882789
   -121.55021561 53.44582502
   -121.28664565 53.45191454
   -121.25566835 53.40719558
   -121.20326409 53.38570934
   -121.19430907 53.40670361
   -121.16748173 53.40135334
   -121.15025275 53.38678727
   -121.13066053 53.40390592
   -121.07684207 53.39935717
   -121.03178324 53.43222282
   -121.00901432 53.43666840
   -120.43807555 53.42324321
   -120.29342723 53.35243065
   -120.22407554 53.32768796
   -120.17977644 53.32507352
   -120.15414602 53.29122226
   -120.14871300 52.92152782
   -120.15637173 52.91244337
   -120.15554166 52.89992377
   -120.13231355 52.87560681
   -120.15875411 52.85709073
   -120.17554707 52.85385167
   -120.21589335 52.87017524
   -120.22493932 52.85920559
   -120.24063110 52.85534465
   -120.26151422 52.85345898
   -120.28436806 52.86156956
   -120.30404839 52.85486028
   -120.32289808 52.83537422
   -120.29205563 52.81487171
   -120.32712641 52.78730348
   -120.30371559 52.78575449
   -120.28099786 52.77470420
   -120.28248894 52.76474643
   -120.26341219 52.74613049
   -120.28106164 52.72620252
   -120.25878254 52.71335332
   -120.27208993 52.70381924
   -120.24466165 52.68502644
   -120.24548781 52.67414550
   -120.27320324 52.65842310
   -120.22786716 52.63909689
   -120.22414789 52.62615938
   -120.23188803 52.61558067
   -120.26349929 52.60263723
   -120.28293206 52.60158142
   -120.28282178 52.58403592
   -120.29529074 52.58140184
   -120.30954476 52.56155011
   -120.32316736 52.56174100
   -120.35653230 52.52326598
   -120.40139309 52.52916579
   -120.44393297 52.50536697
   -120.50288990 52.48977689
   -120.53120677 52.46597128
   -120.50260034 52.45611566
   -120.44924323 52.42279630
   -120.45214107 52.40753576
   -120.51141586 52.37744972
   -120.51683937 52.35263103
   -120.50740953 52.34294999
   -120.52024238 52.33179609
   -120.50213697 52.33033976
   -120.45809141 52.30804971
   -120.47438244 52.28164781
   -120.42802178 52.24167940
   -120.41324993 52.21499902
   -120.38556943 52.20653272
   -120.37678496 52.17784020
   -120.39616877 52.14829328
   -120.37906385 52.14132116
   -120.35291927 52.16113575
   -120.32324432 52.16155725
   -120.29841376 52.14232421
   -120.30567022 52.12074599
   -120.28346443 52.08238448
   -120.30511909 52.06580770
   -120.31012745 52.03971179
   -120.30765228 52.03119165
   -120.28055242 52.02351417
   -120.27821851 52.01243878
   -120.31891427 51.99371110
   -120.31963771 51.98206295
   -120.29668804 51.97680303
   -120.27594083 51.98386676
   -120.26427638 51.97670196
   -120.25831646 51.95357411
   -120.23614078 51.93151525
   -120.23858829 51.90991815
   -120.26103243 51.89197422
   -120.24646406 51.87708113
   -120.22777524 51.87808972
   -120.21493256 51.86948155
   -120.20909135 51.82800798
   -120.22473409 51.81926978
   -120.27365188 51.82563674
   -120.30877541 51.81788541
   -120.31161495 51.78248633
   -120.32064732 51.77208074
   -120.34589728 51.76197956
   -120.36373797 51.76434759
   -120.33492532 51.75079374
   -120.32884535 51.73112060
   -120.36484145 51.71667677
   -120.37254295 51.70450581
   -120.39033436 51.69776168
   -120.43486647 51.70581025
   -120.47693308 51.69868033
   -120.51991440 51.68131198
   -120.55029795 51.65870880
   -120.54881517 51.19077561
   -120.55861958 51.18731433
   -120.59673019 51.19182176
   -120.63372124 51.21260609
   -120.68241960 51.20891416
   -120.69759223 51.22018760
   -120.72435794 51.21753615
   -120.73544308 51.23283746
   -120.75455701 51.22529958
   -120.77855662 51.22590357
   -120.80740519 51.24364656
   -120.88283848 51.23831425
   -120.91113017 51.20962115
   -120.95199522 51.20004475
   -120.98972042 51.13593744
   -120.96548055 51.11250216
   -120.92901339 51.09303741
   -120.92597793 51.05344917
   -120.94352915 51.04320377
   -120.96400983 51.04513697
   -120.99603723 51.07499987
   -121.01464248 51.06796273
   -121.00770901 51.05066987
   -121.01402233 51.04444299
   -121.06224259 51.05824061
   -121.06112759 50.92485039
   -121.06734461 50.91903560
   -121.40014296 50.91946719
   -121.40942844 50.93142944
   -121.42259987 50.93153314
   -121.43678763 50.93144988
   -121.44561213 50.91940821
   -121.61601765 50.91882971
   -121.61696234 50.89266123
   -121.63890785 50.88954197
   -121.64431217 50.87623494
   -121.66279914 50.87540999
   -121.66408709 50.84941587
   -121.68650649 50.84648423
   -121.69180320 50.83249741
   -121.71006189 50.83153888
   -121.71122311 50.79184279
   -121.73308965 50.78743325
   -121.73484753 50.74741812
   -121.75607615 50.74400990
   -121.75224248 50.54520672
   -121.77470481 50.52599772
   -121.77704689 50.51283977
   -121.80186103 50.51092742
   -121.84654169 50.46830655
   -121.84522020 50.44923507
   -121.85808171 50.43533703
   -121.85720336 50.42395703
   -121.87992108 50.41339238
   -121.91293527 50.41323214
   -121.92331183 50.40315947
   -121.95483693 50.39502463
   -121.97683840 50.40988965
   -122.01322777 50.40594840
   -122.04789060 50.41543303
   -122.05295839 50.42187155
   -122.07389784 50.41906648
   -122.09429938 50.42667281
   -122.11792002 50.42582365
   -122.10837746 50.41481360
   -122.13160379 50.38391664
   -122.14467750 50.37827891
   -122.13559404 50.36038520
   -122.14420569 50.34870957
   -122.16748451 50.33012599
   -122.19557517 50.33208986
   -122.21035275 50.32052747
   -122.23130277 50.31858711
   -122.22782717 50.31046363
   -122.23918352 50.29741207
   -122.22681433 50.28710320
   -122.22572641 50.27247536
   -122.25773727 50.25367153
   -122.29154908 50.24803726
   -122.28643865 50.23630466
   -122.29857126 50.22381839
   -122.36056123 50.22664219
   -122.36769275 50.23579412
   -122.36030121 50.24949483
   -122.38339649 50.26072792
   -122.36881433 50.28822368
   -122.37530743 50.30762464
   -122.41256326 50.32693290
   -122.44587416 50.33100519
   -122.47917778 50.35543395
   -122.49177037 50.38470865
   -122.51890841 50.38156191
   -122.53712737 50.38905498
   -122.53428496 50.41724679
   -122.50783633 50.42659156
   -122.51501688 50.44234623
   -122.50062100 50.45065360
   -122.44043794 50.43553154
   -122.41395315 50.40961730
   -122.39933742 50.41716162
   -122.33949780 50.42223405
   -122.31390516 50.43374219
   -122.31364873 50.46452355
   -122.29813192 50.47643724
   -122.32009325 50.49176929
   -122.32164450 50.50165155
   -122.42377220 50.54693434
   -122.46411783 50.55854060
   -122.46281481 50.56545987
   -122.42210663 50.58827266
   -122.44261884 50.59764188
   -122.47146696 50.56213096
   -122.50694078 50.56047836
   -122.61688222 50.59535678
   -122.61970663 50.63182142
   -122.63528307 50.64617722
   -122.67751655 50.64567223
   -122.70487262 50.63730020
   -122.73080367 50.64959887
   -122.75318199 50.64792549
   -122.76631470 50.65377123
   -122.79773089 50.64033902
   -122.82702037 50.64030108
   -122.85923319 50.61187156
   -122.92008641 50.59498868
   -122.93216742 50.54996711
   -122.94396803 50.54220070
   -122.96073042 50.54296961
   -122.98228136 50.56194463
   -122.99793254 50.56555234
   -123.02431793 50.59563311
   -123.02588906 50.57663427
   -123.04776473 50.57135641
   -123.08858175 50.58961853
   -123.12746416 50.62398542
   -123.17388563 50.63204018
   -123.17283446 50.64903783
   -123.18794068 50.65234164
   -123.20681358 50.67187180
   -123.22814856 50.70722321
   -123.24184419 50.71771963
   -123.27666794 50.72643170
   -123.32816690 50.72679672
   -123.36723201 50.75846151
   -123.37036591 50.78724660
   -123.40851874 50.77429769
   -123.45314657 50.79170776
   -123.49755268 50.77288665
   -123.54371334 50.79488660
   -123.61242549 50.77002642
   -123.64321417 50.78920626
   -123.67835458 50.79479388
   -123.69266575 50.78639821
   -123.70969411 50.78640972
   -123.72829156 50.79790501
   -123.73493212 50.81222359
   -123.73943907 50.84337487
   -123.72761781 50.85222671
   -123.72811149 50.86828932
   -123.75415719 50.86912549
   -123.77091547 50.88649093
   -123.76907681 50.90286375
   -123.80222949 50.90479555
   -123.83478444 50.89854747
   -123.84633978 50.92985958
   -123.88027712 50.94067185
   -123.89140547 50.93402823
   -123.90656743 50.93651350
   -123.91393623 50.93087130
   -123.93980185 50.93022258
   -123.95151682 50.94222032
   -123.98570409 50.95638754
   -124.02379021 50.93859842
   -124.04784158 50.93745273
   -124.06903721 50.95629256
   -124.08007333 50.97951760
   -124.09970776 50.98907991
   -124.09552774 51.00565868
   -124.11947569 51.00976008
   -124.16929253 51.03968823
   -124.18315049 51.06100476
   -124.17202808 51.07610490
   -124.18454781 51.10881625
   -124.18159192 51.12357043
   -124.19643248 51.13108743
   -124.24357791 51.14149525
   -124.26648002 51.13309950
   -124.29654809 51.13117430
   -124.35066756 51.14054405
   -124.38066528 51.13712226
   -124.38806985 51.15829015
   -124.38093882 51.18619898
   -124.41582751 51.16782742
   -124.41433291 51.14800368
   -124.43417535 51.14212448
   -124.55052721 51.17378666
   -124.58506828 51.17539210
   -124.67015183 51.20688143
   -124.69039832 51.19863378
   -124.72074172 51.22032770
   -124.77026735 51.23462396
   -124.79169778 51.28669574
   -124.81316852 51.30242255
   -124.88318384 51.31518993
   -124.90004546 51.32624608
   -124.96702129 51.32206431
   -124.97698577 51.33460497
   -125.01333665 51.34396853
   -125.05899029 51.34933004
   -125.07760388 51.34636242
   -125.13506082 51.35827177
   -125.17818396 51.37279668
   -125.18653844 51.39384578
   -125.21335913 51.38606627
   -125.24486080 51.38809581
   -125.26524032 51.37064567
   -125.32089315 51.38495145
   -125.34146540 51.39865036
   -125.35203388 51.41876585
   -125.34551251 51.44628344
   -125.32514877 51.46003281
   -125.35518847 51.47988159
   -125.33867256 51.49160339
   -125.29571750 51.48253213
   -125.28984971 51.48782167
   -125.29707983 51.50860797
   -125.25172161 51.52006669
   -125.27075212 51.53108863
   -125.27758233 51.54946891
   -125.24480054 51.56667377
   -125.28975618 51.57573172
   -125.30615950 51.58959286
   -125.30045995 51.61282131
   -125.23992384 51.64541297
   -125.25851836 51.67526126
   -125.24503997 51.69833688
   -125.26671052 51.72316437
   -125.24866932 51.74830526
   -125.27659957 51.76531001
   -125.33187680 51.77431726
   -125.35447605 51.78409621
   -125.38500775 51.78406606
   -125.42811242 51.82099798
   -125.41535129 51.83418260
   -125.46751132 51.83483594
   -125.47330881 51.85870444
   -125.52136481 51.86411613
   -125.49815396 51.91524765
   -125.52630625 51.93091203
   -125.51930021 51.91674434
   -125.52922902 51.90775640
   -125.54481878 51.90420811
   -125.56560891 51.90975938
   -125.57791700 51.89824422
   -125.59635958 51.89461337
   -125.61731397 51.89804351
   -125.66300123 51.91918226
   -125.70493533 51.96215072
   -125.72406365 52.00100601
   -125.73965529 52.00561245
   -125.77096768 51.99563763
   -125.80970038 51.96993697
   -125.84426966 51.97199872
   -125.86794347 51.96603236
   -125.86315633 51.89547331
   -125.87260421 51.88746378
   -125.90567451 51.88459218
   -125.91731597 51.81601545
   -125.95771028 51.78787742
   -125.94071313 51.77784407
   -125.93897803 51.76069766
   -125.97339241 51.72890601
   -125.98787492 51.72465702
   -125.97884729 51.71398598
   -125.98837323 51.70178141
   -125.98308559 51.69400661
   -125.95310136 51.69836125
   -125.93498734 51.68786422
   -125.94007211 51.65043597
   -125.89990198 51.62928971
   -125.90096250 51.61197046
   -125.92613246 51.59069302
   -125.97915862 51.57463032
   -126.02978899 51.59292691
   -126.04073900 51.58943842
   -126.04872626 51.57960244
   -126.04331617 51.56382954
   -126.07602341 51.53813538
   -126.07603811 51.52226596
   -126.10658614 51.51462450
   -126.08905033 51.47595899
   -126.09778470 51.45919835
   -126.11182128 51.45400788
   -126.13511438 51.45830006
   -126.14022237 51.44598072
   -126.15664884 51.44196108
   -126.16823940 51.43014322
   -126.19475094 51.43096098
   -126.22995076 51.45013104
   -126.25170278 51.44571586
   -126.29513172 51.44804764
   -126.30765552 51.45531698
   -126.32405475 51.45047509
   -126.34602899 51.45530289
   -126.36596244 51.44757914
   -126.38809203 51.46173364
   -126.39332115 51.47495007
   -126.42079236 51.47216167
   -126.43946561 51.48035882
   -126.47319534 51.43917987
   -126.50029364 51.42144914
   -126.52598941 51.41211726
   -126.55375133 51.41388249
   -126.55987225 51.40300723
   -126.58648525 51.40005656
   -126.62451842 51.41100509
   -126.61744579 51.42263227
   -126.62809942 51.43923946
   -126.66317446 51.44508129
   -126.69934221 51.46992119
   -126.69777509 51.45832326
   -126.71513091 51.43893515
   -126.68916124 51.40865653
   -126.71376618 51.36077216
   -126.71213973 51.34782741
   -126.74081742 51.33036950
   -126.75374555 51.29922548
   -126.81020027 51.29246090
   -126.84832020 51.31774691
   -126.85982430 51.30248009
   -126.88631712 51.30105237
   -126.91405397 51.27547643
   -126.91753970 51.23656787
   -126.95434256 51.22938112
   -126.98652535 51.23582975
   -127.02424358 51.22435402
   -127.07028334 51.22362711
   -127.20697094 51.19095319
   -127.23895531 51.21348355
   -127.25401417 51.20517900
   -127.32889525 51.20319583
   -127.34844093 51.21249106
   -127.36352996 51.21024676
   -127.40968776 51.22287330
   -127.44278390 51.22125931
   -127.44943454 51.20010358
   -127.48166986 51.19764178
   -127.48758236 51.18497923
   -127.50694415 51.17974307
   -127.52902234 51.18072380
   -127.53922277 51.19115386
   -127.64839862 51.17723409
   -127.66460505 51.18415200
   -127.72760590 51.18268991
   -127.72837345 51.15499100
   -127.78749443 51.15018747
   -127.85571565 51.09203855
   -127.91574155 51.07019509
   -127.99259037 51.07466273
   -129.08652101 50.95943791
   -129.09420038 50.96675233
   -129.07175129 51.00239753
END
END
