Kootenay_Rockies
Kootenay Rockies
   -118.98177620 51.98982129
   -118.94201575 52.03929917
   -118.86071426 52.05215780
   -118.88293983 52.07695615
   -118.86718921 52.08892897
   -118.87669647 52.10378860
   -118.83600448 52.17254737
   -118.80678769 52.18311495
   -118.75041441 52.19136158
   -118.72541831 52.18029235
   -118.71956039 52.16746447
   -118.69127658 52.17269220
   -118.68026190 52.16012045
   -118.67211154 52.16929677
   -118.64770158 52.17396599
   -118.63441581 52.18788822
   -118.59021243 52.19784800
   -118.57875852 52.22693546
   -118.56586716 52.23478331
   -118.57301901 52.26080382
   -118.54654284 52.27815119
   -118.50906049 52.28669786
   -118.49843972 52.31788538
   -118.44656491 52.33028381
   -118.42958287 52.34201528
   -118.39765966 52.34176128
   -118.35640892 52.37211139
   -118.31187180 52.37318421
   -118.29574137 52.36386714
   -118.28765556 52.34750524
   -118.26181835 52.35319372
   -118.24629780 52.37982285
   -118.22588983 52.38657268
   -118.21006488 52.37745058
   -118.19032613 52.37894871
   -118.18971325 52.38702154
   -118.14148191 52.41342559
   -118.05330326 52.40570299
   -118.04223901 52.43614590
   -118.06239940 52.44709897
   -118.06033172 52.45941268
   -118.03055803 52.46358939
   -118.02231678 52.48697379
   -117.98984793 52.50642056
   -117.97891394 52.50323132
   -117.95819402 52.47344947
   -117.88226389 52.43197534
   -117.76005930 52.42259402
   -117.69629566 52.36775304
   -117.69590006 52.35441228
   -117.71594172 52.34996334
   -117.74526393 52.31221987
   -117.77164937 52.31194140
   -117.78808738 52.28856209
   -117.82711050 52.27177587
   -117.80879240 52.23047692
   -117.73594577 52.20833610
   -117.73146070 52.20087664
   -117.65835548 52.20331524
   -117.62057808 52.17800814
   -117.60482866 52.15177807
   -117.50936857 52.16408811
   -117.49325320 52.15020479
   -117.38268915 52.14411375
   -117.34360332 52.15315154
   -117.33665426 52.19235651
   -117.32133055 52.19982660
   -117.31023039 52.19858705
   -117.28187041 52.08608000
   -117.29074406 52.07377899
   -117.26077969 52.05996382
   -117.25950334 52.05104904
   -117.24381314 52.04232597
   -117.22761714 52.04674014
   -117.20617283 52.03194883
   -117.21752440 52.01205614
   -117.19303757 51.99617413
   -117.18715375 51.98315056
   -117.14072891 51.97844539
   -117.11453384 51.96174910
   -117.09678901 51.96141247
   -117.08674039 51.94414878
   -117.00250444 51.89333753
   -117.02361206 51.85806139
   -117.00258969 51.84259716
   -116.97087246 51.83857463
   -116.97726475 51.81212238
   -116.95110955 51.79155071
   -116.96242520 51.76095326
   -116.91837994 51.73278807
   -116.90688139 51.71312120
   -116.89493982 51.70905059
   -116.81802598 51.71308951
   -116.81006410 51.72050664
   -116.82736286 51.73238787
   -116.82860500 51.74117319
   -116.78093586 51.77898993
   -116.75461196 51.81030264
   -116.70339893 51.80828549
   -116.67978777 51.81931960
   -116.65230218 51.80987814
   -116.63305759 51.78738481
   -116.64071541 51.75773827
   -116.61915947 51.74779664
   -116.62077293 51.73392050
   -116.59268062 51.72900406
   -116.57575897 51.71463555
   -116.57135738 51.68663929
   -116.58326139 51.66352371
   -116.52266651 51.63645202
   -116.49199910 51.63161001
   -116.45945812 51.60372926
   -116.46277642 51.58251231
   -116.45498916 51.56915679
   -116.38272300 51.54926597
   -116.37202438 51.53101607
   -116.38347798 51.52179186
   -116.38450059 51.50828706
   -116.35301414 51.47650799
   -116.28879520 51.46766343
   -116.27490154 51.45912220
   -116.27564857 51.43415044
   -116.28358075 51.42769972
   -116.27262725 51.40568496
   -116.29886094 51.38287391
   -116.28747312 51.37032994
   -116.26824921 51.36381721
   -116.27710431 51.33756787
   -116.25898179 51.31635577
   -116.21403452 51.30069721
   -116.18962719 51.30771687
   -116.15912120 51.30322179
   -116.14188986 51.28881313
   -116.14516588 51.27099794
   -116.10528859 51.25882291
   -116.06035203 51.25341073
   -116.04189257 51.23206559
   -115.99998635 51.22607735
   -115.99024941 51.19249601
   -116.01071642 51.18343382
   -116.02233342 51.16888721
   -115.99798836 51.15845869
   -116.00267874 51.13204599
   -115.96234357 51.12719688
   -115.91687989 51.09038667
   -115.89888352 51.09994995
   -115.88902077 51.09275172
   -115.86552982 51.09538047
   -115.83641654 51.08387665
   -115.81010135 51.09253461
   -115.79451993 51.07775696
   -115.77348935 51.07431176
   -115.76126572 51.08097805
   -115.74854123 51.07988639
   -115.74372060 51.07290163
   -115.76192832 51.05391965
   -115.76022643 51.04430323
   -115.73653876 51.03867712
   -115.72312972 51.02463374
   -115.68729449 51.03398753
   -115.66741298 51.00759476
   -115.64112831 51.00151155
   -115.60269104 50.96160190
   -115.60316675 50.95102822
   -115.58770967 50.94205686
   -115.59755488 50.92587015
   -115.57115963 50.91763596
   -115.55213903 50.89432156
   -115.57375418 50.88262725
   -115.59000572 50.88492159
   -115.61259369 50.87376003
   -115.64071559 50.86908178
   -115.63295430 50.84325485
   -115.62375794 50.84127493
   -115.60731294 50.85191960
   -115.57165717 50.84526028
   -115.55180467 50.82918543
   -115.55475906 50.81620799
   -115.54251649 50.80240395
   -115.52861071 50.80003372
   -115.52070992 50.79011033
   -115.50795279 50.79250340
   -115.49062255 50.78680402
   -115.47274574 50.77091014
   -115.47459868 50.76155904
   -115.42960259 50.76035573
   -115.40304955 50.73564346
   -115.40455511 50.71871356
   -115.39059050 50.71369944
   -115.35674022 50.72885470
   -115.31807270 50.73275430
   -115.30466352 50.72793763
   -115.29968694 50.71033616
   -115.28417555 50.70029082
   -115.28890710 50.68528540
   -115.26429275 50.64941404
   -115.27870265 50.63426544
   -115.29296247 50.63198734
   -115.28789819 50.61948541
   -115.26780730 50.60389603
   -115.22783078 50.58899269
   -115.22032024 50.57784840
   -115.22684501 50.57120879
   -115.22152536 50.54781010
   -115.21363576 50.54244297
   -115.19849551 50.54026698
   -115.19835324 50.55837752
   -115.15792778 50.57920904
   -115.12175430 50.57681292
   -115.08637723 50.59600599
   -115.06832672 50.59372555
   -115.05116195 50.58153608
   -115.01544087 50.59008130
   -114.90256556 50.45465849
   -114.88734058 50.44337872
   -114.86851728 50.44445026
   -114.85125865 50.42689448
   -114.85497613 50.39927123
   -114.81963403 50.39867359
   -114.79629336 50.36909072
   -114.77213704 50.36858043
   -114.76013198 50.36195132
   -114.75729883 50.34811189
   -114.78663488 50.32774449
   -114.77151317 50.31791799
   -114.77144299 50.30874807
   -114.74950234 50.30439926
   -114.74313426 50.29477861
   -114.74258473 50.27171974
   -114.75872604 50.25023606
   -114.71502345 50.19125586
   -114.72131810 50.16936135
   -114.71519188 50.14043068
   -114.72370852 50.12047658
   -114.69533866 50.09809497
   -114.68138046 50.07484380
   -114.65276724 50.06561849
   -114.65934994 50.04658378
   -114.64790685 50.01892584
   -114.65500029 50.00429881
   -114.64276572 49.99466193
   -114.64180596 49.97489116
   -114.65088016 49.96268728
   -114.67374792 49.96148270
   -114.68322873 49.94237029
   -114.68152155 49.89714174
   -114.63052813 49.82930048
   -114.63670960 49.81748665
   -114.62642337 49.78403542
   -114.64521514 49.76354950
   -114.62342624 49.73410123
   -114.63090156 49.71430316
   -114.66409925 49.69690408
   -114.64738355 49.66170514
   -114.65354085 49.64043731
   -114.66357487 49.63199354
   -114.67549608 49.63393636
   -114.73835261 49.61486681
   -114.73685062 49.60400650
   -114.72525402 49.58261762
   -114.69736093 49.55815131
   -114.68128671 49.56270970
   -114.64260864 49.54963590
   -114.58842392 49.57169273
   -114.56539167 49.56087512
   -114.56031231 49.53588499
   -114.56410028 49.52186695
   -114.58528987 49.50103655
   -114.59360127 49.43976699
   -114.58169766 49.39909222
   -114.56623803 49.39379964
   -114.55999483 49.38344846
   -114.53554182 49.38587643
   -114.52031517 49.38003491
   -114.51454189 49.36180904
   -114.50239817 49.36220283
   -114.47977482 49.35096049
   -114.46932527 49.32657756
   -114.47987141 49.31906374
   -114.44549682 49.30106821
   -114.43728652 49.28928908
   -114.43962846 49.27094211
   -114.38991496 49.26303899
   -114.37344290 49.25424845
   -114.37246170 49.24424819
   -114.39348860 49.23700515
   -114.38445001 49.22052299
   -114.38863388 49.21332578
   -114.35686476 49.20778577
   -114.34682834 49.20053533
   -114.33780340 49.20579403
   -114.31522145 49.20591123
   -114.27977959 49.18581489
   -114.21842922 49.19501844
   -114.20500558 49.17778141
   -114.17005127 49.16898595
   -114.15369525 49.15870535
   -114.13956863 49.14438532
   -114.15350336 49.13411651
   -114.14038194 49.11931963
   -114.14380149 49.10152533
   -114.12272635 49.08284520
   -114.09236281 49.06547760
   -114.07552807 49.06482292
   -114.05493701 49.04762774
   -114.04477676 49.02579746
   -114.06254153 48.99561901
   -114.97661648 48.99373138
   -116.02708155 48.99373523
   -117.19986116 48.99375555
   -118.06614072 48.99544565
   -118.07151023 49.00934090
   -118.05629184 49.04296034
   -118.06403943 49.05177917
   -118.05763988 49.07515005
   -118.06570219 49.09729983
   -118.05857688 49.11751709
   -118.06276397 49.13960010
   -118.09515678 49.14961797
   -118.13817580 49.22109661
   -118.14281780 49.26213560
   -118.17377029 49.27511148
   -118.19579439 49.31878075
   -118.22157379 49.32252839
   -118.23828253 49.33840872
   -118.23059740 49.36235459
   -118.25205508 49.39699787
   -118.26568078 49.40002953
   -118.28253410 49.41897089
   -118.26408855 49.44326598
   -118.29165136 49.46554585
   -118.29694195 49.49577739
   -118.26953427 49.55289091
   -118.25456745 49.56229698
   -118.26434785 49.61761524
   -118.25188771 49.63624189
   -118.25943445 49.65062986
   -118.28306418 49.65448955
   -118.28889999 49.66968433
   -118.28374936 49.70859446
   -118.29257581 49.71511150
   -118.29498101 49.73796128
   -118.31098435 49.74959524
   -118.30118172 49.75980369
   -118.30880921 49.76674133
   -118.29760705 49.78912053
   -118.31549961 49.79345654
   -118.31169655 49.80343225
   -118.32635471 49.82327094
   -118.36565086 49.81708414
   -118.38312468 49.82177453
   -118.39409028 49.87223842
   -118.36630615 49.89057325
   -118.38426714 49.90494206
   -118.40930667 49.90222881
   -118.42808226 49.91162899
   -118.43228836 49.94985076
   -118.42439294 49.96865827
   -118.45197145 49.96786789
   -118.48081913 49.98305400
   -118.48099794 50.00358423
   -118.44478049 50.01280859
   -118.49674230 50.02509423
   -118.50563986 50.03207205
   -118.49676845 50.03988026
   -118.40930493 50.03973293
   -118.40493625 50.08339659
   -118.34101674 50.10675243
   -118.30180890 50.10208820
   -118.30531106 50.13669381
   -118.28811030 50.14693231
   -118.28594674 50.15991130
   -118.26421961 50.17057694
   -118.27306575 50.18335766
   -118.24987960 50.19841413
   -118.24788269 50.20810599
   -118.26707114 50.22354939
   -118.28058965 50.25039749
   -118.28583467 50.27793331
   -118.27094242 50.33219491
   -118.31610253 50.33137342
   -118.33530550 50.34103021
   -118.33755615 50.34916481
   -118.31888671 50.37468805
   -118.28560010 50.39829335
   -118.28103777 50.43820432
   -118.22097827 50.44333545
   -118.21447171 50.45914094
   -118.22880844 50.46717764
   -118.22722497 50.47876269
   -118.21603218 50.48443236
   -118.19875637 50.48314128
   -118.18636298 50.49437509
   -118.21087444 50.50893734
   -118.21473456 50.51900684
   -118.20765298 50.52529093
   -118.22519522 50.53825396
   -118.21650948 50.55240847
   -118.20272906 50.55830380
   -118.18904255 50.55619773
   -118.18111942 50.56899638
   -118.18763059 50.58067295
   -118.17607063 50.59082423
   -118.17547693 50.61148761
   -118.18934150 50.62800177
   -118.20636213 50.63234619
   -118.21624589 50.65529492
   -118.19069096 50.66695300
   -118.22400216 50.68012704
   -118.21173371 50.69964047
   -118.21799683 50.73422018
   -118.25032486 50.75186038
   -118.26029240 50.77778520
   -118.27271385 50.78569767
   -118.27622653 50.81693804
   -118.28592666 50.82333650
   -118.27935858 50.83750477
   -118.29489173 50.84609950
   -118.30442414 50.86431590
   -118.28819009 50.88355686
   -118.31098254 50.88092887
   -118.32405307 50.88636092
   -118.33975977 50.94223703
   -118.36307812 50.96193466
   -118.35928049 50.99883825
   -118.38412331 51.00066119
   -118.40648673 50.99138709
   -118.42695340 51.00088089
   -118.44539093 51.04735131
   -118.43480210 51.06146685
   -118.46637246 51.07159435
   -118.49053476 51.09938431
   -118.48581797 51.12435336
   -118.49956271 51.13347747
   -118.50157797 51.14739509
   -118.48372494 51.15769849
   -118.48212005 51.16735581
   -118.54235324 51.17263348
   -118.57530174 51.19228329
   -118.57671775 51.20562488
   -118.55447720 51.21309101
   -118.58368543 51.23645867
   -118.58687749 51.25223077
   -118.56036536 51.27785140
   -118.56168072 51.28965368
   -118.59327438 51.29529130
   -118.62577464 51.33148589
   -118.62616556 51.36487740
   -118.59904515 51.37645562
   -118.59400330 51.38808829
   -118.62634181 51.40723288
   -118.62217904 51.43631951
   -118.64191329 51.44245283
   -118.64084688 51.45622005
   -118.67891680 51.45505480
   -118.71169277 51.47123895
   -118.72547341 51.48920960
   -118.70892073 51.50202021
   -118.73395266 51.51881079
   -118.76485831 51.51413360
   -118.78168251 51.52532231
   -118.80176650 51.51728799
   -118.83630542 51.52268336
   -118.84262843 51.53780338
   -118.83848224 51.58373297
   -118.82521660 51.60231693
   -118.82760379 51.62501976
   -118.85945658 51.63890368
   -118.89701192 51.64201923
   -118.93195972 51.68046828
   -118.92777473 51.71991114
   -118.89586671 51.73383356
   -118.90755596 51.76376434
   -118.89577515 51.78015263
   -118.94699955 51.78782749
   -118.97069691 51.80802295
   -118.97495071 51.82578232
   -118.95816458 51.83489543
   -118.95934117 51.84582118
   -118.99978030 51.86252398
   -118.99896625 51.87090059
   -118.98117683 51.87664691
   -118.97644424 51.88711508
   -118.99959777 51.92806404
   -118.99438939 51.93608489
   -118.97751325 51.94082427
   -118.91592940 51.93302836
   -118.90361563 51.95232476
   -118.97971022 51.97320719
   -118.98177620 51.98982129
END
END
