Northern_British_Columbia
Northern British Columbia
   -137.11523158 60.00636467
   -136.00002167 60.00630371
   -135.00002160 60.00630387
   -134.00002142 60.00630403
   -132.75002131 60.00630423
   -131.50002116 60.00630441
   -130.50002100 60.00630456
   -128.50002072 60.00630487
   -126.50002037 60.00630518
   -125.50002020 60.00630533
   -124.25002002 60.00630550
   -122.25001963 60.00630582
   -121.25001942 60.00630597
   -119.99206898 60.00487098
   -119.98936113 53.81212220
   -119.96650174 53.80793823
   -119.96065031 53.80162301
   -119.96740821 53.79564074
   -119.94030842 53.78231879
   -119.87867846 53.78223498
   -119.87698901 53.74887117
   -119.89041369 53.73782266
   -119.89122088 53.72034508
   -119.90139659 53.71624153
   -119.84132519 53.72075984
   -119.83276844 53.70450730
   -119.79259066 53.71337314
   -119.76051341 53.67931600
   -119.72481250 53.66570402
   -119.72654342 53.63846332
   -119.70299906 53.61343744
   -119.74401159 53.58775852
   -119.77868611 53.58506357
   -119.80347948 53.59796637
   -119.85688243 53.60166262
   -119.89633856 53.61339377
   -119.91596749 53.61021649
   -119.90183459 53.60467483
   -119.88462779 53.58272834
   -119.86445253 53.57495029
   -119.85060913 53.55760023
   -119.85350997 53.54499368
   -119.88953188 53.52919375
   -119.88905518 53.52154512
   -119.86190958 53.50622476
   -119.84871819 53.51950258
   -119.82925392 53.52518828
   -119.80700283 53.50626938
   -119.77230156 53.49586012
   -119.76909275 53.48714999
   -119.78008517 53.47685343
   -119.71634500 53.39473704
   -119.69120683 53.39635613
   -119.67133232 53.38561989
   -119.66624153 53.37449931
   -119.63548631 53.37521774
   -119.62084823 53.37003754
   -119.61003275 53.37135714
   -119.61496064 53.38441858
   -119.60483624 53.38970712
   -119.54556208 53.37353585
   -119.51602579 53.37628232
   -119.45150857 53.36290224
   -119.40317897 53.37412339
   -119.34652537 53.34296833
   -119.33645514 53.32690944
   -119.34372860 53.31387481
   -119.32249380 53.29867796
   -119.33472155 53.29240910
   -119.33483226 53.13983927
   -119.37324367 53.12929593
   -119.34794938 53.11143326
   -119.37576649 53.05872932
   -119.38975638 53.05236718
   -119.41925046 53.05576434
   -119.41988867 53.04994521
   -119.40484949 53.02193688
   -119.34197322 53.01281373
   -119.28251835 53.01613943
   -119.28109177 53.00933179
   -119.31401556 52.97802218
   -119.35338454 52.96723939
   -119.39448279 52.97380696
   -119.44692008 52.97209195
   -119.52747171 53.00566308
   -119.56371728 53.03168629
   -119.67498011 53.07802582
   -119.70451100 53.08245745
   -119.82799540 53.14645728
   -119.93892678 53.18553515
   -119.95767273 53.20747931
   -120.00727781 53.22456715
   -120.11026937 53.28881793
   -120.14153964 53.29591276
   -120.15777532 53.28399906
   -120.16943457 53.28367050
   -120.18408449 53.29211399
   -120.19462941 53.31535117
   -120.23213783 53.31602584
   -120.30578861 53.34222782
   -120.44278230 53.41083848
   -121.00703444 53.42410516
   -121.06870907 53.38757638
   -121.12412654 53.39155357
   -121.14199205 53.37351355
   -121.16554714 53.37595426
   -121.17739753 53.38706691
   -121.19771258 53.37278774
   -121.23333769 53.37926389
   -121.27168348 53.39887863
   -121.29709574 53.43927824
   -121.55597863 53.43312722
   -121.57686550 53.44633886
   -122.27356089 53.44975504
   -122.28394189 53.44403297
   -122.32993204 53.44383504
   -122.33579674 53.43913815
   -122.31590255 53.41129636
   -122.33560066 53.39629702
   -122.33279080 53.37571185
   -122.34532060 53.36754120
   -122.61250856 53.36616665
   -122.64165762 53.37065241
   -122.64665207 53.37849695
   -122.66903964 53.37312782
   -122.70661067 53.38247570
   -122.74260340 53.37655959
   -122.76763224 53.37966473
   -122.82734547 53.37001171
   -122.84254970 53.34631116
   -122.87405394 53.32438384
   -122.86243980 53.31183084
   -122.87530952 53.30096134
   -122.95879892 53.28898876
   -122.96600278 53.27530156
   -122.98739734 53.27713220
   -123.00791379 53.26910188
   -123.04980106 53.28987816
   -123.07532204 53.28148768
   -123.10013458 53.28652261
   -123.14415131 53.28107577
   -123.17991970 53.29135685
   -123.23174457 53.29315772
   -123.29221086 53.27487021
   -123.31554327 53.28411542
   -123.31230663 53.46394196
   -123.42119943 53.46405574
   -123.43004679 53.47728701
   -123.98706870 53.47798092
   -123.99102919 53.43907965
   -124.04402408 53.42609719
   -124.09829089 53.42563535
   -124.10161231 53.40736081
   -124.14495213 53.40197219
   -124.22230564 53.41591202
   -124.22876534 53.44092452
   -124.25395234 53.44860430
   -124.26044069 53.46082077
   -124.29345403 53.44929287
   -124.33643233 53.45449084
   -124.38645090 53.44945399
   -124.39682871 53.48175861
   -124.41334527 53.49186843
   -124.41281185 53.49891098
   -124.52382792 53.52448546
   -124.49864186 53.50164642
   -124.50986499 53.47336101
   -124.53795671 53.46538089
   -124.51049550 53.45136838
   -124.52645651 53.43502755
   -124.50531919 53.39546288
   -124.51251594 53.38868853
   -124.63038154 53.37982958
   -124.65996135 53.40227159
   -124.67539884 53.39597532
   -124.67321423 53.38002455
   -124.72154824 53.35059284
   -124.73800312 53.34840790
   -124.81219096 53.36406566
   -124.86280418 53.39217949
   -124.90508533 53.42968321
   -124.93063934 53.43246503
   -124.99095740 53.42689715
   -124.98496446 53.23826546
   -124.99373752 53.23141643
   -124.98989981 53.00028910
   -124.99937081 52.99404078
   -126.61638931 52.99401751
   -126.63810975 53.00477172
   -126.65408557 53.02374749
   -126.71854819 52.98719965
   -126.75554975 52.98724105
   -126.76783197 52.99437084
   -126.80027584 52.99833044
   -126.80025369 53.04954778
   -126.81004168 53.07191434
   -126.84299825 53.10366579
   -126.85444852 53.10196379
   -126.88022587 53.07783663
   -126.93277811 53.07948239
   -126.94593845 53.08605452
   -126.97968930 53.06710478
   -126.99893180 53.06324412
   -127.02685735 53.07616251
   -127.01830429 53.08692159
   -127.04327559 53.11466977
   -127.02459143 53.13156520
   -127.01457455 53.15856424
   -127.02357523 53.18612891
   -127.05603591 53.19819863
   -127.06123879 53.20673885
   -127.01901516 53.25391582
   -126.98940857 53.26522685
   -127.01908590 53.30099950
   -127.05958135 53.28183391
   -127.06472659 53.24850497
   -127.09671793 53.22730019
   -127.12959380 53.23605081
   -127.15209405 53.27341661
   -127.18334471 53.26181589
   -127.20008018 53.24320170
   -127.23040305 53.24494584
   -127.26143748 53.26541217
   -127.28560855 53.22138651
   -127.30008873 53.21066279
   -127.32442926 53.20873999
   -127.33771662 53.22274307
   -127.35205297 53.22444531
   -127.34762525 53.17566067
   -127.36145781 53.17095980
   -127.39594430 53.17738420
   -127.39456795 53.16325096
   -127.40394273 53.15504237
   -127.43617100 53.15444766
   -127.44924274 53.13885607
   -127.46554276 53.13573600
   -127.46355871 53.12840169
   -127.43657787 53.12861469
   -127.42532950 53.12070632
   -127.43298801 53.09537266
   -127.37207948 53.09227901
   -127.31672327 53.07291205
   -127.23408224 53.01907160
   -127.23282710 53.00153847
   -127.24607742 52.98086147
   -127.22688729 52.96000496
   -127.27674839 52.93349133
   -127.28612788 52.90977076
   -127.26833280 52.90022997
   -127.26981847 52.88904931
   -127.21364487 52.85356022
   -127.21641555 52.83470589
   -127.20661654 52.82831625
   -127.21503511 52.81784652
   -127.27647990 52.80539992
   -127.29261501 52.80895476
   -127.30284772 52.79459821
   -127.32302183 52.78899008
   -127.35299424 52.79877378
   -127.36952978 52.78205742
   -127.35850325 52.75624461
   -127.36527166 52.74675649
   -127.38186190 52.74357866
   -127.39391599 52.73172683
   -127.48805809 52.68647025
   -127.56954367 52.68624767
   -127.59689789 52.71847123
   -127.62642185 52.73110580
   -127.62730736 52.74289140
   -127.60627238 52.77522605
   -127.64358552 52.77434333
   -127.68190029 52.78431061
   -127.70800699 52.76941641
   -127.70154900 52.75519321
   -127.71117743 52.71542960
   -127.73576764 52.71104300
   -127.77007190 52.69374166
   -127.77184374 52.67451804
   -127.80634727 52.65858134
   -127.85337010 52.65644339
   -127.86074240 52.66974895
   -127.87108803 52.67243069
   -127.91868017 52.67093040
   -127.92891721 52.67941736
   -127.93813376 52.71338131
   -127.96501725 52.70221183
   -127.98473417 52.70561798
   -127.98699039 52.69423537
   -127.99813656 52.68875582
   -128.01027902 52.69158801
   -128.01868269 52.71170142
   -128.10478403 52.67357780
   -128.13192439 52.67934610
   -128.14158001 52.67071829
   -128.13739061 52.66229815
   -128.10312193 52.65468986
   -128.09812643 52.64852283
   -128.12486761 52.60863172
   -128.13712328 52.60793635
   -128.14920367 52.61704486
   -128.17333388 52.60615569
   -128.17139557 52.59084725
   -128.18065914 52.58351688
   -128.16508789 52.57759302
   -128.16436390 52.55754305
   -128.17625707 52.54721154
   -128.18349530 52.51544734
   -128.17034763 52.50450716
   -128.16888555 52.48025113
   -128.34676306 52.47030104
   -128.45094789 52.43331798
   -128.51869994 52.36822567
   -128.58527548 52.26199451
   -128.61109005 52.23816174
   -128.66194013 52.21021053
   -128.74898851 52.18698422
   -128.75935842 52.19203398
   -128.81388514 52.36039967
   -128.85360084 52.37969781
   -128.94793628 52.39434948
   -129.32833402 52.42458153
   -129.40109534 52.43800783
   -129.49480753 52.48821766
   -129.54966675 52.53505269
   -129.66907329 52.72512834
   -129.70085203 52.75944789
   -129.95216308 52.97854251
   -130.19803228 53.04988473
   -130.38276756 53.13116246
   -130.56149045 53.23522311
   -130.61431571 53.27264584
   -130.69624190 53.34730845
   -130.72599473 53.28439338
   -130.74753143 53.25956390
   -130.82907068 53.19788311
   -130.96806927 53.11440169
   -130.99758030 53.08172321
   -131.02769751 53.03046701
   -131.03719514 52.95014908
   -131.02970224 52.89846116
   -130.96067704 52.74556179
   -130.87774567 52.60909588
   -130.78093237 52.47291438
   -130.70278954 52.39266676
   -130.50681353 52.12418487
   -130.44777856 51.96638298
   -130.97231321 51.88260892
   -131.02541194 51.87987794
   -131.07544820 51.88498067
   -131.15594561 51.90779651
   -131.22148864 51.93483616
   -131.50160347 51.98592386
   -131.61941241 52.01612766
   -131.94495198 52.14625132
   -132.07466466 52.21905439
   -132.20501602 52.30378387
   -132.32186097 52.39005908
   -132.50951395 52.55765960
   -132.51040695 52.74373932
   -132.76507468 52.74526027
   -132.96665183 52.99200007
   -133.13561804 53.41651925
   -133.24437484 53.71951254
   -133.25462992 53.79719643
   -133.25462240 54.64719859
   -133.24459152 54.65218395
   -130.63303401 54.71459628
   -130.63790613 54.73662286
   -130.66814690 54.76744065
   -130.63256102 54.78741125
   -130.57344403 54.79787957
   -130.49079802 54.84041024
   -130.35508908 54.92274013
   -130.29257521 54.97005963
   -130.21033145 55.04924051
   -130.15795562 55.14068062
   -130.11474618 55.19383524
   -129.98603610 55.28586495
   -129.99659740 55.30613390
   -130.03652361 55.33698897
   -130.04923850 55.44780962
   -130.09612858 55.49379955
   -130.12158364 55.49714183
   -130.15080548 55.55035002
   -130.15876214 55.59118494
   -130.13549664 55.63086393
   -130.13336436 55.67002200
   -130.18199844 55.70237477
   -130.17102551 55.73280652
   -130.18475689 55.74680411
   -130.18055054 55.75483098
   -130.16445718 55.75633876
   -130.13112606 55.80536645
   -130.09307280 55.81640304
   -130.02039171 55.90381871
   -130.03164428 55.91013935
   -130.01368647 56.00546974
   -130.10951146 56.11430003
   -130.24198059 56.08955295
   -130.33680971 56.11697444
   -130.42579072 56.13358583
   -130.47415203 56.23547318
   -130.56689403 56.24405896
   -130.64031819 56.26657297
   -130.78821692 56.36254506
   -131.09260609 56.40083391
   -131.17090829 56.44215664
   -131.47434057 56.54609803
   -131.58628016 56.60585635
   -131.84302541 56.59519776
   -131.86860677 56.70002089
   -131.91318984 56.75341362
   -131.88491268 56.80282818
   -132.13225567 56.86524728
   -132.05972647 57.03958252
   -132.37975097 57.08870809
   -132.25774680 57.21220901
   -132.37969101 57.34823938
   -132.57412285 57.50409621
   -132.69696230 57.63983736
   -132.77017305 57.70494429
   -132.87837776 57.84142050
   -133.08026300 57.99736216
   -133.18303766 58.14867936
   -133.36373315 58.27970131
   -133.47186860 58.38693234
   -133.47063194 58.39380913
   -133.39868416 58.43250047
   -133.70913219 58.60535227
   -133.84991737 58.72539381
   -134.00918024 58.76882216
   -134.26572666 58.85502645
   -134.34900921 58.91848950
   -134.32745956 58.95745784
   -134.41869438 58.97584065
   -134.39827833 59.03999293
   -134.45561183 59.08343193
   -134.49279697 59.12711465
   -134.57873296 59.12920724
   -134.68828111 59.18942454
   -134.70982916 59.24324722
   -134.96847172 59.27712164
   -135.04225840 59.34708940
   -135.00520310 59.38594097
   -135.10981321 59.42644684
   -135.07866073 59.45846089
   -135.04033298 59.47885680
   -135.04009562 59.56178874
   -135.12439889 59.61758075
   -135.16188789 59.62144021
   -135.23184240 59.66043599
   -135.24583542 59.69211390
   -135.38464395 59.73794953
   -135.48152751 59.79072732
   -135.94073640 59.65785993
   -136.19140177 59.63278819
   -136.33131627 59.59954710
   -136.23166209 59.56296489
   -136.22453596 59.52481424
   -136.29128148 59.46229013
   -136.32485502 59.45069990
   -136.39903218 59.44092145
   -136.46343996 59.45458504
   -136.45544467 59.28345217
   -136.48158012 59.27220926
   -136.47742309 59.25566074
   -136.57318268 59.16119531
   -136.82022131 59.15361775
   -137.09085077 59.05134734
   -137.28111810 58.99428670
   -137.43932319 58.90362627
   -137.52856622 58.90038539
   -137.53884723 58.90712236
   -137.51172758 58.98308300
   -137.61334469 59.23761029
   -138.61502660 59.75368289
   -138.66814948 59.79727589
   -138.71645982 59.90158295
   -138.79680975 59.91746093
   -139.04808489 59.98602541
   -139.06471207 59.99966860
   -139.05220882 60.00634386
   -137.11523158 60.00636467
END
END
