Thompson_Okanagan
Thompson Okanagan
   -122.30586141 50.23918888
   -122.31299423 50.24852451
   -122.30691130 50.25617034
   -122.26795003 50.26632141
   -122.24700780 50.27942714
   -122.25961838 50.30405280
   -122.24948290 50.32629454
   -122.22424625 50.33198752
   -122.20481136 50.34397294
   -122.18033859 50.34196613
   -122.16383893 50.35452533
   -122.15752694 50.36255883
   -122.17377462 50.37408939
   -122.15069334 50.39070632
   -122.13185290 50.41670175
   -122.14144332 50.42696826
   -122.13474078 50.43494795
   -122.09269096 50.43952055
   -122.06525731 50.43192081
   -122.04457428 50.43733212
   -122.03398964 50.42584202
   -122.00884778 50.41921833
   -121.96401416 50.42295546
   -121.95646707 50.41021405
   -121.93710634 50.41375021
   -121.92248200 50.42508831
   -121.87637626 50.42813744
   -121.86375842 50.47472434
   -121.81420098 50.52161186
   -121.79446269 50.52337247
   -121.79359927 50.53375197
   -121.77187015 50.55162784
   -121.77548666 50.75203683
   -121.75342305 50.75660693
   -121.75265866 50.79499347
   -121.73052662 50.80000836
   -121.72869638 50.84065046
   -121.70644699 50.84415879
   -121.70188279 50.85792973
   -121.68245778 50.85908337
   -121.67995465 50.88604303
   -121.65885541 50.88800544
   -121.65583132 50.90008820
   -121.63548476 50.90217354
   -121.63263965 50.92973218
   -121.45673263 50.93191615
   -121.45166579 50.94319454
   -121.42269369 50.94410525
   -121.39515544 50.94325862
   -121.38951272 50.93199863
   -121.08104642 50.93120152
   -121.08202006 51.07449276
   -121.06934180 51.07816781
   -121.03310888 51.06265543
   -121.03362561 51.07513194
   -120.99406419 51.08876408
   -120.95448600 51.05652425
   -120.94368169 51.05992503
   -120.94680212 51.08655969
   -120.98039526 51.10405024
   -121.01085629 51.13681504
   -120.96851726 51.20776827
   -120.92562227 51.21944823
   -120.89272559 51.24971285
   -120.80162110 51.25681669
   -120.77116531 51.23825975
   -120.73189732 51.24563572
   -120.70939391 51.23042119
   -120.69283261 51.23539522
   -120.67770766 51.22383475
   -120.61374347 51.22245858
   -120.58837876 51.20349485
   -120.56824224 51.20117355
   -120.56991818 51.66349185
   -120.53578363 51.68948091
   -120.48625165 51.70984498
   -120.43357292 51.71843912
   -120.39395589 51.71052215
   -120.37897400 51.72688291
   -120.35203023 51.73272948
   -120.35267509 51.74453603
   -120.38932352 51.76366282
   -120.38030428 51.77513126
   -120.33716760 51.77948298
   -120.32940091 51.82145643
   -120.31102699 51.83652292
   -120.27524185 51.83847393
   -120.22935827 51.83196618
   -120.23898822 51.84996252
   -120.23477010 51.86304645
   -120.26400434 51.86781237
   -120.28230921 51.88735078
   -120.28187883 51.89587694
   -120.25812511 51.91397037
   -120.25756473 51.93202148
   -120.27783177 51.94834358
   -120.28142789 51.96846280
   -120.29914435 51.96231840
   -120.31374224 51.96929853
   -120.33244675 51.96191178
   -120.34605716 51.96423164
   -120.35536069 51.97433262
   -120.33980323 51.98747179
   -120.33873883 51.99835633
   -120.31207758 52.01787014
   -120.32617096 52.02488181
   -120.33057452 52.03921292
   -120.32404305 52.07062452
   -120.30417153 52.08317013
   -120.32680346 52.11996668
   -120.31875936 52.13913107
   -120.32691542 52.14811743
   -120.34431406 52.14818497
   -120.37902920 52.12717629
   -120.41696838 52.14168397
   -120.41127335 52.16801635
   -120.39737868 52.17958895
   -120.40388013 52.20071807
   -120.42901458 52.20629412
   -120.45068738 52.22976145
   -120.44874318 52.23652197
   -120.50282855 52.27785120
   -120.50033333 52.29174818
   -120.47904034 52.30305102
   -120.54508654 52.32867746
   -120.53162194 52.34387264
   -120.53772652 52.36022973
   -120.53007679 52.38284552
   -120.46971596 52.41860648
   -120.51773286 52.44715271
   -120.53842534 52.45269447
   -120.55246567 52.46654154
   -120.51629107 52.49943631
   -120.45469654 52.51687658
   -120.41288111 52.53991913
   -120.38840696 52.54332361
   -120.36817423 52.53557352
   -120.34171018 52.57035170
   -120.31549494 52.57856211
   -120.30190387 52.61145865
   -120.27268063 52.61445720
   -120.24458935 52.62859433
   -120.29943020 52.65552298
   -120.26499194 52.67999828
   -120.29616706 52.70217579
   -120.28514385 52.71359909
   -120.30383161 52.72420675
   -120.28610639 52.74568967
   -120.30324549 52.76107781
   -120.30203150 52.76943390
   -120.33972353 52.77600733
   -120.35010199 52.78852110
   -120.31667011 52.81483309
   -120.34465494 52.83308992
   -120.31908469 52.86378621
   -120.28343053 52.87493689
   -120.25850989 52.86611967
   -120.23944742 52.86872821
   -120.21964160 52.88410436
   -120.17470880 52.86695307
   -120.15434452 52.87840518
   -120.17546640 52.89604319
   -120.17734965 52.91394957
   -120.17454169 53.28904798
   -120.16630854 53.30211286
   -120.15318399 53.30914240
   -120.11690821 53.30722487
   -120.03276221 53.26315372
   -119.99308985 53.23393512
   -119.94263625 53.21650096
   -119.92402364 53.19468506
   -119.81576698 53.15666617
   -119.69293020 53.09296520
   -119.66421575 53.08885779
   -119.55149203 53.04188186
   -119.51372943 53.01515094
   -119.43546828 52.98282230
   -119.39318179 52.98635073
   -119.34990622 52.98004748
   -119.33138390 52.98533360
   -119.31672596 53.00389485
   -119.33645014 52.99917527
   -119.41456062 53.01022703
   -119.44045884 53.03188375
   -119.43541381 53.06866027
   -119.42445606 53.07141745
   -119.39699289 53.06550549
   -119.37383197 53.09413188
   -119.36968899 53.10942823
   -119.39689855 53.12076531
   -119.39377611 53.13593990
   -119.35575272 53.14523425
   -119.35194677 53.30375894
   -119.32093267 53.30008726
   -119.32618902 53.28324921
   -119.28220675 53.25302917
   -119.24114119 53.19760356
   -119.21756458 53.20025793
   -119.17714948 53.19098776
   -119.14086797 53.19663632
   -119.11500362 53.16872162
   -119.08450664 53.17132541
   -119.03960925 53.14940966
   -119.03714336 53.13304638
   -119.01543191 53.14851766
   -119.03900265 53.16567739
   -119.00994846 53.19501322
   -119.00993314 53.20916038
   -119.03620811 53.22441862
   -119.03336308 53.23463795
   -118.97703136 53.24783803
   -118.94129901 53.24401371
   -118.91498833 53.22894041
   -118.90732162 53.21615565
   -118.87383082 53.21116275
   -118.85480617 53.19566305
   -118.82508447 53.18801119
   -118.81593448 53.17811197
   -118.77956439 53.16390869
   -118.76535024 53.13781644
   -118.72329854 53.12239909
   -118.71941299 53.11388401
   -118.75577781 53.07364932
   -118.74863698 53.06537164
   -118.75777108 53.05338744
   -118.72437902 53.06637202
   -118.68951939 53.04365699
   -118.66671047 53.04866007
   -118.64630065 53.03793021
   -118.63050450 52.99822931
   -118.65955393 52.98033086
   -118.64415118 52.96040337
   -118.60369490 52.93826402
   -118.61028472 52.91622525
   -118.59625082 52.90406285
   -118.60349407 52.88657241
   -118.58150213 52.89047367
   -118.56996796 52.90515561
   -118.54753762 52.91423493
   -118.52432764 52.90581598
   -118.49781334 52.91238620
   -118.47124099 52.90614274
   -118.43939272 52.88852104
   -118.45040295 52.86680902
   -118.44556742 52.86014182
   -118.37782921 52.85010629
   -118.39055155 52.83914613
   -118.38949597 52.82306615
   -118.41106472 52.77830005
   -118.33454740 52.74234391
   -118.33288667 52.71152638
   -118.27979471 52.67798971
   -118.29314575 52.65002903
   -118.34384219 52.63034368
   -118.34252545 52.61503406
   -118.32402628 52.60857090
   -118.32270773 52.58457316
   -118.26382659 52.56908778
   -118.27773305 52.53922931
   -118.22861756 52.49512358
   -118.18315067 52.47873720
   -118.24405517 52.44685469
   -118.22971794 52.42831187
   -118.23366342 52.40920201
   -118.21320591 52.40173779
   -118.20951764 52.39148533
   -118.24777663 52.34308148
   -118.29281488 52.33296000
   -118.32163526 52.36177291
   -118.34919985 52.35995981
   -118.38953863 52.32963404
   -118.42065389 52.33029507
   -118.43546013 52.31915642
   -118.48272052 52.30765355
   -118.47922062 52.29756609
   -118.49395827 52.27746896
   -118.53610296 52.26730962
   -118.55298316 52.25711840
   -118.54568331 52.23190212
   -118.56027779 52.22103059
   -118.57395365 52.18947305
   -118.62140341 52.17795608
   -118.63265203 52.16524234
   -118.65975128 52.15852922
   -118.67183765 52.14581896
   -118.69004110 52.14660067
   -118.70118866 52.15915702
   -118.73011235 52.15647867
   -118.75318449 52.17823033
   -118.82375999 52.16237495
   -118.85535203 52.10345016
   -118.84468900 52.08638896
   -118.86238469 52.07368629
   -118.83891982 52.06073301
   -118.84213024 52.04662009
   -118.85288711 52.03965083
   -118.92953124 52.02932957
   -118.94001772 52.00437923
   -118.96231089 51.98559318
   -118.95989421 51.97997133
   -118.91201106 51.97143216
   -118.88295606 51.95790633
   -118.89618416 51.92942880
   -118.91378391 51.92048092
   -118.97870646 51.92732296
   -118.95579283 51.88741572
   -118.97251520 51.86498736
   -118.93881102 51.84767061
   -118.93796701 51.83234066
   -118.95358460 51.82193095
   -118.95162331 51.81263394
   -118.93621074 51.79934742
   -118.88506309 51.79164093
   -118.87579193 51.78397524
   -118.88662895 51.76278857
   -118.87644198 51.72954515
   -118.90851801 51.71462410
   -118.91317349 51.68547360
   -118.88271133 51.65114733
   -118.85117038 51.65047324
   -118.81922454 51.63958860
   -118.80782200 51.62797124
   -118.80502583 51.60086028
   -118.80820036 51.58650789
   -118.81816421 51.58243815
   -118.82231691 51.53324429
   -118.80028907 51.53024099
   -118.78222451 51.54267442
   -118.76183257 51.52786556
   -118.74259266 51.53495432
   -118.72181998 51.52905006
   -118.68212183 51.50433694
   -118.68351597 51.49680640
   -118.70395237 51.48740630
   -118.69780451 51.48048412
   -118.66771225 51.46614079
   -118.62720131 51.46909489
   -118.62190318 51.44973459
   -118.60355811 51.44277389
   -118.59867959 51.42247817
   -118.60610208 51.41210675
   -118.57148866 51.39031250
   -118.58238261 51.36846330
   -118.60560629 51.36059401
   -118.60504884 51.33311070
   -118.57991766 51.30480567
   -118.55523654 51.30469722
   -118.54139856 51.29165238
   -118.54179867 51.27237517
   -118.56641444 51.25086491
   -118.53487827 51.20931339
   -118.55692111 51.19762536
   -118.53398020 51.18408210
   -118.50234055 51.18528139
   -118.46033813 51.17313901
   -118.46412649 51.15178797
   -118.48107693 51.14447488
   -118.46441456 51.12748593
   -118.47108849 51.10385555
   -118.45273023 51.08288507
   -118.42666939 51.07769433
   -118.41177778 51.06496767
   -118.41123054 51.05622953
   -118.42494897 51.04755347
   -118.41128868 51.00918142
   -118.40457344 51.00588598
   -118.39170504 51.01312036
   -118.35964790 51.01495960
   -118.33694989 51.00151799
   -118.34344671 50.96517023
   -118.31021448 50.93318934
   -118.30428881 50.89434107
   -118.27937984 50.90220774
   -118.25950703 50.89599893
   -118.25749148 50.88138958
   -118.28456413 50.86615860
   -118.27727880 50.85306356
   -118.25950566 50.84318162
   -118.26314832 50.82944441
   -118.24884093 50.81997359
   -118.25772352 50.81050197
   -118.25385035 50.78973485
   -118.24301785 50.78437921
   -118.23310500 50.75828211
   -118.19633601 50.74068049
   -118.19080926 50.69834345
   -118.20184641 50.68324144
   -118.17320184 50.67699213
   -118.16104856 50.66672655
   -118.19189844 50.65154634
   -118.19043713 50.64138645
   -118.17335619 50.63940647
   -118.15306649 50.61288686
   -118.15377567 50.58825071
   -118.16636129 50.57737093
   -118.15987181 50.56836438
   -118.17545390 50.54649913
   -118.20210195 50.53974253
   -118.18549304 50.52484012
   -118.19360395 50.51551104
   -118.16954991 50.50352229
   -118.16677137 50.49103981
   -118.18491401 50.47039859
   -118.19677369 50.46839059
   -118.19478331 50.45020527
   -118.20481514 50.43515991
   -118.22554815 50.42774993
   -118.26079543 50.42858532
   -118.26467268 50.40568749
   -118.24793794 50.40289967
   -118.24601528 50.39433622
   -118.29218137 50.37687905
   -118.31789451 50.34824114
   -118.30791195 50.34320374
   -118.27012630 50.34545937
   -118.25102321 50.33673910
   -118.24550030 50.32485835
   -118.25925797 50.31354872
   -118.25364557 50.29962756
   -118.26610209 50.27819181
   -118.24926517 50.22921205
   -118.22920426 50.21236174
   -118.22974108 50.19450550
   -118.25066320 50.18036551
   -118.24395152 50.16588242
   -118.26818351 50.15288797
   -118.26889599 50.14334501
   -118.28226291 50.13352209
   -118.28574461 50.09401743
   -118.30434143 50.08948473
   -118.33647966 50.09366932
   -118.36958216 50.08419018
   -118.37667089 50.07299859
   -118.38879689 50.07073412
   -118.39174107 50.02984817
   -118.44130074 50.02717545
   -118.42690653 50.01901275
   -118.42265317 50.00722869
   -118.43307736 49.99941938
   -118.46112533 49.99566691
   -118.46302453 49.98860196
   -118.44787799 49.98054070
   -118.42962243 49.98564801
   -118.40872133 49.97731076
   -118.40902414 49.91660604
   -118.37281348 49.91919798
   -118.34452039 49.89684971
   -118.35262477 49.87726852
   -118.37060460 49.86759965
   -118.36757982 49.83000417
   -118.31902065 49.83576623
   -118.30370697 49.82671481
   -118.29246871 49.80137781
   -118.27901632 49.79292525
   -118.28473852 49.76946429
   -118.27805729 49.75909534
   -118.28763688 49.75031115
   -118.27627151 49.74552556
   -118.26432086 49.71099891
   -118.26867392 49.67198605
   -118.26487979 49.66381578
   -118.24475384 49.65972971
   -118.23222837 49.63639887
   -118.24483442 49.61761742
   -118.23548314 49.56011869
   -118.25042176 49.54604921
   -118.27790432 49.48862975
   -118.27164477 49.47215105
   -118.24347980 49.44600142
   -118.25475911 49.41797797
   -118.25109499 49.40959518
   -118.23702572 49.40622377
   -118.20896335 49.36088622
   -118.21834421 49.34395292
   -118.20908627 49.34063897
   -118.20857856 49.33262389
   -118.18146027 49.32971441
   -118.15721340 49.28206207
   -118.13486942 49.27903992
   -118.12487198 49.27177205
   -118.11994725 49.22610886
   -118.09568360 49.18518486
   -118.07819523 49.16979681
   -118.07726938 49.15891510
   -118.05636904 49.15782951
   -118.04392624 49.14486730
   -118.04445967 49.08684251
   -118.03746676 49.07461911
   -118.04356796 49.05240415
   -118.03632956 49.04509092
   -118.05201192 48.99678243
   -119.25003319 48.99370352
   -120.64930727 48.99447521
   -120.65706896 49.01035284
   -120.62953877 49.01989401
   -120.65573209 49.05444553
   -120.61755712 49.07856406
   -120.62903224 49.10333392
   -120.61438984 49.12075477
   -120.63092401 49.12214829
   -120.64974087 49.13885685
   -120.65246952 49.16676700
   -120.66415242 49.16660981
   -120.68316815 49.15146338
   -120.71063382 49.15304108
   -120.73808370 49.14214567
   -120.74748559 49.15315338
   -120.76564271 49.15615814
   -120.75678810 49.17419662
   -120.77440214 49.17084881
   -120.79932618 49.17860699
   -120.80352586 49.18676520
   -120.79448584 49.19490582
   -120.81032327 49.19356469
   -120.81814813 49.19945576
   -120.83725509 49.19525849
   -120.85109076 49.20316765
   -120.86546840 49.21735631
   -120.85772179 49.22521226
   -120.85890687 49.24536998
   -120.84527182 49.25783659
   -120.82770635 49.25891711
   -120.82783169 49.28837844
   -120.86701996 49.29264187
   -120.87231599 49.33410977
   -120.94546540 49.34573471
   -120.97411666 49.33457753
   -120.98198125 49.32192978
   -121.00990547 49.31833098
   -121.01313254 49.30573641
   -121.02671886 49.29895590
   -121.05138713 49.31735571
   -121.05254732 49.32635741
   -121.08293925 49.32307588
   -121.11072820 49.34626655
   -121.10876299 49.44225185
   -121.08881301 49.46923422
   -121.06504474 49.47338240
   -121.09124897 49.51793960
   -121.07513755 49.53040952
   -121.05853982 49.53215216
   -121.04542371 49.59087570
   -121.00333382 49.60329421
   -120.98800963 49.61757333
   -120.97251039 49.61660979
   -120.98033307 49.62865498
   -120.96939926 49.66712422
   -120.97922971 49.65357629
   -120.99761975 49.65220321
   -120.99873824 49.64184301
   -121.01347376 49.63176102
   -121.04268711 49.63063945
   -121.06323913 49.62000981
   -121.09570702 49.61918992
   -121.11835786 49.60391353
   -121.13265969 49.60652679
   -121.13508349 49.61530251
   -121.15724786 49.61093182
   -121.17006306 49.61769456
   -121.17917631 49.65185011
   -121.13523854 49.67838529
   -121.16476837 49.71153834
   -121.19978430 49.72938959
   -121.22141387 49.78035360
   -121.19555375 49.80284120
   -121.19771004 49.81459528
   -121.18714532 49.82631057
   -121.11604905 49.83425896
   -121.12636169 49.84851653
   -121.10181963 49.85990997
   -121.17313094 49.85511065
   -121.18225518 49.86106810
   -121.17992372 49.87675617
   -121.21174606 49.88790208
   -121.22480474 49.87723939
   -121.26465431 49.86448152
   -121.28840685 49.86608947
   -121.30506134 49.87756370
   -121.32769479 49.88038129
   -121.33311857 49.90278714
   -121.32177036 49.91679547
   -121.29860247 49.92113490
   -121.29415996 49.95870034
   -121.28048841 49.97515510
   -121.30170463 49.99779156
   -121.29836689 50.00711446
   -121.33413674 50.03062177
   -121.33420548 50.04624892
   -121.56399206 50.04594423
   -121.61133880 50.03567678
   -121.66834879 50.06064100
   -121.66673904 50.07346691
   -121.70504212 50.06884613
   -121.71862887 50.08009709
   -121.75558891 50.08586544
   -121.83908351 50.07146365
   -121.84185770 50.05040664
   -121.85960680 50.04013074
   -121.91364382 50.04810601
   -121.92606950 50.06575070
   -121.95965029 50.07711476
   -121.98150525 50.07378985
   -122.02856361 50.08040645
   -122.07524657 50.11750806
   -122.09468338 50.11738403
   -122.11469306 50.10111958
   -122.15846568 50.10745838
   -122.23313849 50.10457301
   -122.23970618 50.11082668
   -122.23281622 50.11925199
   -122.26226920 50.11699722
   -122.30533638 50.16673184
   -122.32288231 50.17035670
   -122.32456744 50.19047399
   -122.30903672 50.20361105
   -122.28758848 50.20676204
   -122.28545083 50.21760848
   -122.31071480 50.22739073
   -122.30586141 50.23918888
END
END
