Vancouver_Island
Vancouver Island
   -127.99443019 49.99371862
   -128.00622282 49.99514548
   -128.07451170 50.04021437
   -128.19014761 50.09925156
   -128.42930555 50.19884090
   -128.57709365 50.27040543
   -128.99226050 50.61020823
   -129.08545903 50.70451487
   -129.11168759 50.75383010
   -129.12926370 50.81157707
   -129.12143950 50.90666322
   -129.09261438 50.96914672
   -127.99389252 51.08727359
   -127.92011849 51.08279243
   -127.86925273 51.10147612
   -127.79900980 51.16116611
   -127.74593285 51.16521529
   -127.74249616 51.19442264
   -127.65930142 51.19682262
   -127.64674833 51.19044081
   -127.53442742 51.20381505
   -127.51165742 51.19198339
   -127.50346533 51.19370095
   -127.49783010 51.20702528
   -127.46295913 51.21052449
   -127.46170998 51.22751285
   -127.44489206 51.23382449
   -127.38892153 51.23465822
   -127.35817038 51.22348760
   -127.33822286 51.22357438
   -127.32531231 51.21573429
   -127.26381415 51.21732144
   -127.25736653 51.22520503
   -127.23876174 51.22624960
   -127.21171415 51.21689362
   -127.20358731 51.20745242
   -127.16585548 51.21143350
   -127.07668904 51.23556557
   -127.02792624 51.23716187
   -126.98898577 51.24836710
   -126.95275053 51.24206212
   -126.93278500 51.24651932
   -126.93225466 51.28127177
   -126.89965955 51.31091121
   -126.87434709 51.31264868
   -126.86018609 51.32803298
   -126.83532641 51.32834252
   -126.80419547 51.30476909
   -126.77266543 51.30675083
   -126.75875205 51.33669319
   -126.73148828 51.35169521
   -126.73394585 51.36273898
   -126.71996579 51.37938515
   -126.72043144 51.39520148
   -126.70956069 51.40965011
   -126.73551104 51.44124239
   -126.71711933 51.46256854
   -126.71745333 51.47725293
   -126.70138081 51.48566794
   -126.68809740 51.48327812
   -126.65198003 51.45563752
   -126.61300621 51.44800981
   -126.59892008 51.41701241
   -126.58380012 51.41274021
   -126.55987407 51.42613487
   -126.53183572 51.42425256
   -126.51324119 51.43110413
   -126.48260539 51.45360266
   -126.45723663 51.48846976
   -126.43962756 51.49346930
   -126.41798836 51.48491051
   -126.38071619 51.48592207
   -126.36096455 51.46411799
   -126.34525584 51.46833675
   -126.32548063 51.46340588
   -126.30374852 51.46941701
   -126.28914982 51.46031761
   -126.22633446 51.46255003
   -126.17927967 51.44244177
   -126.15596535 51.45501926
   -126.15422428 51.47102753
   -126.12643647 51.47298658
   -126.11545357 51.46681040
   -126.11028483 51.47618138
   -126.12767859 51.52011816
   -126.09545007 51.53178018
   -126.09468304 51.54401408
   -126.06292235 51.56767362
   -126.07267652 51.58220709
   -126.05833787 51.59673680
   -126.02573026 51.60604768
   -125.98103550 51.58733373
   -125.93902951 51.60073213
   -125.92145978 51.61714451
   -125.96051572 51.64690221
   -125.95233000 51.68072165
   -125.96173529 51.68557989
   -125.98161711 51.68113259
   -126.00034716 51.68559891
   -126.00845257 51.72396993
   -125.95807422 51.76605017
   -125.98167348 51.78990480
   -125.93649110 51.82026820
   -125.92383512 51.89250776
   -125.88287236 51.89903747
   -125.89101384 51.96302677
   -125.88535279 51.97286997
   -125.85824315 51.98348722
   -125.81637756 51.98202367
   -125.78343748 52.00582884
   -125.75267915 52.01600757
   -125.71626777 52.01411901
   -125.69877317 51.99691069
   -125.68641538 51.96743490
   -125.64851370 51.92885690
   -125.59776299 51.90733608
   -125.57124176 51.92218800
   -125.54175455 51.91787835
   -125.54856912 51.93574281
   -125.53306174 51.94449727
   -125.52014253 51.94357640
   -125.47743501 51.91684633
   -125.49630815 51.87294727
   -125.45963831 51.86891850
   -125.45042617 51.84716004
   -125.41357591 51.84762861
   -125.39936776 51.84274166
   -125.39458866 51.83216065
   -125.40433058 51.82254735
   -125.37213460 51.79452558
   -125.35196595 51.79696758
   -125.32468396 51.78614893
   -125.26970319 51.77793432
   -125.24750554 51.76950032
   -125.22848516 51.75114308
   -125.24589106 51.72432072
   -125.22510725 51.70109540
   -125.23810159 51.67564774
   -125.21923419 51.64290883
   -125.28248564 51.60613087
   -125.28564889 51.59041618
   -125.22614448 51.57291928
   -125.22750414 51.55762516
   -125.25762075 51.54658096
   -125.25295728 51.53720579
   -125.23212906 51.52686159
   -125.23196149 51.51692994
   -125.24391491 51.50502115
   -125.27655568 51.50072279
   -125.26875389 51.48538526
   -125.28330937 51.47068382
   -125.31863755 51.47383366
   -125.30156962 51.45918757
   -125.32293291 51.44668505
   -125.33140476 51.42495636
   -125.31905899 51.40013456
   -125.26855971 51.38493618
   -125.25489935 51.39954449
   -125.21592849 51.39879974
   -125.18326376 51.40634651
   -125.16879580 51.40211590
   -125.15658402 51.38158047
   -125.12692564 51.36981703
   -125.07365176 51.35927454
   -125.06081323 51.36363999
   -125.00615970 51.35574654
   -124.96379851 51.34423314
   -124.95565826 51.33468005
   -124.88384341 51.33614939
   -124.87482142 51.32785214
   -124.79254698 51.30979317
   -124.77279242 51.29116197
   -124.75529881 51.24351755
   -124.70929278 51.23090065
   -124.68802777 51.21534122
   -124.68407215 51.22356300
   -124.67328505 51.22514557
   -124.57651248 51.18692715
   -124.54126213 51.18542329
   -124.43391399 51.15532352
   -124.43731989 51.17307280
   -124.40803655 51.19336217
   -124.36398951 51.20553950
   -124.35640670 51.19574152
   -124.36705432 51.15112338
   -124.33838820 51.15204831
   -124.29647997 51.14378607
   -124.24386737 51.15475436
   -124.16775903 51.13600126
   -124.15806693 51.12654286
   -124.16478788 51.11666636
   -124.16020411 51.08922674
   -124.14993236 51.07822316
   -124.16203258 51.06094056
   -124.15108276 51.04491234
   -124.10997384 51.02108982
   -124.07953966 51.01376375
   -124.07331324 51.00122018
   -124.07916279 50.99306326
   -124.06510667 50.98853591
   -124.03579698 50.95108211
   -124.00250925 50.97103075
   -123.97731662 50.96793989
   -123.93704053 50.95116126
   -123.93022132 50.94272952
   -123.87168288 50.95666568
   -123.81901217 50.92762950
   -123.82416607 50.91133247
   -123.80592996 50.91741607
   -123.76081002 50.91623490
   -123.74914761 50.90675606
   -123.75122380 50.88923793
   -123.74314489 50.88098946
   -123.72477408 50.88226222
   -123.70907686 50.87371904
   -123.70439233 50.84724326
   -123.72461021 50.83740056
   -123.79398015 50.82745697
   -123.81813459 50.83232182
   -123.80298622 50.82189545
   -123.79135119 50.79638517
   -123.82805894 50.77400311
   -123.85461784 50.74800670
   -123.84202223 50.74486317
   -123.81781697 50.72229616
   -123.82485173 50.70963227
   -123.84657334 50.70458099
   -123.86941760 50.70539032
   -123.92639796 50.73805165
   -123.93898794 50.76299407
   -123.95617392 50.77139603
   -123.98227481 50.79983705
   -124.03925020 50.80691261
   -124.05449637 50.83228378
   -124.06437082 50.83347794
   -124.07131360 50.82627095
   -124.08933470 50.78511362
   -124.11058139 50.78123111
   -124.19463448 50.79505219
   -124.21760930 50.81472106
   -124.24720338 50.81213448
   -124.26798543 50.81934534
   -124.26302824 50.84678442
   -124.27691426 50.85545239
   -124.29398231 50.85708200
   -124.31452838 50.85022088
   -124.31806378 50.81636011
   -124.34596549 50.79821441
   -124.33698210 50.78790829
   -124.37012426 50.77490439
   -124.34338930 50.76050189
   -124.34102446 50.74225186
   -124.38234777 50.71531683
   -124.42307508 50.71573278
   -124.43006867 50.70751142
   -124.47539555 50.69348207
   -124.50738951 50.69050060
   -124.52442250 50.67598691
   -124.58997782 50.65545226
   -124.59279059 50.64182331
   -124.55901997 50.60579228
   -124.57345452 50.58988193
   -124.57067488 50.57435601
   -124.54416451 50.54761265
   -124.52955376 50.54499620
   -124.52382415 50.53428339
   -124.50274365 50.52368300
   -124.50480861 50.49557872
   -124.54379289 50.47831898
   -124.56426674 50.46049713
   -124.56657926 50.41093096
   -124.65359156 50.40607096
   -124.69179826 50.36507720
   -124.75654034 50.32138432
   -124.68638112 50.31156686
   -124.63157308 50.28050661
   -124.61552325 50.25017279
   -124.61938701 50.21134866
   -124.63388102 50.18851652
   -124.66286879 50.16796059
   -124.71939595 50.14906753
   -124.85488292 50.08322368
   -124.83069831 50.02110952
   -124.85208567 50.00067731
   -124.87278165 49.99609468
   -124.93237569 50.00391461
   -124.96045652 49.99376266
   -124.93091817 49.94267384
   -124.74101365 49.71379929
   -124.64631052 49.64222361
   -124.50636318 49.56673170
   -124.49114560 49.54985844
   -124.49071504 49.50099699
   -124.41066064 49.43848006
   -124.36785690 49.42037003
   -124.29042030 49.40114843
   -123.86710724 49.34807965
   -123.71097931 49.31238073
   -123.60980929 49.27857816
   -123.51580946 49.23415393
   -123.47335762 49.20253930
   -123.35048264 49.00866023
   -123.31249896 49.00493982
   -123.00058561 48.83471955
   -123.00243658 48.76225401
   -123.25744165 48.69014919
   -123.20897001 48.54946394
   -123.15050527 48.45717811
   -123.10438679 48.42315449
   -123.23798767 48.28210843
   -123.24205081 48.24665109
   -123.75652802 48.24655580
   -124.00234386 48.28890623
   -124.00942896 48.30214681
   -124.28155310 48.37934065
   -124.50828330 48.49477360
   -124.83498785 48.53988787
   -124.83376361 48.52008053
   -124.84519565 48.51545028
   -124.89447038 48.52352543
   -125.03480055 48.56428522
   -125.19015565 48.63245635
   -125.34335530 48.72469367
   -125.50522584 48.80262878
   -125.63299657 48.84385297
   -125.80553195 48.92061368
   -126.09643052 49.11848773
   -126.25797376 49.24621004
   -126.37700845 49.28415994
   -126.57647250 49.33186442
   -126.60038454 49.34327874
   -126.62198945 49.36430102
   -126.63821380 49.39891433
   -126.62098555 49.53386324
   -126.99921830 49.51500138
   -127.29549802 49.50750308
   -127.45742672 49.54737396
   -127.71208516 49.69514599
   -127.79117355 49.76948997
   -127.99443019 49.99371862
END
END
