Vancouver_Coast_and_Mountains
Vancouver, Coast and Mountains
   -124.94907980 49.93806235
   -124.97947803 49.99084666
   -124.97874881 50.00317096
   -124.93531562 50.01662616
   -124.87139161 50.00881284
   -124.86225287 50.01184220
   -124.85129623 50.02414064
   -124.87380802 50.08899164
   -124.73009982 50.15968951
   -124.67525645 50.17773279
   -124.65107125 50.19475710
   -124.63875794 50.21384435
   -124.63531248 50.24858433
   -124.66507191 50.28734897
   -124.70802567 50.30437116
   -124.76431299 50.30718814
   -124.77830578 50.32237951
   -124.70738289 50.37285096
   -124.66547153 50.41629027
   -124.58492153 50.42005896
   -124.58306407 50.46519459
   -124.55690141 50.48802470
   -124.52339746 50.50091652
   -124.52384292 50.52096398
   -124.55687619 50.53672560
   -124.59067153 50.57209277
   -124.59372914 50.59224781
   -124.57968850 50.60487927
   -124.61294358 50.63742785
   -124.60742727 50.66568507
   -124.53657776 50.68712509
   -124.51727482 50.70144483
   -124.48265328 50.70531354
   -124.44293030 50.71827806
   -124.43258114 50.72830023
   -124.39034273 50.72729743
   -124.35940987 50.74909177
   -124.39166236 50.77488349
   -124.38401733 50.78462975
   -124.36353995 50.79084322
   -124.36968077 50.80181074
   -124.33811999 50.82023348
   -124.33292923 50.85563679
   -124.31505838 50.86620151
   -124.26882334 50.86699544
   -124.24265774 50.84915982
   -124.25061043 50.82744802
   -124.20995557 50.82646008
   -124.18403666 50.80666043
   -124.10841319 50.79389138
   -124.07720849 50.84426620
   -124.04506725 50.84361478
   -124.02974434 50.83462094
   -124.02380414 50.81654208
   -123.98383500 50.81519519
   -123.96721865 50.80841174
   -123.92197040 50.77012424
   -123.91055404 50.74598236
   -123.86106895 50.71707451
   -123.83817500 50.72074460
   -123.85481571 50.73505960
   -123.87041747 50.73873746
   -123.87661172 50.74994529
   -123.81236989 50.80157355
   -123.83851146 50.82765201
   -123.82664932 50.84577680
   -123.79456571 50.84027241
   -123.72748306 50.84974065
   -123.71555274 50.84187442
   -123.71519665 50.81415974
   -123.70220347 50.79860037
   -123.69305335 50.80538506
   -123.67284973 50.80716743
   -123.62541414 50.79816043
   -123.60814383 50.78380764
   -123.54571780 50.80744884
   -123.51939099 50.80289444
   -123.49849635 50.78646549
   -123.45449689 50.80450033
   -123.43410722 50.80199518
   -123.40733819 50.78791137
   -123.36195855 50.80649347
   -123.35107170 50.79297527
   -123.34858518 50.76409902
   -123.31504259 50.73699577
   -123.27347955 50.73893114
   -123.22958229 50.72785691
   -123.19137113 50.69150157
   -123.17388753 50.66209515
   -123.14842273 50.65597412
   -123.15728302 50.64088952
   -123.11554585 50.63410489
   -123.07435507 50.59841375
   -123.04320629 50.58404194
   -123.05339906 50.59337229
   -123.05000811 50.60323127
   -123.02926445 50.60936064
   -123.01309044 50.60624032
   -122.95086827 50.55481667
   -122.93526074 50.60542487
   -122.87070926 50.62224785
   -122.83929415 50.65098005
   -122.79797300 50.65382823
   -122.78233846 50.67158451
   -122.74611655 50.66095033
   -122.72537000 50.66194693
   -122.70207200 50.65140121
   -122.67980686 50.65829895
   -122.62429981 50.65825827
   -122.59940991 50.63604090
   -122.59800433 50.60345835
   -122.50071314 50.57283089
   -122.48809811 50.57293143
   -122.47703455 50.58404394
   -122.44481247 50.63421152
   -122.42458122 50.63627914
   -122.41760465 50.63090373
   -122.41944964 50.60160702
   -122.39906714 50.59104932
   -122.43524823 50.56165497
   -122.33146851 50.52540956
   -122.30629518 50.51099710
   -122.27763481 50.47422234
   -122.29484211 50.45995427
   -122.29573630 50.42800207
   -122.33124789 50.41064703
   -122.39261917 50.40503560
   -122.40170916 50.39439594
   -122.41714025 50.39249455
   -122.45238498 50.42541439
   -122.49357629 50.43783002
   -122.48619184 50.41799729
   -122.51574477 50.41189532
   -122.51547236 50.39511226
   -122.49963271 50.39921108
   -122.48083517 50.39561893
   -122.46773913 50.38568977
   -122.46104285 50.36079014
   -122.43407905 50.34132020
   -122.40341018 50.33845336
   -122.35804725 50.31488173
   -122.34777106 50.28699295
   -122.36279199 50.26535269
   -122.33790180 50.25305944
   -122.34663518 50.23691341
   -122.29979389 50.23597140
   -122.25940621 50.22580327
   -122.26994299 50.19970483
   -122.29211707 50.19447155
   -122.30578283 50.18375493
   -122.29009565 50.17715677
   -122.25406852 50.13033885
   -122.22202541 50.13222144
   -122.21176770 50.11542299
   -122.15920252 50.12080923
   -122.12286363 50.11611182
   -122.10308074 50.13005855
   -122.06701238 50.13235019
   -122.01672852 50.09095486
   -121.99901281 50.09368610
   -121.98205651 50.08686231
   -121.94929245 50.09640938
   -121.94156368 50.08519763
   -121.91372723 50.07663792
   -121.89179209 50.05629343
   -121.86544125 50.05640450
   -121.85216823 50.08190507
   -121.79628562 50.09608731
   -121.75368562 50.09863918
   -121.71035636 50.09188539
   -121.69697877 50.08210615
   -121.65752951 50.08651769
   -121.64868202 50.08134391
   -121.64667993 50.06603328
   -121.63122057 50.06381870
   -121.60899897 50.04936187
   -121.56505015 50.05852632
   -121.31241983 50.05847700
   -121.30564259 50.05170077
   -121.31682876 50.03788576
   -121.28177620 50.01394237
   -121.27993871 50.00141453
   -121.26395926 49.99037848
   -121.25805020 49.96414048
   -121.27815172 49.94470714
   -121.28045425 49.91594223
   -121.30590976 49.90558112
   -121.30814522 49.89023388
   -121.27127793 49.87710229
   -121.23719503 49.88885677
   -121.22534455 49.89982165
   -121.20685526 49.90035887
   -121.17982559 49.88935737
   -121.15009746 49.89143728
   -121.14823943 49.88371303
   -121.16357384 49.86639991
   -121.13465309 49.86841314
   -121.10029260 49.87946281
   -121.09031073 49.87714725
   -121.07691381 49.85449310
   -121.10370727 49.84430756
   -121.09406206 49.83715228
   -121.09584162 49.82929923
   -121.11629879 49.82029888
   -121.17583145 49.81528539
   -121.17878854 49.79614171
   -121.20165044 49.77718112
   -121.18249397 49.73558389
   -121.14806589 49.72028727
   -121.10926395 49.67901648
   -121.12566963 49.66288271
   -121.15834623 49.64716980
   -121.15335617 49.62460081
   -121.13363468 49.62874838
   -121.11762089 49.62109233
   -121.10261752 49.63137279
   -121.07436529 49.63139975
   -121.05574324 49.64268651
   -121.02841111 49.64327340
   -121.01400446 49.66298172
   -120.99491827 49.66478953
   -120.98799457 49.67928153
   -120.95532171 49.67944154
   -120.94740217 49.66996811
   -120.94998135 49.64110922
   -120.96031613 49.62939780
   -120.95402755 49.61099980
   -120.96673529 49.60244220
   -120.98290968 49.60239475
   -120.98522057 49.59229842
   -121.02686236 49.58276118
   -121.02637775 49.54986436
   -121.03986214 49.54175267
   -121.03982997 49.52726603
   -121.07197024 49.51529855
   -121.04132335 49.47317020
   -121.07055201 49.45899984
   -121.08952283 49.43492656
   -121.08841200 49.35989386
   -121.06565827 49.35352942
   -121.07037568 49.34529198
   -121.08302865 49.34235331
   -121.07571913 49.33544805
   -121.06403677 49.33975000
   -121.04250377 49.33716458
   -121.03077624 49.32210689
   -121.01721387 49.33608130
   -120.99342419 49.33390255
   -120.98738946 49.34451941
   -120.94725380 49.35868196
   -120.85624896 49.34387071
   -120.85061473 49.31996734
   -120.83957135 49.31303777
   -120.84438582 49.30377693
   -120.80953810 49.29872337
   -120.80121112 49.29104837
   -120.81229121 49.27639014
   -120.80994943 49.24719140
   -120.83719767 49.24398286
   -120.83214954 49.21082601
   -120.76077295 49.20698300
   -120.75623752 49.20041860
   -120.76594638 49.19174466
   -120.74687060 49.18626663
   -120.72258982 49.16378539
   -120.69429117 49.16659107
   -120.67013957 49.18040863
   -120.63847038 49.18279180
   -120.63295683 49.14506583
   -120.58938851 49.12987935
   -120.60768472 49.10198197
   -120.59802053 49.07909080
   -120.60165304 49.06705107
   -120.63380357 49.05337712
   -120.60565519 49.01757184
   -120.64531115 48.99391789
   -121.24999751 48.99370329
   -121.99586248 48.99370845
   -123.35996977 48.99677091
   -123.48955820 49.19577964
   -123.52828714 49.22457518
   -123.62020961 49.26798179
   -123.69740023 49.29507507
   -123.83826315 49.32908296
   -123.91944575 49.34368932
   -124.29536523 49.38897143
   -124.37621830 49.40901595
   -124.42324361 49.42892879
   -124.51053577 49.49736686
   -124.51030394 49.54690149
   -124.52193954 49.55922616
   -124.65984763 49.63320821
   -124.75735194 49.70699959
   -124.94907980 49.93806235
END
END
