<svg width="563" height="162" viewBox="0 0 563 162" fill="none" xmlns="http://www.w3.org/2000/svg">
<path fill-rule="evenodd" clip-rule="evenodd" d="M144 72C144 101.833 125.856 127.429 100 138.353C86.634 144 82 147 78 155C77.6105 155.779 77.2779 156.52 76.9689 157.208C75.6915 160.055 74.8184 162 72 162C69.1816 162 68.3085 160.055 67.0311 157.208C66.7221 156.52 66.3895 155.779 66 155C62 147 57 144 44 138.353C18.1445 127.429 0 101.833 0 72C0 32.2355 32.2355 0 72 0C111.765 0 144 32.2355 144 72ZM112 72.0001C112 94.0915 94.0915 112 72.0001 112C49.9087 112 32 94.0915 32 72.0001C32 49.9087 49.9087 32 72.0001 32C94.0915 32 112 49.9087 112 72.0001Z" fill="#FF8800"/>
<path d="M214.68 105.94C209.94 105.94 205.62 105.04 201.72 103.24C197.88 101.38 194.55 98.92 191.73 95.86C188.91 92.74 186.75 89.2599 185.25 85.4199C183.75 81.5199 183 77.5 183 73.36C183 69.1599 183.78 65.1399 185.34 61.2999C186.96 57.3999 189.18 53.95 192 50.95C194.88 47.89 198.27 45.49 202.17 43.7499C206.07 42.0099 210.33 41.1399 214.95 41.1399C219.69 41.1399 223.98 42.0699 227.82 43.93C231.72 45.7299 235.05 48.1899 237.81 51.31C240.63 54.43 242.79 57.94 244.29 61.84C245.79 65.68 246.54 69.61 246.54 73.63C246.54 77.83 245.73 81.8799 244.11 85.7799C242.55 89.6199 240.33 93.0699 237.45 96.1299C234.63 99.1299 231.27 101.53 227.37 103.33C223.53 105.07 219.3 105.94 214.68 105.94ZM198.03 73.54C198.03 76.8399 198.66 79.96 199.92 82.9C201.18 85.78 203.07 88.15 205.59 90.01C208.11 91.87 211.17 92.8 214.77 92.8C218.49 92.8 221.58 91.84 224.04 89.92C226.56 88 228.42 85.57 229.62 82.63C230.88 79.63 231.51 76.54 231.51 73.36C231.51 70.06 230.85 66.97 229.53 64.09C228.27 61.15 226.38 58.78 223.86 56.9799C221.4 55.18 218.37 54.28 214.77 54.28C211.05 54.28 207.93 55.2399 205.41 57.16C202.95 59.02 201.09 61.42 199.83 64.36C198.63 67.3 198.03 70.36 198.03 73.54Z" fill="black"/>
<path d="M274.337 106.3C270.257 106.3 266.297 105.64 262.457 104.32C258.677 102.94 255.467 100.99 252.827 98.47L257.777 89.38C263.597 93.64 268.967 95.77 273.887 95.77C275.747 95.77 277.187 95.47 278.207 94.87C279.227 94.27 279.737 93.34 279.737 92.08C279.737 90.76 279.047 89.83 277.667 89.29C276.287 88.69 274.247 88 271.547 87.22C267.947 86.02 264.947 84.8499 262.547 83.7099C260.147 82.5699 258.347 81.1899 257.147 79.57C255.947 77.9499 255.347 75.79 255.347 73.09C255.347 68.35 257.117 64.54 260.657 61.66C264.197 58.72 268.997 57.25 275.057 57.25C278.297 57.25 281.447 57.76 284.507 58.78C287.627 59.8 290.537 61.5099 293.237 63.91L287.657 72.91C284.957 71.05 282.557 69.7 280.457 68.86C278.357 68.02 276.317 67.5999 274.337 67.5999C272.777 67.5999 271.457 67.9 270.377 68.5C269.297 69.04 268.757 70 268.757 71.38C268.757 72.7 269.357 73.69 270.557 74.3499C271.757 74.95 273.617 75.61 276.137 76.33C279.977 77.47 283.187 78.6399 285.767 79.84C288.407 80.98 290.357 82.42 291.617 84.16C292.937 85.84 293.597 88.09 293.597 90.91C293.597 95.71 291.857 99.49 288.377 102.25C284.897 104.95 280.217 106.3 274.337 106.3Z" fill="black"/>
<path d="M378.384 105.4H363.984V78.8499C363.984 75.7899 363.414 73.54 362.274 72.1C361.134 70.66 359.664 69.9399 357.864 69.9399C355.944 69.9399 354.054 70.7199 352.194 72.2799C350.334 73.84 349.014 75.8499 348.234 78.3099V105.4H333.834V78.8499C333.834 75.7299 333.264 73.48 332.124 72.1C330.984 70.66 329.514 69.9399 327.714 69.9399C325.794 69.9399 323.904 70.7199 322.044 72.2799C320.244 73.84 318.924 75.8499 318.084 78.3099V105.4H303.684V58.1499H316.644V66.07C318.384 63.2499 320.754 61.09 323.754 59.59C326.754 58.03 330.204 57.25 334.104 57.25C338.004 57.25 341.004 58.18 343.104 60.04C345.204 61.8399 346.554 63.97 347.154 66.43C348.954 63.55 351.324 61.2999 354.264 59.68C357.264 58.06 360.624 57.25 364.344 57.25C367.344 57.25 369.744 57.8199 371.544 58.9599C373.404 60.0399 374.814 61.4799 375.774 63.2799C376.794 65.0799 377.484 67.0299 377.844 69.1299C378.204 71.1699 378.384 73.18 378.384 75.16V105.4Z" fill="black"/>
<path d="M407.775 41.4999H423.705L445.665 105.4H430.545L425.595 91.09H405.705L400.845 105.4H385.725L407.775 41.4999ZM423.165 80.92L415.695 56.35L408.045 80.92H423.165Z" fill="black"/>
<path d="M499.028 105.4H484.628V78.8499C484.628 75.7299 484.028 73.48 482.828 72.1C481.688 70.66 480.158 69.9399 478.238 69.9399C476.258 69.9399 474.248 70.7199 472.208 72.2799C470.168 73.84 468.728 75.8499 467.888 78.3099V105.4H453.488V58.1499H466.448V66.07C468.188 63.3099 470.648 61.15 473.828 59.59C477.008 58.03 480.668 57.25 484.808 57.25C487.868 57.25 490.328 57.8199 492.188 58.9599C494.108 60.0399 495.548 61.4799 496.508 63.2799C497.528 65.02 498.188 66.94 498.488 69.04C498.848 71.14 499.028 73.18 499.028 75.16V105.4Z" fill="black"/>
<path d="M508.595 81.7299C508.595 77.1699 509.465 73.06 511.205 69.4C513.005 65.68 515.465 62.7399 518.585 60.5799C521.765 58.3599 525.395 57.25 529.475 57.25C532.775 57.25 535.745 58.06 538.385 59.68C541.085 61.24 543.155 63.3099 544.595 65.8899V39.7H558.995V89.38C558.995 90.82 559.205 91.84 559.625 92.44C560.105 93.04 560.915 93.37 562.055 93.43V105.4C559.535 105.88 557.495 106.12 555.935 106.12C553.475 106.12 551.465 105.58 549.905 104.5C548.345 103.42 547.415 101.92 547.115 100L546.845 97.57C545.165 100.51 542.885 102.7 540.005 104.14C537.125 105.58 534.095 106.3 530.915 106.3C526.595 106.3 522.755 105.25 519.395 103.15C516.035 100.99 513.395 98.05 511.475 94.33C509.555 90.61 508.595 86.41 508.595 81.7299ZM544.685 87.58V77.68C543.785 75.28 542.315 73.3299 540.275 71.8299C538.295 70.2699 536.225 69.49 534.065 69.49C532.025 69.49 530.195 70.06 528.575 71.2C526.955 72.34 525.695 73.87 524.795 75.79C523.895 77.71 523.445 79.78 523.445 82C523.445 85.48 524.495 88.3899 526.595 90.7299C528.755 93.01 531.485 94.15 534.785 94.15C536.765 94.15 538.655 93.58 540.455 92.44C542.315 91.24 543.725 89.62 544.685 87.58Z" fill="black"/>
</svg>
