<svg width="562" height="162" viewBox="0 0 562 162" fill="none" xmlns="http://www.w3.org/2000/svg">
<path fill-rule="evenodd" clip-rule="evenodd" d="M144 72C144 101.833 125.856 127.429 100 138.353C86.634 144 82 147 78 155C77.6105 155.779 77.2779 156.52 76.9689 157.208C75.6915 160.055 74.8184 162 72 162C69.1816 162 68.3085 160.055 67.0311 157.208C66.7221 156.52 66.3895 155.779 66 155C62 147 57 144 44 138.353C18.1445 127.429 0 101.833 0 72C0 32.2355 32.2355 0 72 0C111.765 0 144 32.2355 144 72ZM112 72.0001C112 94.0915 94.0915 112 72.0001 112C49.9087 112 32 94.0915 32 72.0001C32 49.9087 49.9087 32 72.0001 32C94.0915 32 112 49.9087 112 72.0001Z" fill="#FF8800"/>
<path d="M213.68 92.94C208.94 92.94 204.62 92.0399 200.72 90.2399C196.88 88.3799 193.55 85.92 190.73 82.86C187.91 79.74 185.75 76.2599 184.25 72.4199C182.75 68.5199 182 64.5 182 60.36C182 56.1599 182.78 52.1399 184.34 48.2999C185.96 44.3999 188.18 40.95 191 37.95C193.88 34.89 197.27 32.49 201.17 30.7499C205.07 29.0099 209.33 28.1399 213.95 28.1399C218.69 28.1399 222.98 29.0699 226.82 30.93C230.72 32.7299 234.05 35.1899 236.81 38.31C239.63 41.43 241.79 44.94 243.29 48.84C244.79 52.68 245.54 56.61 245.54 60.63C245.54 64.83 244.73 68.8799 243.11 72.7799C241.55 76.6199 239.33 80.0699 236.45 83.1299C233.63 86.1299 230.27 88.53 226.37 90.33C222.53 92.07 218.3 92.94 213.68 92.94ZM197.03 60.54C197.03 63.8399 197.66 66.96 198.92 69.9C200.18 72.78 202.07 75.15 204.59 77.01C207.11 78.87 210.17 79.8 213.77 79.8C217.49 79.8 220.58 78.84 223.04 76.92C225.56 75 227.42 72.57 228.62 69.63C229.88 66.63 230.51 63.54 230.51 60.36C230.51 57.06 229.85 53.97 228.53 51.09C227.27 48.15 225.38 45.78 222.86 43.9799C220.4 42.18 217.37 41.28 213.77 41.28C210.05 41.28 206.93 42.2399 204.41 44.16C201.95 46.02 200.09 48.42 198.83 51.36C197.63 54.3 197.03 57.36 197.03 60.54Z" fill="black"/>
<path d="M273.337 93.3C269.257 93.3 265.297 92.64 261.457 91.32C257.677 89.94 254.467 87.99 251.827 85.47L256.777 76.38C262.597 80.64 267.967 82.77 272.887 82.77C274.747 82.77 276.187 82.47 277.207 81.87C278.227 81.27 278.737 80.34 278.737 79.08C278.737 77.76 278.047 76.83 276.667 76.29C275.287 75.69 273.247 75 270.547 74.22C266.947 73.02 263.947 71.8499 261.547 70.7099C259.147 69.5699 257.347 68.1899 256.147 66.57C254.947 64.9499 254.347 62.79 254.347 60.09C254.347 55.35 256.117 51.54 259.657 48.66C263.197 45.72 267.997 44.25 274.057 44.25C277.297 44.25 280.447 44.76 283.507 45.78C286.627 46.8 289.537 48.5099 292.237 50.91L286.657 59.91C283.957 58.05 281.557 56.7 279.457 55.86C277.357 55.02 275.317 54.5999 273.337 54.5999C271.777 54.5999 270.457 54.9 269.377 55.5C268.297 56.04 267.757 57 267.757 58.38C267.757 59.7 268.357 60.69 269.557 61.3499C270.757 61.95 272.617 62.61 275.137 63.33C278.977 64.47 282.187 65.6399 284.767 66.84C287.407 67.98 289.357 69.42 290.617 71.16C291.937 72.84 292.597 75.09 292.597 77.91C292.597 82.71 290.857 86.49 287.377 89.25C283.897 91.95 279.217 93.3 273.337 93.3Z" fill="black"/>
<path d="M377.384 92.4H362.984V65.8499C362.984 62.7899 362.414 60.54 361.274 59.1C360.134 57.66 358.664 56.9399 356.864 56.9399C354.944 56.9399 353.054 57.7199 351.194 59.2799C349.334 60.84 348.014 62.8499 347.234 65.3099V92.4H332.834V65.8499C332.834 62.7299 332.264 60.48 331.124 59.1C329.984 57.66 328.514 56.9399 326.714 56.9399C324.794 56.9399 322.904 57.7199 321.044 59.2799C319.244 60.84 317.924 62.8499 317.084 65.3099V92.4H302.684V45.1499H315.644V53.07C317.384 50.2499 319.754 48.09 322.754 46.59C325.754 45.03 329.204 44.25 333.104 44.25C337.004 44.25 340.004 45.18 342.104 47.04C344.204 48.8399 345.554 50.97 346.154 53.43C347.954 50.55 350.324 48.2999 353.264 46.68C356.264 45.06 359.624 44.25 363.344 44.25C366.344 44.25 368.744 44.8199 370.544 45.9599C372.404 47.0399 373.814 48.4799 374.774 50.2799C375.794 52.0799 376.484 54.0299 376.844 56.1299C377.204 58.1699 377.384 60.18 377.384 62.16V92.4Z" fill="black"/>
<path d="M406.775 28.4999H422.705L444.665 92.4H429.545L424.595 78.09H404.705L399.845 92.4H384.725L406.775 28.4999ZM422.165 67.92L414.695 43.35L407.045 67.92H422.165Z" fill="black"/>
<path d="M498.028 92.4H483.628V65.8499C483.628 62.7299 483.028 60.48 481.828 59.1C480.688 57.66 479.158 56.9399 477.238 56.9399C475.258 56.9399 473.248 57.7199 471.208 59.2799C469.168 60.84 467.728 62.8499 466.888 65.3099V92.4H452.488V45.1499H465.448V53.07C467.188 50.3099 469.648 48.15 472.828 46.59C476.008 45.03 479.668 44.25 483.808 44.25C486.868 44.25 489.328 44.8199 491.188 45.9599C493.108 47.0399 494.548 48.4799 495.508 50.2799C496.528 52.02 497.188 53.94 497.488 56.04C497.848 58.14 498.028 60.18 498.028 62.16V92.4Z" fill="black"/>
<path d="M507.595 68.7299C507.595 64.1699 508.465 60.06 510.205 56.4C512.005 52.68 514.465 49.7399 517.585 47.5799C520.765 45.3599 524.395 44.25 528.475 44.25C531.775 44.25 534.745 45.06 537.385 46.68C540.085 48.24 542.155 50.3099 543.595 52.8899V26.7H557.995V76.38C557.995 77.82 558.205 78.84 558.625 79.44C559.105 80.04 559.915 80.37 561.055 80.43V92.4C558.535 92.88 556.495 93.12 554.935 93.12C552.475 93.12 550.465 92.58 548.905 91.5C547.345 90.42 546.415 88.92 546.115 87L545.845 84.57C544.165 87.51 541.885 89.7 539.005 91.14C536.125 92.58 533.095 93.3 529.915 93.3C525.595 93.3 521.755 92.25 518.395 90.15C515.035 87.99 512.395 85.05 510.475 81.33C508.555 77.61 507.595 73.41 507.595 68.7299ZM543.685 74.58V64.68C542.785 62.28 541.315 60.3299 539.275 58.8299C537.295 57.2699 535.225 56.49 533.065 56.49C531.025 56.49 529.195 57.06 527.575 58.2C525.955 59.34 524.695 60.87 523.795 62.79C522.895 64.71 522.445 66.78 522.445 69C522.445 72.48 523.495 75.3899 525.595 77.7299C527.755 80.01 530.485 81.15 533.785 81.15C535.765 81.15 537.655 80.58 539.455 79.44C541.315 78.24 542.725 76.62 543.685 74.58Z" fill="black"/>
<g opacity="0.5">
<path d="M201.951 126.508V115.324L197.583 123.652H195.735L191.367 115.324V126.508H188.055V109.468H191.607L196.647 119.164L201.735 109.468H205.263V126.508H201.951Z" fill="black"/>
<path d="M221.853 109.468H225.213L231.477 126.508H228.069L226.485 122.26H220.533L218.973 126.508H215.565L221.853 109.468ZM225.885 119.932L223.533 112.9L221.085 119.932H225.885Z" fill="black"/>
<path d="M241.746 126.508V109.468H248.97C249.754 109.468 250.474 109.628 251.13 109.948C251.802 110.268 252.378 110.7 252.858 111.244C253.338 111.788 253.714 112.396 253.986 113.068C254.258 113.74 254.394 114.428 254.394 115.132C254.394 116.092 254.17 117.004 253.722 117.868C253.274 118.732 252.65 119.436 251.85 119.98C251.066 120.524 250.146 120.796 249.09 120.796H245.058V126.508H241.746ZM245.058 117.892H248.898C249.506 117.892 250.01 117.644 250.41 117.148C250.826 116.636 251.034 115.964 251.034 115.132C251.034 114.252 250.802 113.572 250.338 113.092C249.874 112.612 249.346 112.372 248.754 112.372H245.058V117.892Z" fill="black"/>
<path d="M275.251 113.932C275.107 113.772 274.803 113.564 274.339 113.308C273.875 113.036 273.315 112.796 272.659 112.588C272.019 112.364 271.355 112.252 270.667 112.252C268.859 112.252 267.955 112.892 267.955 114.172C267.955 114.636 268.099 115.004 268.387 115.276C268.675 115.548 269.107 115.78 269.683 115.972C270.259 116.164 270.979 116.372 271.843 116.596C272.963 116.884 273.931 117.22 274.747 117.604C275.579 117.988 276.211 118.5 276.643 119.14C277.091 119.764 277.315 120.596 277.315 121.636C277.315 122.852 277.019 123.836 276.427 124.588C275.851 125.324 275.083 125.86 274.123 126.196C273.163 126.532 272.123 126.7 271.003 126.7C269.723 126.7 268.451 126.508 267.187 126.124C265.939 125.724 264.827 125.18 263.851 124.492L265.315 121.636C265.459 121.78 265.715 121.972 266.083 122.212C266.451 122.436 266.899 122.668 267.427 122.908C267.955 123.132 268.531 123.324 269.155 123.484C269.779 123.644 270.411 123.724 271.051 123.724C272.875 123.724 273.787 123.14 273.787 121.972C273.787 121.476 273.603 121.076 273.235 120.772C272.867 120.468 272.347 120.212 271.675 120.004C271.019 119.796 270.251 119.564 269.371 119.308C268.283 119.004 267.379 118.668 266.659 118.3C265.955 117.916 265.427 117.444 265.075 116.884C264.723 116.308 264.547 115.58 264.547 114.7C264.547 113.532 264.819 112.556 265.363 111.772C265.923 110.972 266.675 110.372 267.619 109.972C268.563 109.556 269.611 109.348 270.763 109.348C271.947 109.348 273.051 109.54 274.075 109.924C275.099 110.308 275.979 110.748 276.715 111.244L275.251 113.932Z" fill="black"/>
<path d="M313.472 126.508L312.128 125.092C310.704 126.196 309.104 126.748 307.328 126.748C306.144 126.748 305.12 126.516 304.256 126.052C303.408 125.572 302.744 124.948 302.264 124.18C301.8 123.412 301.568 122.58 301.568 121.684C301.568 120.628 301.864 119.724 302.456 118.972C303.048 118.204 303.728 117.532 304.496 116.956C303.84 116.204 303.376 115.564 303.104 115.036C302.832 114.508 302.696 113.94 302.696 113.332C302.696 112.516 302.896 111.804 303.296 111.196C303.712 110.572 304.272 110.092 304.976 109.756C305.68 109.42 306.48 109.252 307.376 109.252C308.16 109.252 308.896 109.396 309.584 109.684C310.272 109.956 310.832 110.372 311.264 110.932C311.696 111.492 311.912 112.188 311.912 113.02C311.912 113.932 311.64 114.74 311.096 115.444C310.552 116.148 309.856 116.796 309.008 117.388L312.272 120.844C312.512 120.316 312.696 119.748 312.824 119.14C312.968 118.532 313.04 117.876 313.04 117.172H315.656C315.656 118.292 315.52 119.324 315.248 120.268C314.992 121.212 314.632 122.06 314.168 122.812L317.696 126.508H313.472ZM305.624 113.236C305.624 113.524 305.72 113.804 305.912 114.076C306.12 114.332 306.496 114.748 307.04 115.324C307.648 114.924 308.12 114.556 308.456 114.22C308.792 113.884 308.96 113.5 308.96 113.068C308.96 112.636 308.808 112.292 308.504 112.036C308.216 111.764 307.84 111.628 307.376 111.628C306.864 111.628 306.44 111.788 306.104 112.108C305.784 112.412 305.624 112.788 305.624 113.236ZM304.664 121.708C304.664 122.396 304.944 122.988 305.504 123.484C306.064 123.98 306.776 124.228 307.64 124.228C308.616 124.228 309.536 123.9 310.4 123.244L306.464 119.068C305.92 119.468 305.48 119.884 305.144 120.316C304.824 120.732 304.664 121.196 304.664 121.708Z" fill="black"/>
<path d="M345.347 115.564V126.508H342.035V109.468H344.675L353.483 120.7V109.492H356.795V126.508H354.035L345.347 115.564Z" fill="black"/>
<path d="M373.372 109.468H376.732L382.996 126.508H379.588L378.004 122.26H372.052L370.492 126.508H367.084L373.372 109.468ZM377.404 119.932L375.052 112.9L372.604 119.932H377.404Z" fill="black"/>
<path d="M393.634 109.468L398.242 122.572L402.802 109.468H406.282L399.826 126.508H396.634L390.154 109.468H393.634Z" fill="black"/>
<path d="M416.501 126.508V109.468H419.813V126.508H416.501Z" fill="black"/>
<path d="M438.848 126.628C437.728 126.628 436.68 126.404 435.704 125.956C434.728 125.508 433.864 124.892 433.112 124.108C432.376 123.308 431.8 122.38 431.384 121.324C430.968 120.268 430.76 119.124 430.76 117.892C430.76 116.724 430.968 115.628 431.384 114.604C431.8 113.564 432.384 112.652 433.136 111.868C433.888 111.084 434.768 110.468 435.776 110.02C436.784 109.572 437.88 109.348 439.064 109.348C440.648 109.348 442.016 109.692 443.168 110.38C444.32 111.052 445.184 111.948 445.76 113.068L443.288 114.892C442.856 114.06 442.248 113.42 441.464 112.972C440.696 112.508 439.856 112.276 438.944 112.276C437.984 112.276 437.136 112.54 436.4 113.068C435.68 113.596 435.112 114.292 434.696 115.156C434.296 116.02 434.096 116.964 434.096 117.988C434.096 119.06 434.312 120.028 434.744 120.892C435.176 121.756 435.768 122.444 436.52 122.956C437.288 123.452 438.16 123.7 439.136 123.7C440.784 123.7 442.272 122.924 443.6 121.372V120.172H440.168V117.748H446.336V126.508H443.6V124.588C442.224 125.948 440.64 126.628 438.848 126.628Z" fill="black"/>
<path d="M462.191 109.468H465.551L471.815 126.508H468.407L466.823 122.26H460.871L459.311 126.508H455.903L462.191 109.468ZM466.223 119.932L463.871 112.9L461.423 119.932H466.223Z" fill="black"/>
<path d="M493.234 112.372H487.786V126.508H484.498V112.372H479.05V109.468H493.234V112.372Z" fill="black"/>
<path d="M503.749 126.508V109.468H507.061V126.508H503.749Z" fill="black"/>
<path d="M526.288 126.628C525.04 126.628 523.904 126.388 522.88 125.908C521.872 125.428 521 124.78 520.264 123.964C519.544 123.132 518.984 122.204 518.584 121.18C518.184 120.14 517.984 119.076 517.984 117.988C517.984 116.852 518.192 115.772 518.608 114.748C519.024 113.708 519.608 112.788 520.36 111.988C521.112 111.172 521.992 110.532 523 110.068C524.024 109.588 525.144 109.348 526.36 109.348C527.592 109.348 528.712 109.596 529.72 110.092C530.744 110.588 531.616 111.252 532.336 112.084C533.072 112.916 533.632 113.852 534.016 114.892C534.416 115.916 534.616 116.964 534.616 118.036C534.616 119.156 534.408 120.236 533.992 121.276C533.576 122.3 532.992 123.22 532.24 124.036C531.504 124.836 530.624 125.468 529.6 125.932C528.592 126.396 527.488 126.628 526.288 126.628ZM521.344 117.988C521.344 118.98 521.536 119.908 521.92 120.772C522.32 121.636 522.888 122.34 523.624 122.884C524.376 123.428 525.272 123.7 526.312 123.7C527.384 123.7 528.288 123.42 529.024 122.86C529.76 122.3 530.32 121.58 530.704 120.7C531.088 119.82 531.28 118.916 531.28 117.988C531.28 116.996 531.08 116.068 530.68 115.204C530.28 114.34 529.704 113.644 528.952 113.116C528.216 112.572 527.336 112.3 526.312 112.3C525.24 112.3 524.336 112.58 523.6 113.14C522.864 113.7 522.304 114.42 521.92 115.3C521.536 116.164 521.344 117.06 521.344 117.988Z" fill="black"/>
<path d="M548.869 115.564V126.508H545.557V109.468H548.197L557.005 120.7V109.492H560.317V126.508H557.557L548.869 115.564Z" fill="black"/>
</g>
</svg>
