<svg width="162" height="162" viewBox="0 0 162 162" fill="none" xmlns="http://www.w3.org/2000/svg">
<path fill-rule="evenodd" clip-rule="evenodd" d="M153 72C153 101.833 134.856 127.429 109 138.353C95.634 144 91 147 87 155C86.6105 155.779 86.2779 156.52 85.9689 157.208C84.6915 160.055 83.8184 162 81 162C78.1816 162 77.3085 160.055 76.0311 157.208C75.7221 156.52 75.3895 155.779 75 155C71 147 66 144 53 138.353C27.1445 127.429 9 101.833 9 72C9 32.2355 41.2355 0 81 0C120.765 0 153 32.2355 153 72ZM121 72.0001C121 94.0915 103.091 112 81.0001 112C58.9087 112 41 94.0915 41 72.0001C41 49.9087 58.9087 32 81.0001 32C103.091 32 121 49.9087 121 72.0001Z" fill="#FF8800"/>
</svg>
