budapest
1
  18.9153140   47.5271504
  18.9210486   47.5320174
  18.9212832   47.5338979
  18.9138178   47.5394026
  18.9118252   47.5443567
  18.9141602   47.5492418
  18.9210856   47.5528787
  18.9203591   47.5569564
  18.9220822   47.5604601
  18.9155534   47.5723037
  18.9170669   47.5766117
  18.9203755   47.5793740
  18.9397612   47.5876945
  18.9645339   47.5862938
  18.9678025   47.5916739
  18.9798617   47.5977657
  18.9865583   47.5977000
  18.9941576   47.5947321
  19.0037763   47.5936350
  19.0169276   47.5964153
  19.0121799   47.6030428
  19.0136227   47.6089175
  19.0179182   47.6120794
  19.0332895   47.6179919
  19.0615509   47.6184250
  19.0837110   47.6144937
  19.0919087   47.6206329
  19.1019529   47.6219582
  19.1172942   47.6174200
  19.1221231   47.6120073
  19.1309232   47.6075241
  19.1400291   47.6087436
  19.1481083   47.6057727
  19.1534350   47.5979964
  19.1655649   47.5892260
  19.1667347   47.5828568
  19.1862829   47.5683052
  19.1875728   47.5631429
  19.1838775   47.5580046
  19.1916068   47.5534487
  19.1943535   47.5483379
  19.2133686   47.5489068
  19.2247820   47.5427181
  19.2428175   47.5458027
  19.2515762   47.5446887
  19.2625167   47.5344723
  19.2735446   47.5187484
  19.2931434   47.5200139
  19.3172420   47.5243651
  19.3278584   47.5219333
  19.3312766   47.5182966
  19.3343715   47.5103727
  19.3327280   47.5061133
  19.3266555   47.5000465
  19.3270803   47.4958686
  19.3421462   47.4810067
  19.3437442   47.4706283
  19.3472980   47.4664536
  19.3480759   47.4620355
  19.3456363   47.4579051
  19.3364274   47.4517784
  19.3057014   47.4474579
  19.2904054   47.4300398
  19.2836449   47.4275092
  19.2745669   47.4279630
  19.2700308   47.4211841
  19.2614075   47.4182304
  19.2541983   47.4116599
  19.2469922   47.4102117
  19.2382988   47.4114002
  19.2396363   47.4071808
  19.2378865   47.4029830
  19.2270132   47.3943345
  19.2165017   47.3898289
  19.2043906   47.3699222
  19.1898590   47.3552871
  19.1836006   47.3524722
  19.1572850   47.3485673
  19.1448732   47.3412054
  19.1384663   47.3407992
  19.1325347   47.3424948
  19.1188894   47.3534355
  19.0887212   47.3723761
  19.0849744   47.3779430
  19.0869185   47.3834327
  19.0777198   47.3924416
  19.0757155   47.3885963
  19.0708821   47.3848957
  19.0480907   47.3764721
  19.0279894   47.3764702
  19.0126598   47.3801566
  18.9979754   47.3782436
  18.9815013   47.3740052
  18.9684959   47.3646466
  18.9598333   47.3637958
  18.9541075   47.3655983
  18.9444659   47.3727435
  18.9405287   47.3809726
  18.9381475   47.3933691
  18.9403612   47.3995965
  18.9475482   47.4049207
  18.9437505   47.4131921
  18.9450064   47.4223531
  18.9651122   47.4359626
  18.9655205   47.4418330
  18.9582333   47.4468181
  18.9567112   47.4520564
  18.9598349   47.4569571
  18.9683208   47.4616570
  18.9669585   47.4645818
  18.9552883   47.4752066
  18.9482779   47.4734847
  18.9407863   47.4745169
  18.9241496   47.4873967
  18.9227370   47.4925257
  18.9265382   47.4996068
  18.9220232   47.5030239
  18.9205828   47.5072168
  18.9236608   47.5135196
  18.9148565   47.5184512
  18.9136361   47.5227148
  18.9153140   47.5271504
END
END
