del-alfold
1
  18.7208994   46.0484645
  18.7447214   46.0714072
  18.7537639   46.0882269
  18.7559176   46.0955046
  18.7594125   46.0998405
  18.7744684   46.1072724
  18.7891953   46.1109815
  18.7937192   46.1152646
  18.7986692   46.1173622
  18.8211954   46.1486764
  18.8279781   46.1524314
  18.8264466   46.1690136
  18.8321280   46.1869947
  18.8394250   46.1932036
  18.8278722   46.1923955
  18.8165618   46.1969665
  18.8101209   46.2021475
  18.8091877   46.2084373
  18.8195962   46.2234277
  18.8334961   46.2300847
  18.8391338   46.2380291
  18.8445865   46.2424687
  18.8524745   46.2450743
  18.8628798   46.2441152
  18.8530425   46.2547639
  18.8495528   46.2638034
  18.8513624   46.2705783
  18.8610323   46.2778803
  18.8762301   46.2797699
  18.8842721   46.2774574
  18.8981708   46.2681759
  18.9012941   46.2832743
  18.9086808   46.3020471
  18.9079837   46.3111091
  18.8968650   46.3197709
  18.8878811   46.3301847
  18.8854205   46.3358644
  18.8827919   46.3446289
  18.8799842   46.3729271
  18.8721208   46.3956225
  18.8728514   46.4045340
  18.8772151   46.4152458
  18.8889132   46.4256176
  18.9077096   46.4524209
  18.9109576   46.4642758
  18.9094890   46.4735587
  18.9055938   46.4863020
  18.8989697   46.4908050
  18.8975780   46.4968518
  18.8872669   46.5100467
  18.8836352   46.5171248
  18.8821823   46.5270402
  18.8843251   46.5488593
  18.8829094   46.5577472
  18.8735967   46.5705735
  18.8526907   46.5916094
  18.8472129   46.6004887
  18.8460241   46.6065533
  18.8507793   46.6203296
  18.8585900   46.6263200
  18.8734789   46.6431159
  18.8863907   46.6471401
  18.9105866   46.6469223
  18.9510065   46.6620091
  18.9604105   46.6619836
  18.9672107   46.6682463
  18.9820504   46.6875881
  18.9919063   46.6961973
  18.9934490   46.7004460
  18.9930442   46.7073008
  18.9898029   46.7148705
  18.9745382   46.7311917
  18.9709921   46.7385620
  18.9696184   46.7465765
  18.9644806   46.7566361
  18.9592604   46.7604594
  18.9534103   46.7726560
  18.9449429   46.7812212
  18.9417120   46.7907296
  18.9368819   46.7977611
  18.9263088   46.8025154
  18.9176552   46.8099148
  18.9140134   46.8151106
  18.9112336   46.8238972
  18.9111846   46.8549008
  18.9134589   46.8670720
  18.9199322   46.8797059
  18.9403802   46.8994922
  18.9460313   46.9091958
  18.9524691   46.9351207
  18.9467156   46.9560289
  18.9385361   46.9669866
  18.9355333   46.9912553
  18.9367547   46.9962274
  18.9417676   47.0040333
  18.9525340   47.0138820
  18.9542076   47.0199433
  18.9523770   47.0297084
  18.9531643   47.0332314
  18.9622684   47.0406562
  18.9501247   47.0482474
  18.9450640   47.0537865
  18.9437346   47.0658489
  18.9464600   47.0698016
  18.9515903   47.0724104
  18.9640074   47.0725848
  18.9979092   47.0659283
  19.0244724   47.0627447
  19.0297032   47.0604492
  19.0335125   47.0560218
  19.0698867   47.0467340
  19.0841485   47.0522890
  19.0855676   47.0551205
  19.0852389   47.0646245
  19.0893795   47.0696782
  19.1010534   47.0757141
  19.1259062   47.0799025
  19.1335647   47.0887779
  19.1493772   47.0970724
  19.1569317   47.1032780
  19.1630754   47.1046632
  19.2060467   47.1061955
  19.2251819   47.1347507
  19.2291515   47.1381468
  19.2456575   47.1417678
  19.2705897   47.1433034
  19.2872884   47.1365016
  19.3034489   47.1340155
  19.3203042   47.1273635
  19.3576555   47.0991863
  19.3605932   47.0953464
  19.3608155   47.0918714
  19.3583799   47.0878711
  19.3391975   47.0703424
  19.3255035   47.0617369
  19.3102617   47.0371540
  19.3176081   47.0299760
  19.3274419   47.0349585
  19.3539633   47.0413844
  19.3709834   47.0418538
  19.4247664   47.0720954
  19.4333378   47.0721804
  19.4459078   47.0673276
  19.4656097   47.0629652
  19.4733490   47.0750642
  19.4808496   47.0996802
  19.4941961   47.1228819
  19.5003114   47.1270252
  19.5091763   47.1277106
  19.5366451   47.1199250
  19.5614472   47.1164970
  19.5684428   47.1190483
  19.5798378   47.1284018
  19.5898858   47.1297269
  19.5966748   47.1271539
  19.6077351   47.1162169
  19.6325662   47.0860959
  19.6420735   47.0645178
  19.6489533   47.0422274
  19.6986365   47.0008051
  19.7077208   46.9953656
  19.7433716   46.9802063
  19.7812263   46.9591991
  19.8036829   46.9643329
  19.8333901   46.9532389
  19.8482360   46.9742242
  19.8648925   47.0018665
  19.8713398   47.0061306
  19.8777144   47.0068878
  19.8849302   47.0051424
  19.9154636   46.9891794
  19.9372121   46.9817041
  19.9561181   46.9810338
  19.9697377   46.9768399
  19.9696844   46.9839978
  19.9712279   46.9873409
  19.9915974   47.0055597
  20.0220038   47.0158222
  20.0537418   47.0212371
  20.0646312   47.0278878
  20.0755007   47.0281078
  20.0953685   47.0169512
  20.1226711   47.0067454
  20.1370248   46.9996465
  20.1502154   46.9887088
  20.1521057   46.9853564
  20.1515558   46.9808975
  20.1479353   46.9771716
  20.1416455   46.9741629
  20.1464320   46.9680245
  20.1466300   46.9617853
  20.1442294   46.9570100
  20.1382369   46.9517149
  20.1548149   46.9472450
  20.1619688   46.9423804
  20.1708311   46.9313049
  20.1730912   46.9193978
  20.1710762   46.9140126
  20.1648960   46.9074084
  20.1536375   46.9025165
  20.1366341   46.8991408
  20.1352714   46.8934786
  20.1305842   46.8883455
  20.1024534   46.8706608
  20.1044676   46.8674866
  20.1171339   46.8612630
  20.1245296   46.8529477
  20.1283158   46.8452790
  20.1247118   46.8371238
  20.1053595   46.8298666
  20.0690336   46.8331312
  20.0551071   46.8289624
  20.0569483   46.8253229
  20.0658690   46.8220992
  20.0729484   46.8166245
  20.0760551   46.7984957
  20.0876863   46.7961201
  20.0953357   46.7902918
  20.1064284   46.7942106
  20.1209047   46.7931994
  20.1430863   46.7794031
  20.1716555   46.7669728
  20.1820635   46.7822404
  20.1904014   46.7903111
  20.1979091   46.7932334
  20.2052415   46.7930048
  20.2098508   46.7987669
  20.2192170   46.8045107
  20.2281608   46.8074877
  20.2467294   46.8071472
  20.2722307   46.7996943
  20.2989342   46.7757772
  20.3321363   46.7719872
  20.3341640   46.7831108
  20.3460625   46.7926415
  20.3788572   46.7960588
  20.3881165   46.7956993
  20.3961842   46.7969176
  20.4027854   46.8005563
  20.4090850   46.8018796
  20.4113071   46.8031418
  20.4109689   46.8056480
  20.4052339   46.8186671
  20.4037089   46.8329670
  20.3956798   46.8542920
  20.3949770   46.8621962
  20.4017742   46.8682439
  20.4228298   46.8803151
  20.4411753   46.9034842
  20.4550059   46.9113054
  20.4648380   46.9115060
  20.4813320   46.9047761
  20.4854236   46.9012906
  20.4963000   46.8996602
  20.5301889   46.9076876
  20.5333946   46.9098462
  20.5329027   46.9153415
  20.5365965   46.9206901
  20.5511163   46.9257962
  20.5595443   46.9251126
  20.5660481   46.9219660
  20.5836058   46.9211334
  20.5959957   46.9271467
  20.6100499   46.9262576
  20.6417390   46.9112309
  20.6690387   46.9225539
  20.6878512   46.9206577
  20.6936791   46.9269704
  20.7070727   46.9350790
  20.7089012   46.9399102
  20.7136628   46.9441354
  20.7126808   46.9462695
  20.7044717   46.9474502
  20.6968133   46.9507616
  20.6911658   46.9581254
  20.6928577   46.9647491
  20.7013630   46.9699005
  20.6971978   46.9752536
  20.6965206   46.9787044
  20.7025682   47.0032724
  20.6936296   47.0056343
  20.6889235   47.0118453
  20.6892441   47.0174084
  20.6970153   47.0399808
  20.7041933   47.0437240
  20.7142041   47.0433936
  20.7156665   47.0473468
  20.7200689   47.0508362
  20.7408339   47.0593733
  20.7523535   47.0618662
  20.7598456   47.0619215
  20.7661678   47.0591740
  20.7730429   47.0452883
  20.7896747   47.0455908
  20.7909052   47.0499304
  20.7949070   47.0532871
  20.8187133   47.0599903
  20.8238920   47.0627655
  20.8285614   47.0671175
  20.8319826   47.0735326
  20.8304402   47.0802750
  20.8342671   47.0873650
  20.8308513   47.0925522
  20.8343824   47.1011780
  20.8318869   47.1079847
  20.8318651   47.1185801
  20.8363992   47.1236287
  20.8469587   47.1265745
  20.8474242   47.1308750
  20.8347905   47.1457874
  20.8358729   47.1525094
  20.8868490   47.1820214
  20.8931770   47.1835056
  20.9024530   47.1828673
  20.9104171   47.1889044
  20.9257956   47.1953261
  20.9359230   47.1964116
  20.9429888   47.2123112
  20.9561319   47.2300973
  20.9742076   47.2392864
  20.9829418   47.2386655
  20.9915539   47.2411805
  21.0153651   47.2401508
  21.0227080   47.2341882
  21.0302271   47.2311091
  21.0481733   47.2116579
  21.0519591   47.2157388
  21.0574906   47.2177648
  21.0734322   47.2156092
  21.1217692   47.1871867
  21.1301744   47.1837027
  21.2143693   47.1736741
  21.2204246   47.1711069
  21.2336344   47.1610012
  21.2446277   47.1617739
  21.2580422   47.1563556
  21.2900024   47.1568325
  21.3000547   47.1598525
  21.3105762   47.1569986
  21.3140904   47.1505145
  21.3089844   47.1353791
  21.3143611   47.1281841
  21.3144663   47.1200207
  21.3199172   47.1139126
  21.3203855   47.1086204
  21.3164070   47.1040672
  21.3072976   47.1000627
  21.3084775   47.0855136
  21.3048244   47.0803214
  21.2960357   47.0744063
  21.2467161   47.0553202
  21.2516310   47.0472515
  21.2535656   47.0372037
  21.2468728   47.0248660
  21.2538693   47.0187040
  21.3612321   46.9885496
  21.4164590   46.9854822
  21.4274776   46.9825328
  21.4323131   46.9792101
  21.4432646   46.9793375
  21.4504992   46.9747098
  21.4540666   46.9633018
  21.4777549   46.9573921
  21.4830882   46.9541749
  21.4920431   46.9602102
  21.5028214   46.9604955
  21.5179877   46.9656658
  21.5272327   46.9656654
  21.5347785   46.9699578
  21.5441458   46.9700389
  21.5404350   46.9787849
  21.5445811   46.9909667
  21.5474053   46.9948059
  21.5529325   46.9980164
  21.5554493   47.0046376
  21.5593135   47.0087371
  21.5698973   47.0117760
  21.5814312   47.0074302
  21.5971261   47.0068294
  21.6065314   47.0116695
  21.6074529   47.0178062
  21.6144932   47.0222355
  21.6175088   47.0264758
  21.6310794   47.0328135
  21.6425327   47.0340262
  21.6512210   47.0297553
  21.6617089   47.0314674
  21.6690387   47.0286107
  21.6850550   47.0259292
  21.6904683   47.0209957
  21.6924105   47.0115283
  21.6980058   47.0089073
  21.7016817   47.0040725
  21.7019791   47.0006031
  21.6993868   46.9955821
  21.6954437   46.9922175
  21.6905859   46.9906341
  21.6888088   46.9835410
  21.6837975   46.9767257
  21.6923431   46.9723405
  21.6950126   46.9658907
  21.6909492   46.9569439
  21.6836276   46.9482810
  21.6762622   46.9449703
  21.6670981   46.9452680
  21.6601770   46.9380209
  21.6520906   46.9333230
  21.6486725   46.9274537
  21.6436249   46.9247651
  21.6114027   46.9235989
  21.6123687   46.9126097
  21.6192332   46.9077846
  21.6273198   46.8863965
  21.6234301   46.8801361
  21.6146525   46.8775186
  21.6164152   46.8684393
  21.6129545   46.8615787
  21.6019662   46.8527925
  21.5904810   46.8513819
  21.5730897   46.8453689
  21.5621054   46.8448709
  21.5493356   46.8395942
  21.5420180   46.8321427
  21.5329832   46.8301001
  21.5352972   46.8081770
  21.5307427   46.7963535
  21.5198353   46.7780871
  21.4985476   46.7656747
  21.5196345   46.7525631
  21.5353613   46.7459158
  21.5406651   46.7394091
  21.5433602   46.7280867
  21.5416074   46.7176841
  21.5336151   46.7104813
  21.5250195   46.7056203
  21.5184020   46.6930321
  21.5095567   46.6887611
  21.5068655   46.6833337
  21.5032169   46.6802146
  21.4944292   46.6770312
  21.4841090   46.6778206
  21.4761353   46.6833997
  21.4704264   46.6854225
  21.4546852   46.6798668
  21.4455151   46.6804173
  21.4494498   46.6757537
  21.4592663   46.6757589
  21.4664826   46.6721937
  21.4687756   46.6671669
  21.4673380   46.6584309
  21.4640681   46.6544226
  21.4488209   46.6440242
  21.4287205   46.6383485
  21.4238682   46.6218941
  21.4208104   46.6168033
  21.4171285   46.6143047
  21.4071621   46.6130539
  21.3774905   46.6197296
  21.3709632   46.6227516
  21.3675374   46.6269598
  21.3561827   46.6214477
  21.3466151   46.6220105
  21.3325534   46.6201506
  21.3267018   46.6143818
  21.3181545   46.5944519
  21.3310463   46.5883661
  21.3336408   46.5843311
  21.3331393   46.5799310
  21.3177743   46.5622795
  21.3162700   46.5561572
  21.3046884   46.5459385
  21.3007498   46.5395902
  21.2961162   46.5364985
  21.2892309   46.5353304
  21.2740801   46.5021427
  21.2851606   46.4862072
  21.3003414   46.4847088
  21.3063567   46.4818871
  21.3303834   46.4529027
  21.3303618   46.4484244
  21.3251706   46.4432966
  21.3234506   46.4362578
  21.3079262   46.4197480
  21.3050596   46.4136324
  21.3091375   46.4080492
  21.3075510   46.4022082
  21.3021864   46.3986813
  21.2831392   46.3942238
  21.2706096   46.3981238
  21.2299739   46.4030458
  21.2255382   46.3954862
  21.2164694   46.3928409
  21.2101039   46.3717535
  21.2124360   46.3484713
  21.2116438   46.3447686
  21.1995222   46.3331712
  21.1918775   46.3302234
  21.1900314   46.3257889
  21.1903197   46.3222904
  21.1877600   46.3168421
  21.1935536   46.3046175
  21.1911338   46.2988661
  21.1779906   46.2908535
  21.1723270   46.2891280
  21.1486568   46.2887871
  21.1368562   46.2940172
  21.1257034   46.2922038
  21.1216212   46.2755322
  21.1139168   46.2575622
  21.1080053   46.2540434
  21.1014705   46.2533780
  21.0867730   46.2447314
  21.0797608   46.2432320
  21.0769083   46.2379892
  21.0712770   46.2346971
  21.0639707   46.2340637
  21.0303830   46.2401538
  21.0252230   46.2437543
  21.0186001   46.2544814
  20.9902418   46.2505440
  20.9568673   46.2537355
  20.9428922   46.2592083
  20.9371452   46.2689852
  20.9347738   46.2597530
  20.9318896   46.2558900
  20.9255245   46.2531481
  20.9180356   46.2533056
  20.8832270   46.2639651
  20.8681390   46.2775471
  20.7915575   46.2642811
  20.7800723   46.2649389
  20.7628496   46.2486873
  20.7747449   46.2052776
  20.7725096   46.1993698
  20.7641074   46.1956161
  20.7463638   46.1967167
  20.7468599   46.1922986
  20.7445026   46.1875927
  20.7330648   46.1802626
  20.7262374   46.1623886
  20.7131387   46.1541906
  20.7058873   46.1523088
  20.7028368   46.1455463
  20.6950577   46.1385111
  20.6868286   46.1359272
  20.6796247   46.1358590
  20.6702733   46.1379945
  20.6626224   46.1417793
  20.6619158   46.1325360
  20.6563381   46.1261936
  20.6475702   46.1196473
  20.6364632   46.1174674
  20.6237054   46.1211966
  20.6012435   46.1387976
  20.5904525   46.1415857
  20.5714270   46.1510920
  20.5530562   46.1629063
  20.5456675   46.1650803
  20.5386058   46.1705413
  20.5203643   46.1726343
  20.5092762   46.1763349
  20.5075901   46.1683766
  20.5053137   46.1653227
  20.4820210   46.1460544
  20.4639556   46.1345378
  20.4422289   46.1331069
  20.4217082   46.1368314
  20.4003610   46.1446188
  20.3918618   46.1437237
  20.3801124   46.1475368
  20.3729185   46.1442015
  20.3643724   46.1443939
  20.3581306   46.1475002
  20.3505493   46.1566378
  20.3174299   46.1418185
  20.3111249   46.1412374
  20.3025498   46.1432510
  20.2932305   46.1361809
  20.2797616   46.1211313
  20.2716210   46.1182722
  20.2630540   46.1088030
  20.2549079   46.1068007
  20.2450342   46.1094612
  20.2382312   46.1155353
  20.2322987   46.1148353
  20.2263002   46.1161940
  20.2199512   46.1223643
  20.2017592   46.1287256
  20.1982855   46.1321742
  20.1961477   46.1392133
  20.1821883   46.1479318
  20.1514315   46.1364571
  20.1346946   46.1354130
  20.1281070   46.1378855
  20.1234575   46.1431871
  20.0986623   46.1556893
  20.0938997   46.1601889
  20.0747738   46.1389684
  20.0702403   46.1358886
  20.0615956   46.1347944
  20.0541535   46.1376333
  20.0381561   46.1354681
  20.0286014   46.1376355
  20.0205777   46.1434250
  20.0113063   46.1675125
  19.9404982   46.1671260
  19.9296049   46.1597527
  19.9206377   46.1559277
  19.9028098   46.1515467
  19.8786569   46.1431153
  19.8604746   46.1409599
  19.8517750   46.1340886
  19.8251600   46.1203723
  19.8178545   46.1187909
  19.8116458   46.1198866
  19.7775877   46.1350815
  19.7681214   46.1355238
  19.7508512   46.1406121
  19.7382884   46.1508718
  19.7309548   46.1594939
  19.7239357   46.1593739
  19.7140854   46.1623659
  19.7076112   46.1661578
  19.7047839   46.1716344
  19.6976847   46.1755541
  19.6904267   46.1714495
  19.6819824   46.1707480
  19.6612653   46.1771374
  19.6396586   46.1621990
  19.6326698   46.1602763
  19.6042912   46.1632487
  19.5759367   46.1683005
  19.5694466   46.1598337
  19.5425902   46.1448716
  19.5311302   46.1392754
  19.5220828   46.1392585
  19.5223268   46.1365427
  19.5388550   46.1246449
  19.5398516   46.1195567
  19.5366828   46.1149184
  19.5159603   46.1031567
  19.4815684   46.0916436
  19.4797438   46.0901081
  19.4793339   46.0804203
  19.4769576   46.0763346
  19.4474613   46.0598596
  19.4334313   46.0495016
  19.4236483   46.0387851
  19.3999230   46.0335234
  19.3855871   46.0276369
  19.3795384   46.0268216
  19.3707336   46.0296715
  19.3611411   46.0400457
  19.2992004   46.0118024
  19.3141241   45.9957671
  19.3155464   45.9924995
  19.3136118   45.9867548
  19.3029834   45.9800037
  19.2969378   45.9788056
  19.2907974   45.9797406
  19.2797161   45.9875684
  19.2360899   45.9860715
  19.2302155   45.9872634
  19.2258236   45.9901725
  19.2172270   45.9900154
  19.2124532   45.9853817
  19.2054303   45.9836957
  19.1437190   45.9875767
  19.1382747   45.9900088
  19.1348072   45.9946186
  19.1327883   46.0011563
  19.1338717   46.0068582
  19.1247273   46.0284778
  19.1106475   46.0292198
  19.0798146   45.9980642
  19.0923209   45.9648307
  19.0904762   45.9587445
  19.0808663   45.9545836
  19.0529352   45.9563515
  19.0334956   45.9556513
  19.0157389   45.9522225
  19.0116390   45.9457103
  19.0217151   45.9238541
  19.0205350   45.9195004
  19.0165204   45.9160680
  19.0093684   45.9143090
  18.9914693   45.9151740
  18.9860253   45.9172276
  18.9818116   45.9213787
  18.9604486   45.9169422
  18.9107123   45.9253459
  18.8981305   45.9144434
  18.8796154   45.9070611
  18.8744425   45.9033727
  18.8292118   45.8958703
  18.8187515   45.8982257
  18.8110600   45.9094915
  18.8015131   45.9173675
  18.7936515   45.9210963
  18.7909547   45.9250419
  18.7903038   45.9321016
  18.7921683   45.9354842
  18.7999954   45.9418269
  18.8178059   45.9456169
  18.8216656   45.9479908
  18.8133406   45.9535604
  18.8129030   45.9629330
  18.8250108   45.9746656
  18.8227307   45.9789585
  18.8236755   45.9832964
  18.8507964   46.0170699
  18.8380585   46.0217406
  18.8320417   46.0260690
  18.8163740   46.0172335
  18.8069869   46.0149647
  18.7878108   46.0177044
  18.7720280   46.0150601
  18.7664597   46.0169492
  18.7608049   46.0215351
  18.7535489   46.0197983
  18.7380140   46.0204286
  18.7306194   46.0254945
  18.7283583   46.0328916
  18.7205517   46.0432364
  18.7208994   46.0484645
END
END
