del-dunantul
1
  16.8623078   46.3137116
  16.8640952   46.3287018
  16.8688386   46.3324645
  16.8763739   46.3340744
  16.8926726   46.3316718
  16.9040928   46.3226907
  16.9271672   46.3270074
  16.9417779   46.3251024
  16.9482626   46.3199030
  16.9501006   46.3150015
  16.9501818   46.3071189
  16.9567796   46.3119949
  16.9690347   46.3144904
  16.9755511   46.3215040
  16.9820914   46.3243868
  17.0037627   46.3222915
  17.0166672   46.3171068
  17.0244752   46.3217262
  17.0242226   46.3297305
  17.0259940   46.3337645
  17.0311098   46.3371853
  17.0367633   46.3450807
  17.0459187   46.3486482
  17.0419476   46.3604265
  17.0360990   46.3637998
  17.0314535   46.3703446
  17.0313780   46.3822674
  17.0239935   46.3857905
  17.0168613   46.3952073
  17.0181618   46.4039784
  17.0238377   46.4123009
  17.0247346   46.4184733
  17.0279073   46.4223068
  17.0345842   46.4248606
  17.0535811   46.4262560
  17.0625007   46.4237290
  17.0671932   46.4179610
  17.0694346   46.4214610
  17.0777066   46.4273748
  17.0912646   46.4294019
  17.1005789   46.4285633
  17.1099154   46.4244491
  17.1190218   46.4229853
  17.1261579   46.4176363
  17.1290726   46.4303783
  17.1344516   46.4350114
  17.1779175   46.4414248
  17.1807936   46.4469974
  17.1818940   46.4631613
  17.1760120   46.4720712
  17.1760269   46.4764760
  17.1787913   46.4813409
  17.1771504   46.4854951
  17.1780219   46.4889531
  17.1839029   46.4939197
  17.1923813   46.4962639
  17.1973999   46.5009761
  17.2061979   46.5026966
  17.2136846   46.5138173
  17.2132960   46.5252503
  17.2098571   46.5311539
  17.2070201   46.5796987
  17.2020888   46.6107228
  17.2087438   46.6349413
  17.2052094   46.6489876
  17.2077836   46.6558789
  17.2068981   46.6642584
  17.2087796   46.6737690
  17.2136454   46.6788857
  17.2364735   46.6865943
  17.2455113   46.6927186
  17.2463776   46.7029391
  17.2492994   46.7084704
  17.2564114   46.7362743
  17.2614941   46.7412268
  17.2674291   46.7427964
  17.2986164   46.7440434
  17.3125120   46.7420572
  17.3592376   46.7406434
  17.3687117   46.7437524
  17.3778931   46.7512404
  17.3947508   46.7571724
  17.4189614   46.7596522
  17.4454461   46.7568998
  17.4623138   46.7617102
  17.4873429   46.7615331
  17.5019311   46.7665592
  17.5284195   46.7796871
  17.6189966   46.8096071
  17.6609725   46.8199746
  17.6913836   46.8362019
  17.7232981   46.8482854
  17.7827613   46.8617064
  17.8480575   46.8923490
  17.8568602   46.8931633
  17.8785048   46.8874110
  17.8836483   46.8882379
  17.8918931   46.8921376
  17.8976193   46.8974802
  17.8990164   46.9060835
  17.8949003   46.9135181
  17.8945390   46.9170677
  17.8969277   46.9211856
  17.9007471   46.9235966
  17.9403751   46.9355253
  17.9705541   46.9417128
  18.0019318   46.9520848
  18.0401956   46.9672633
  18.0608390   46.9778065
  18.1633466   47.0059698
  18.1727162   47.0056083
  18.1869218   46.9985369
  18.1928371   46.9984093
  18.1985894   46.9961785
  18.2125547   46.9820325
  18.2182149   46.9730979
  18.2177337   46.9688230
  18.2146656   46.9646559
  18.1922175   46.9459532
  18.2060297   46.9312697
  18.2068940   46.9279031
  18.2057148   46.9243476
  18.2150252   46.9090049
  18.2226001   46.9005771
  18.2230716   46.8951508
  18.2263776   46.8880636
  18.2238281   46.8820980
  18.2123676   46.8754880
  18.2176076   46.8718136
  18.2193169   46.8676841
  18.2174421   46.8627187
  18.2111716   46.8590161
  18.2167550   46.8496222
  18.2181929   46.8400066
  18.2175230   46.8322488
  18.2130592   46.8237698
  18.2119724   46.8160474
  18.2176765   46.8012503
  18.2167550   46.7940107
  18.2182587   46.7896202
  18.2399997   46.7918242
  18.2437953   46.7958147
  18.2508789   46.7980123
  18.2556114   46.8041239
  18.2742055   46.8151821
  18.3017652   46.8263380
  18.3119687   46.8245539
  18.3206321   46.8192264
  18.3236912   46.8122075
  18.3225530   46.8015065
  18.3276410   46.7979794
  18.3438079   46.7952044
  18.3598007   46.7885578
  18.3648726   46.7936624
  18.3783948   46.7996800
  18.3873309   46.7993570
  18.3939185   46.7951163
  18.3952182   46.8053397
  18.3970320   46.8085806
  18.4038797   46.8123040
  18.4114001   46.8125035
  18.4179158   46.8101715
  18.4275217   46.8031592
  18.4345022   46.7923779
  18.4350796   46.7879654
  18.4318552   46.7822729
  18.4399256   46.7681602
  18.4358831   46.7579296
  18.4587345   46.7500508
  18.4633363   46.7530982
  18.4752029   46.7570571
  18.4847613   46.7579316
  18.4937241   46.7556416
  18.4908830   46.7647846
  18.4953236   46.7707218
  18.5140768   46.7765239
  18.5249153   46.7835229
  18.5354625   46.7878934
  18.5520578   46.7925795
  18.5608042   46.7923983
  18.5680625   46.7885124
  18.5832228   46.7650226
  18.5926424   46.7632819
  18.6054723   46.7552922
  18.6187483   46.7556668
  18.6271229   46.7515932
  18.6327689   46.7409551
  18.6317778   46.7354985
  18.6404473   46.7303510
  18.6433443   46.7263244
  18.6430855   46.7211456
  18.6384857   46.7165748
  18.6445950   46.7102569
  18.6442090   46.6991580
  18.6509124   46.6992694
  18.6759407   46.7051777
  18.6979960   46.7229081
  18.7155186   46.7296480
  18.7000369   46.7533614
  18.7003191   46.7578422
  18.7037143   46.7616724
  18.7267455   46.7697138
  18.7331277   46.7703472
  18.7363994   46.7739285
  18.7420804   46.7761542
  18.7507015   46.7772458
  18.7576411   46.7758304
  18.7808308   46.7785022
  18.7790677   46.7864107
  18.7856480   46.7938454
  18.8190561   46.8073008
  18.8519664   46.8280047
  18.8563261   46.8377559
  18.8476403   46.8482892
  18.8482219   46.8526544
  18.8517418   46.8563128
  18.8735558   46.8632440
  18.8917238   46.8648773
  18.8996259   46.8686322
  18.9192358   46.8683606
  18.9320386   46.8648015
  18.9371156   46.8607600
  18.9385237   46.8316534
  18.9375151   46.8244528
  18.9387808   46.8210463
  18.9438601   46.8160454
  18.9613032   46.8083402
  18.9653935   46.8051310
  18.9685656   46.7906145
  18.9729582   46.7867567
  18.9809023   46.7739945
  18.9867479   46.7720189
  18.9903663   46.7685400
  18.9903162   46.7596032
  18.9952426   46.7517041
  18.9966528   46.7423904
  19.0125601   46.7240660
  19.0189712   46.7097611
  19.0195572   46.6985994
  19.0156696   46.6880109
  19.0044928   46.6783064
  18.9892208   46.6585413
  18.9770956   46.6480255
  18.9610098   46.6402803
  18.9547142   46.6397236
  18.9485771   46.6412945
  18.9212863   46.6289514
  18.8912153   46.6290720
  18.8801807   46.6161399
  18.8737115   46.6112838
  18.8723948   46.6055666
  18.8760716   46.5996496
  18.8960212   46.5797931
  18.9079169   46.5629660
  18.9103994   46.5503627
  18.9082940   46.5271986
  18.9091441   46.5211287
  18.9245971   46.4988654
  18.9293271   46.4949055
  18.9353073   46.4759549
  18.9370013   46.4634321
  18.9326968   46.4472756
  18.9115576   46.4165592
  18.9006947   46.4069648
  18.8984125   46.3958382
  18.9057121   46.3755254
  18.9066048   46.3612862
  18.9109310   46.3394627
  18.9180859   46.3301933
  18.9276177   46.3231029
  18.9330224   46.3163003
  18.9351613   46.3086939
  18.9345474   46.2998711
  18.9257809   46.2764004
  18.9242194   46.2599680
  18.9220661   46.2559109
  18.9078374   46.2498463
  18.8869233   46.2515436
  18.8895310   46.2473466
  18.8897131   46.2402851
  18.8865576   46.2337629
  18.8811318   46.2287714
  18.8848197   46.2233453
  18.8843058   46.2120391
  18.8827752   46.2086023
  18.8789102   46.2056018
  18.8836156   46.1994629
  18.8833329   46.1905268
  18.8770534   46.1851940
  18.8646425   46.1837796
  18.8617978   46.1790214
  18.8557601   46.1758571
  18.8534553   46.1697271
  18.8538797   46.1485375
  18.8520120   46.1423740
  18.8476704   46.1370341
  18.8407060   46.1343419
  18.8383664   46.1292855
  18.8270515   46.1166688
  18.8321621   46.1117531
  18.8311344   46.1050029
  18.8244845   46.1006666
  18.8094222   46.0996887
  18.8045776   46.0961875
  18.7800679   46.0884694
  18.7783743   46.0824772
  18.7678307   46.0633311
  18.7492211   46.0438632
  18.7524402   46.0394032
  18.7666294   46.0402969
  18.7769296   46.0357596
  18.7906948   46.0374199
  18.8047234   46.0335828
  18.8302877   46.0490732
  18.8399455   46.0507905
  18.8542721   46.0444669
  18.8592884   46.0385388
  18.8602039   46.0340545
  18.8787848   46.0266605
  18.8814405   46.0226505
  18.8810366   46.0182434
  18.8512661   45.9807867
  18.8531456   45.9738336
  18.8447397   45.9625095
  18.8667566   45.9487061
  18.8691944   45.9446634
  18.8686021   45.9402971
  18.8644395   45.9354058
  18.8594119   45.9329902
  18.8406633   45.9328488
  18.8241233   45.9275074
  18.8331766   45.9186555
  18.8344135   45.9134696
  18.8320827   45.9093806
  18.8228605   45.9020199
  18.8254820   45.8907981
  18.8220883   45.8782292
  18.8181510   45.8731830
  18.8115725   45.8706590
  18.7917626   45.8691792
  18.7841670   45.8703136
  18.7769940   45.8731731
  18.7670563   45.8800041
  18.7531320   45.8811308
  18.7488682   45.8844009
  18.7467906   45.8891988
  18.7420627   45.8912257
  18.7143402   45.8978101
  18.6983000   45.9081817
  18.6818266   45.9063708
  18.6766787   45.9032199
  18.6772219   45.8965762
  18.6707480   45.8894002
  18.6657896   45.8869558
  18.6578326   45.8860127
  18.6672143   45.8769608
  18.6678382   45.8735194
  18.6659479   45.8694053
  18.6604191   45.8657028
  18.6385996   45.8591202
  18.6353976   45.8508005
  18.6321691   45.8476526
  18.6360406   45.8404643
  18.6345683   45.8351937
  18.6290626   45.8314485
  18.6164203   45.8280537
  18.6145286   45.8233104
  18.6038580   45.8147221
  18.5867084   45.8076371
  18.5877336   45.7995117
  18.5840614   45.7939751
  18.5761833   45.7913521
  18.5679023   45.7924010
  18.5644438   45.7882213
  18.5579855   45.7856247
  18.5356857   45.7840880
  18.5323229   45.7770092
  18.5248833   45.7738671
  18.5055673   45.7764105
  18.4981358   45.7803993
  18.4953159   45.7739824
  18.4944443   45.7629472
  18.4902657   45.7585243
  18.4832542   45.7565171
  18.4618688   45.7573494
  18.4610875   45.7508833
  18.4628718   45.7449993
  18.4590672   45.7343432
  18.4557372   45.7306315
  18.4502981   45.7284625
  18.4187280   45.7317039
  18.4091684   45.7299816
  18.4012740   45.7318953
  18.3874637   45.7394182
  18.3842554   45.7462930
  18.3840777   45.7506780
  18.3800022   45.7546269
  18.3712112   45.7576408
  18.3630786   45.7561823
  18.3544452   45.7438566
  18.3480646   45.7400817
  18.3397948   45.7379734
  18.3303392   45.7397571
  18.3251355   45.7455962
  18.3011848   45.7488005
  18.2944645   45.7516040
  18.2758060   45.7464750
  18.2566941   45.7523974
  18.2409910   45.7522344
  18.2313537   45.7568134
  18.2243836   45.7653529
  18.2222237   45.7712355
  18.2022459   45.7725440
  18.1911447   45.7773704
  18.1785529   45.7685522
  18.1694657   45.7668463
  18.1566401   45.7701534
  18.1451864   45.7790626
  18.1282790   45.7789562
  18.1196966   45.7675669
  18.1125959   45.7625273
  18.1015790   45.7578475
  18.0817658   45.7553358
  18.0497859   45.7644484
  18.0331003   45.7661448
  18.0207299   45.7693250
  18.0063947   45.7760144
  17.9935597   45.7863331
  17.9770103   45.7803432
  17.9670046   45.7798851
  17.9522945   45.7835049
  17.9308946   45.7769256
  17.9177731   45.7784424
  17.9053109   45.7829628
  17.8831419   45.7715350
  17.8803158   45.7643636
  17.8755895   45.7602549
  17.8682101   45.7579569
  17.8603561   45.7582198
  17.8512753   45.7609910
  17.8457529   45.7647006
  17.8395336   45.7761970
  17.8304839   45.7796520
  17.8221207   45.7867507
  17.8191062   45.7961501
  17.8085585   45.7948127
  17.7962741   45.7973229
  17.7859647   45.8020365
  17.7782479   45.8082693
  17.7757329   45.8083482
  17.7661990   45.8031500
  17.7543528   45.8036018
  17.7470208   45.8074933
  17.7358285   45.8207665
  17.7036325   45.8229951
  17.6976161   45.8251911
  17.6930932   45.8289470
  17.6896212   45.8293866
  17.6769983   45.8260180
  17.6698344   45.8259101
  17.6547467   45.8309229
  17.6464702   45.8370671
  17.6393482   45.8454138
  17.6360571   45.8531338
  17.6353505   45.8636060
  17.6159734   45.8937478
  17.6068103   45.9025385
  17.5913960   45.9085308
  17.5828262   45.9161162
  17.5635516   45.9280154
  17.5579090   45.9291655
  17.5364715   45.9250763
  17.5270064   45.9249013
  17.5118161   45.9307298
  17.4707826   45.9338439
  17.4451658   45.9412924
  17.4500199   45.9342874
  17.4500136   45.9293404
  17.4483057   45.9262984
  17.4409018   45.9206723
  17.4259126   45.9181566
  17.4034453   45.9237045
  17.3957154   45.9218719
  17.3848883   45.9233874
  17.3763371   45.9287790
  17.3723080   45.9365320
  17.3560400   45.9320161
  17.3412079   45.9346897
  17.3345295   45.9383714
  17.3311326   45.9426269
  17.3268012   45.9537275
  17.3271972   45.9580533
  17.3110503   45.9574541
  17.3026288   45.9602813
  17.2962022   45.9671262
  17.2961829   45.9744089
  17.2878900   45.9779019
  17.2833278   45.9835808
  17.2814559   45.9915549
  17.2703057   45.9946890
  17.2631798   45.9999683
  17.2533518   46.0029169
  17.2470352   46.0068912
  17.2450072   46.0106521
  17.2452657   46.0146427
  17.2509334   46.0213388
  17.2445574   46.0242801
  17.2417332   46.0289742
  17.2421794   46.0328623
  17.2460284   46.0375635
  17.2453200   46.0488430
  17.2282536   46.0512718
  17.2200253   46.0558757
  17.2166838   46.0606528
  17.2162821   46.0642429
  17.2215207   46.0714418
  17.2112478   46.0676046
  17.2038751   46.0671026
  17.1959892   46.0689239
  17.1906014   46.0727256
  17.1880538   46.0779789
  17.1891841   46.0835544
  17.1943490   46.0887059
  17.2024965   46.0917796
  17.1977860   46.0955028
  17.1966873   46.1005871
  17.1887019   46.0976725
  17.1793542   46.0972597
  17.1701797   46.0999549
  17.1642365   46.1053441
  17.1631065   46.1133821
  17.1655047   46.1177938
  17.1614141   46.1295619
  17.1627365   46.1331559
  17.1671335   46.1369537
  17.1643661   46.1459510
  17.1559982   46.1468979
  17.1469339   46.1522963
  17.1434650   46.1565085
  17.1431913   46.1612801
  17.1347379   46.1588985
  17.1196824   46.1603268
  17.1155579   46.1625368
  17.1119451   46.1670848
  17.1035339   46.1687242
  17.0910280   46.1776849
  17.0820982   46.1767045
  17.0750849   46.1780686
  17.0613314   46.1860074
  17.0544805   46.1930038
  17.0462664   46.1949946
  17.0037038   46.2126316
  16.9936190   46.2113806
  16.9802000   46.2133833
  16.9647529   46.2178981
  16.9605915   46.2223474
  16.9591060   46.2306856
  16.9509028   46.2305808
  16.9427100   46.2338328
  16.9280321   46.2438523
  16.9219593   46.2505574
  16.9048731   46.2553363
  16.8971895   46.2613227
  16.8920117   46.2683964
  16.8760566   46.2751010
  16.8722778   46.2820255
  16.8740283   46.2927810
  16.8657559   46.3026605
  16.8623078   46.3137116
END
END
