eszak-alfold
1
  19.6377525   47.5618794
  19.6427953   47.5697373
  19.6448707   47.5784767
  19.6520583   47.5905000
  19.6570028   47.5949624
  19.6773262   47.6006499
  19.6897976   47.5990624
  19.6889989   47.6075603
  19.6928188   47.6129360
  19.7066009   47.6193540
  19.7208551   47.6218950
  19.7372642   47.6285595
  19.7639533   47.6292217
  19.7724836   47.6251773
  19.7804228   47.6235589
  19.8163789   47.6065391
  19.8258309   47.6122954
  19.8353460   47.6273483
  19.8567249   47.6363938
  19.8560178   47.6414105
  19.8619911   47.6681403
  19.8654823   47.6730560
  19.8703854   47.6760755
  19.8820407   47.6763448
  19.9103848   47.6646861
  19.9263825   47.6700228
  19.9531115   47.6750450
  19.9592984   47.6818518
  19.9668302   47.6852690
  19.9761161   47.6853559
  19.9828920   47.6824676
  19.9926638   47.6827909
  19.9998905   47.6810450
  20.0076902   47.6766181
  20.0157619   47.6636761
  20.0199274   47.6310251
  20.0308108   47.6198541
  20.0323296   47.6164880
  20.0318219   47.6129855
  20.0216536   47.5957437
  20.0289284   47.5879538
  20.0432413   47.5837816
  20.0507673   47.5790056
  20.1080340   47.5649975
  20.0988954   47.5748068
  20.0951042   47.5822968
  20.0901515   47.5873990
  20.0903935   47.5926396
  20.0949146   47.5968985
  20.1155323   47.6038263
  20.1353764   47.6086632
  20.1529561   47.6107250
  20.1711863   47.6160866
  20.2149202   47.6155896
  20.2214480   47.6100933
  20.2257295   47.5898214
  20.2374970   47.5844968
  20.2395806   47.5778269
  20.2442942   47.5733725
  20.2447475   47.5687842
  20.2520873   47.5658691
  20.2685135   47.5628953
  20.2729797   47.5585486
  20.2731329   47.5534591
  20.2937864   47.5506513
  20.3051496   47.5381517
  20.3166713   47.5182844
  20.3147151   47.5065713
  20.3026987   47.4879069
  20.3106356   47.4796615
  20.3443047   47.4506978
  20.3600979   47.4496570
  20.3771438   47.4549075
  20.3847299   47.4546779
  20.3908861   47.4516627
  20.3947789   47.4465423
  20.3941311   47.4294603
  20.4161263   47.4318244
  20.4344954   47.4422116
  20.4349183   47.4508367
  20.4401220   47.4583916
  20.4606769   47.4716374
  20.4731674   47.4744155
  20.4863370   47.4719042
  20.4966071   47.4763579
  20.5017457   47.4827067
  20.5091953   47.5041569
  20.5129592   47.5076513
  20.5694334   47.5218524
  20.5761704   47.5270860
  20.5901041   47.5322709
  20.6048195   47.5418056
  20.6369641   47.5517901
  20.6553574   47.5594396
  20.6507574   47.5659219
  20.6497150   47.5700940
  20.6517686   47.5747421
  20.6567845   47.5782142
  20.6651904   47.5796347
  20.6834002   47.5780283
  20.6945848   47.5825001
  20.6852515   47.5891654
  20.6825349   47.5984551
  20.6851547   47.6042439
  20.6894833   47.6081614
  20.7025799   47.6131997
  20.7061981   47.6203279
  20.7011851   47.6300223
  20.7034821   47.6385334
  20.7101554   47.6438185
  20.7284543   47.6514532
  20.7411144   47.6515048
  20.7509246   47.6496173
  20.7562890   47.6557571
  20.7514828   47.6621213
  20.7513016   47.6684547
  20.7574351   47.6759978
  20.7648711   47.6813426
  20.7879565   47.6902324
  20.8014507   47.6914703
  20.8132736   47.6873861
  20.8249316   47.6785883
  20.8387240   47.6760834
  20.8422413   47.6814560
  20.8508315   47.6845874
  20.8721780   47.6830093
  20.8701488   47.6885118
  20.8706226   47.6955563
  20.8745542   47.7020814
  20.8814678   47.7061046
  20.8885616   47.7073067
  20.8974786   47.7059612
  20.9022748   47.7032830
  20.9048946   47.6988467
  20.9198098   47.7039307
  20.9252877   47.7121028
  20.9443092   47.7247371
  20.9664446   47.7284678
  20.9865980   47.7268765
  20.9833448   47.7299549
  20.9822650   47.7334282
  20.9826268   47.7395984
  20.9844448   47.7428132
  20.9829564   47.7509160
  20.9849925   47.7548143
  20.9905149   47.7597518
  21.0027708   47.7656275
  21.0137906   47.7673251
  21.0294237   47.7656852
  21.0360010   47.7725028
  21.0346834   47.7766361
  21.0358437   47.7804377
  21.0401117   47.7848583
  21.0464549   47.7873567
  21.0474710   47.7922191
  21.0526336   47.7969020
  21.0522571   47.8019624
  21.0572619   47.8118538
  21.0659758   47.8217082
  21.0632772   47.8279257
  21.0575730   47.8309490
  21.0455927   47.8438585
  21.0402379   47.8474998
  21.0388673   47.8533242
  21.0414197   47.8581294
  21.0509843   47.8657133
  21.0709574   47.8722026
  21.0724620   47.8840862
  21.0702706   47.8882179
  21.0708037   47.8932389
  21.0884199   47.9096332
  21.0822023   47.9115919
  21.0784338   47.9150722
  21.0774414   47.9184632
  21.0788284   47.9250720
  21.0864676   47.9332882
  21.1002703   47.9376392
  21.1075088   47.9596288
  21.1049543   47.9616292
  21.0953887   47.9632606
  21.0906543   47.9662620
  21.0885492   47.9712908
  21.0917310   47.9781871
  21.0673870   47.9973209
  21.0655071   48.0043455
  21.0709372   48.0142242
  21.0777629   48.0181038
  21.0791189   48.0219719
  21.0850078   48.0276301
  21.0994871   48.0320246
  21.1031629   48.0368680
  21.1145077   48.0453477
  21.1158524   48.0497273
  21.1223675   48.0549045
  21.1330992   48.0571839
  21.1507402   48.0518877
  21.1593615   48.0533753
  21.1674854   48.0525349
  21.1814300   48.0467118
  21.1845826   48.0429836
  21.1853490   48.0386180
  21.1969994   48.0383858
  21.2087027   48.0345996
  21.2090503   48.0393686
  21.2126561   48.0447549
  21.2245281   48.0520819
  21.2287212   48.0567553
  21.2429305   48.0620638
  21.2517471   48.0677592
  21.2592363   48.0690980
  21.2676887   48.0670431
  21.2724756   48.0633339
  21.2738461   48.0583048
  21.2718050   48.0503002
  21.2749720   48.0455582
  21.2838932   48.0446870
  21.2901314   48.0471764
  21.2990123   48.0470129
  21.3044677   48.0447026
  21.3082450   48.0407658
  21.3182719   48.0408874
  21.3262371   48.0389035
  21.3360161   48.0321057
  21.3395115   48.0387444
  21.3498539   48.0427367
  21.3642797   48.0412986
  21.3853103   48.0437896
  21.3948500   48.0418042
  21.3946713   48.0509978
  21.3997265   48.0576187
  21.4105476   48.0618147
  21.4225798   48.0594468
  21.4231066   48.0671064
  21.4262009   48.0731877
  21.4184091   48.0832723
  21.4175631   48.0866986
  21.4190228   48.0914029
  21.4227494   48.0950621
  21.4166869   48.0980182
  21.4086271   48.1050858
  21.4029664   48.1134882
  21.4004637   48.1226631
  21.4035256   48.1281070
  21.4128740   48.1331244
  21.4117359   48.1403852
  21.4145021   48.1457669
  21.4104382   48.1571834
  21.4115947   48.1624365
  21.4261506   48.1719183
  21.4293394   48.1794219
  21.4359387   48.1849189
  21.4515322   48.1890306
  21.4666165   48.1854907
  21.4743635   48.1890507
  21.4850651   48.1902308
  21.5031357   48.1872281
  21.5082893   48.1923922
  21.5191765   48.1947209
  21.5213117   48.1999235
  21.5277303   48.2049605
  21.5337225   48.2064492
  21.5426538   48.2057209
  21.5505503   48.2091642
  21.5594763   48.2094631
  21.5673219   48.2165302
  21.5766996   48.2187266
  21.5909908   48.2166048
  21.6084375   48.2056227
  21.6288074   48.2025212
  21.6460322   48.2031978
  21.6781567   48.2006626
  21.6878942   48.2036123
  21.7026029   48.2029260
  21.7205948   48.2125453
  21.7284568   48.2125406
  21.7361202   48.2099562
  21.7525024   48.2132112
  21.7605775   48.2122113
  21.7687411   48.2157499
  21.7757298   48.2154614
  21.7837506   48.2188214
  21.7841986   48.2236319
  21.7871992   48.2275137
  21.7975422   48.2319887
  21.7982431   48.2385797
  21.8028537   48.2449730
  21.8088712   48.2482741
  21.8237236   48.2527054
  21.8355934   48.2525553
  21.8425380   48.2475253
  21.8504374   48.2491103
  21.8676685   48.2464157
  21.8951879   48.2562427
  21.9044569   48.2558131
  21.9126952   48.2520629
  21.9245840   48.2609398
  21.9252934   48.2649039
  21.9285576   48.2686836
  21.9339550   48.2711550
  21.9436975   48.2714570
  21.9499661   48.2733310
  21.9560572   48.2805994
  21.9661943   48.2864416
  21.9717956   48.2962187
  21.9802920   48.3018307
  21.9915441   48.3054832
  21.9968094   48.3089924
  22.0010568   48.3157309
  22.0072519   48.3191020
  22.0278327   48.3212707
  22.0338465   48.3198490
  22.0384139   48.3164662
  22.0461456   48.3169825
  22.0522210   48.3154850
  22.0600733   48.3211379
  22.0706870   48.3211156
  22.0702953   48.3257791
  22.0727935   48.3317595
  22.0796140   48.3379623
  22.0895846   48.3430105
  22.0927929   48.3503975
  22.0984919   48.3545945
  22.0947789   48.3595140
  22.0954405   48.3653179
  22.0989628   48.3689517
  22.1047140   48.3713278
  22.1084331   48.3814407
  22.1175375   48.3881438
  22.1175229   48.3924481
  22.1206438   48.3969616
  22.1295684   48.4010565
  22.1417890   48.4024861
  22.1425702   48.4112795
  22.1510045   48.4182252
  22.1647397   48.4219790
  22.1779031   48.4229136
  22.1924085   48.4311752
  22.2044193   48.4344853
  22.2199275   48.4331422
  22.2401118   48.4189014
  22.2611495   48.4200414
  22.2699213   48.4184775
  22.2763114   48.4150376
  22.2789894   48.4103177
  22.2778340   48.4038894
  22.2739939   48.3962602
  22.2634733   48.3850373
  22.2758265   48.3690612
  22.3034874   48.3633757
  22.3214611   48.3632006
  22.3297317   48.3587605
  22.3334499   48.3501865
  22.3314694   48.3447420
  22.3336376   48.3378207
  22.3296043   48.3281322
  22.3323745   48.3244571
  22.3329045   48.3205088
  22.3452707   48.3148778
  22.3493627   48.3111519
  22.3536827   48.2966619
  22.3513200   48.2902580
  22.3541105   48.2811716
  22.3600779   48.2788327
  22.3717054   48.2701861
  22.3838450   48.2489112
  22.3911066   48.2555472
  22.3978248   48.2579911
  22.4236598   48.2591555
  22.4350128   48.2613905
  22.4475828   48.2578177
  22.4563479   48.2527935
  22.4653756   48.2583657
  22.4748418   48.2584218
  22.4856108   48.2623123
  22.4939417   48.2620136
  22.5103607   48.2559502
  22.5166772   48.2470205
  22.5272227   48.2430777
  22.5296096   48.2379913
  22.5296290   48.2323292
  22.5279531   48.2289258
  22.5388721   48.2194138
  22.5523711   48.2153928
  22.5652316   48.2063380
  22.5767303   48.2043229
  22.5817661   48.2016595
  22.5843807   48.1977390
  22.5852914   48.1903760
  22.5791169   48.1790884
  22.5797474   48.1771253
  22.5856773   48.1683426
  22.5931462   48.1653735
  22.5970664   48.1602364
  22.6031876   48.1570448
  22.6110063   48.1475713
  22.6114695   48.1431659
  22.6079198   48.1384541
  22.6089033   48.1342352
  22.6061310   48.1267405
  22.6130438   48.1192174
  22.6125019   48.1133535
  22.6236977   48.1142040
  22.6334731   48.1100352
  22.6397407   48.1048412
  22.6588340   48.1044844
  22.6704467   48.1008032
  22.6908639   48.1116920
  22.6971223   48.1170733
  22.7078982   48.1193672
  22.7134155   48.1228567
  22.7224432   48.1242998
  22.7321631   48.1284077
  22.7432280   48.1275483
  22.7540445   48.1295280
  22.7625185   48.1283422
  22.7734381   48.1308966
  22.7879338   48.1279814
  22.7944793   48.1307305
  22.8010358   48.1311751
  22.8148695   48.1274859
  22.8269077   48.1267325
  22.8340091   48.1236651
  22.8393965   48.1194158
  22.8441509   48.1124864
  22.8450793   48.1057188
  22.8425755   48.1005817
  22.8470412   48.0965650
  22.8480325   48.0924840
  22.8559105   48.0906723
  22.8677686   48.0833432
  22.8738443   48.0772740
  22.8760814   48.0649991
  22.8903144   48.0615936
  22.8952906   48.0546390
  22.8937826   48.0345093
  22.8842623   48.0201009
  22.8787079   48.0164271
  22.8777682   48.0083050
  22.8738649   48.0047495
  22.8666065   48.0020875
  22.8545051   47.9919803
  22.8769581   47.9841534
  22.8837452   47.9801302
  22.8866204   47.9756866
  22.8943691   47.9760153
  22.9017563   47.9735921
  22.9057041   47.9696265
  22.9065756   47.9626713
  22.9098489   47.9574410
  22.9095665   47.9510419
  22.9074388   47.9476800
  22.8984001   47.9432661
  22.8945574   47.9383835
  22.8884450   47.9359628
  22.8860433   47.9335938
  22.8847124   47.9286473
  22.8797089   47.9247801
  22.8778774   47.9204159
  22.8554460   47.9006096
  22.8482597   47.8987863
  22.8326470   47.8993117
  22.8225994   47.8931824
  22.8075036   47.8878782
  22.7969903   47.8823152
  22.7782439   47.8842264
  22.7820321   47.8780845
  22.7794135   47.8717688
  22.7861054   47.8666900
  22.7914346   47.8512794
  22.7909789   47.8409978
  22.7892403   47.8376635
  22.7822484   47.8337824
  22.7724028   47.8330783
  22.7641824   47.8273510
  22.7581051   47.8253707
  22.7233795   47.8276542
  22.7214472   47.8200572
  22.7147567   47.8152442
  22.7135306   47.8112114
  22.7071840   47.8042911
  22.6966180   47.7871900
  22.6865548   47.7798463
  22.6753347   47.7789727
  22.6663664   47.7739480
  22.6500298   47.7703461
  22.6385031   47.7707131
  22.6306183   47.7674348
  22.6230412   47.7674380
  22.6139443   47.7631395
  22.5481962   47.7637098
  22.5402956   47.7661652
  22.5303084   47.7753765
  22.4789364   47.7994010
  22.4701822   47.7962676
  22.4573228   47.7949518
  22.4536561   47.7893443
  22.4480295   47.7670164
  22.4450741   47.7589700
  22.4405716   47.7525571
  22.4431461   47.7461794
  22.4433245   47.7390163
  22.4410911   47.7357498
  22.4362437   47.7329317
  22.4300087   47.7319617
  22.4086193   47.7335931
  22.3973897   47.7383513
  22.3860697   47.7362816
  22.3537738   47.7402814
  22.3432719   47.7434020
  22.3332743   47.7497162
  22.3298743   47.7398149
  22.3249254   47.7358402
  22.3155350   47.7335728
  22.3107311   47.7296752
  22.3011507   47.7269171
  22.2908675   47.7211553
  22.2744625   47.7211865
  22.2754177   47.7159684
  22.2711142   47.6945131
  22.2600844   47.6868946
  22.2427167   47.6862658
  22.2381110   47.6839392
  22.2345060   47.6593040
  22.2305640   47.6545354
  22.2210191   47.6475869
  22.2146807   47.6453093
  22.2120700   47.6340610
  22.2065445   47.6255725
  22.2024208   47.6087464
  22.1948207   47.6011078
  22.1927430   47.5956441
  22.1868081   47.5885807
  22.1803821   47.5847047
  22.1714798   47.5826692
  22.1416311   47.5861333
  22.1244862   47.5693751
  22.1156936   47.5659582
  22.1115142   47.5591605
  22.1026808   47.5515144
  22.0910300   47.5484448
  22.0813609   47.5510032
  22.0746694   47.5475934
  22.0821277   47.5432433
  22.0846189   47.5374834
  22.0827411   47.5333464
  22.0713473   47.5229504
  22.0658021   47.5204921
  22.0591937   47.5201550
  22.0479672   47.5254589
  22.0352824   47.5145104
  22.0256465   47.4984226
  22.0236916   47.4884725
  22.0205213   47.4825294
  22.0209068   47.4784099
  22.0249543   47.4742613
  22.0311773   47.4613092
  22.0415758   47.4577650
  22.0460504   47.4517218
  22.0411966   47.4413522
  22.0483410   47.4288886
  22.0463363   47.4211554
  22.0487347   47.4124061
  22.0355736   47.3877795
  22.0302821   47.3823633
  22.0234834   47.3713537
  22.0191497   47.3682079
  22.0106025   47.3667982
  21.9963960   47.3683472
  21.9882213   47.3711243
  21.9786085   47.3692664
  21.9674346   47.3710499
  21.9589222   47.3666349
  21.9525955   47.3656198
  21.9457858   47.3554477
  21.9368417   47.3484999
  21.9361251   47.3420514
  21.9304710   47.3335352
  21.9200810   47.3237540
  21.9155751   47.3172960
  21.9077969   47.3110069
  21.8969984   47.2845735
  21.9012960   47.2789526
  21.8997251   47.2681640
  21.8890559   47.2583004
  21.8799253   47.2557142
  21.8696291   47.2397466
  21.8641589   47.2351679
  21.8624009   47.2286872
  21.8686561   47.2256150
  21.8712965   47.2208735
  21.8730544   47.2028494
  21.8701899   47.1835405
  21.8652611   47.1794909
  21.8551433   47.1766121
  21.8458004   47.1696128
  21.8263922   47.1643752
  21.8166507   47.1440860
  21.8150371   47.1396921
  21.8157281   47.1346705
  21.8129517   47.1280277
  21.8093542   47.1227163
  21.8053340   47.1201626
  21.8058695   47.1061322
  21.8037548   47.1018217
  21.7937889   47.0971489
  21.7690785   47.0993017
  21.7365655   47.0916276
  21.7270419   47.0811935
  21.7295187   47.0753619
  21.7283348   47.0711215
  21.7177384   47.0648532
  21.7175372   47.0612600
  21.7145510   47.0573962
  21.6959049   47.0456393
  21.6940024   47.0412004
  21.6890266   47.0377560
  21.6660929   47.0330067
  21.6723832   47.0227658
  21.6709847   47.0185952
  21.6670843   47.0148952
  21.6542434   47.0099616
  21.6373665   47.0093131
  21.6364335   47.0050978
  21.6330750   47.0015322
  21.6094269   46.9901970
  21.5966195   46.9882864
  21.5770352   46.9896752
  21.5691879   46.9838750
  21.5673330   46.9789141
  21.5759405   46.9615718
  21.5742718   46.9573994
  21.5699518   46.9542426
  21.5477400   46.9500712
  21.5440911   46.9459289
  21.5373657   46.9430644
  21.5118520   46.9429996
  21.5026783   46.9407273
  21.4942886   46.9346435
  21.4869545   46.9325485
  21.4727340   46.9335917
  21.4668056   46.9364654
  21.4624638   46.9420933
  21.4467286   46.9459873
  21.4305668   46.9355169
  21.4208415   46.9342429
  21.4142073   46.9366512
  21.4105829   46.9411553
  21.4127815   46.9534092
  21.4183132   46.9612570
  21.4115306   46.9674588
  21.3513903   46.9711305
  21.3152586   46.9829606
  21.2563918   46.9993031
  21.2482459   46.9977635
  21.2400000   46.9993886
  21.2203601   47.0208997
  21.2225248   47.0332404
  21.2268457   47.0383288
  21.2252723   47.0446841
  21.2198181   47.0525916
  21.2190158   47.0616668
  21.2257530   47.0677715
  21.2823873   47.0903799
  21.2786274   47.1050795
  21.2817480   47.1097357
  21.2883953   47.1131444
  21.2868859   47.1170041
  21.2876537   47.1228467
  21.2827604   47.1264411
  21.2809303   47.1297670
  21.2829922   47.1385771
  21.2523408   47.1383288
  21.2400718   47.1428885
  21.2269774   47.1415876
  21.2211452   47.1436700
  21.2030264   47.1568248
  21.1207598   47.1667296
  21.1060332   47.1726982
  21.0775328   47.1896246
  21.0699481   47.1851960
  21.0546457   47.1817842
  21.0471887   47.1821039
  21.0411816   47.1851333
  21.0134823   47.2157520
  21.0061208   47.2177210
  21.0012114   47.2228251
  20.9905118   47.2171542
  20.9839849   47.2172886
  20.9779442   47.2195045
  20.9677582   47.2058436
  20.9584637   47.1844413
  20.9539537   47.1797655
  20.9471132   47.1774168
  20.9370519   47.1779471
  20.9318812   47.1748216
  20.9253579   47.1734878
  20.9197158   47.1672478
  20.9144342   47.1647328
  20.8981394   47.1651080
  20.8648358   47.1463525
  20.8732140   47.1364198
  20.8736858   47.1292519
  20.8794188   47.1257101
  20.8814526   47.1215573
  20.8803729   47.1172411
  20.8764362   47.1137840
  20.8587892   47.1098640
  20.8606638   47.0994804
  20.8643287   47.0961963
  20.8654556   47.0927773
  20.8633117   47.0862065
  20.8581135   47.0795771
  20.8700055   47.0737275
  20.8736517   47.0702737
  20.8743950   47.0620076
  20.8713980   47.0572917
  20.8599586   47.0526235
  20.8500233   47.0533346
  20.8328487   47.0445880
  20.8232950   47.0418701
  20.8246073   47.0382215
  20.8237169   47.0347011
  20.8208927   47.0316953
  20.8153457   47.0293697
  20.8067506   47.0279013
  20.7564639   47.0269610
  20.7477932   47.0316939
  20.7465764   47.0408912
  20.7396901   47.0381341
  20.7382696   47.0311873
  20.7316433   47.0236785
  20.7248494   47.0215680
  20.7175295   47.0221750
  20.7168719   47.0199845
  20.7216472   47.0171427
  20.7281964   47.0095255
  20.7310857   47.0023633
  20.7307089   46.9970598
  20.7262359   46.9927170
  20.7250150   46.9837509
  20.7318563   46.9796929
  20.7332183   46.9735164
  20.7382960   46.9668868
  20.7407922   46.9443584
  20.7392007   46.9371646
  20.7337488   46.9321464
  20.7313531   46.9263172
  20.7142099   46.9153723
  20.7026176   46.9045257
  20.6935639   46.9017761
  20.6750391   46.9045865
  20.6473884   46.8923136
  20.6410094   46.8913036
  20.6347123   46.8925317
  20.6039893   46.9078254
  20.5874186   46.9031506
  20.5586725   46.9043450
  20.5546327   46.8988521
  20.5429014   46.8918473
  20.4974054   46.8814953
  20.4812929   46.8830053
  20.4695221   46.8863489
  20.4638435   46.8906341
  20.4547426   46.8844716
  20.4428660   46.8686285
  20.4221602   46.8562980
  20.4297460   46.8363223
  20.4313115   46.8221403
  20.4368418   46.8086548
  20.4379227   46.7988915
  20.4356684   46.7940966
  20.4253571   46.7866449
  20.4156453   46.7842164
  20.4087224   46.7799519
  20.3585997   46.7754383
  20.3583063   46.7662561
  20.3558614   46.7620052
  20.3480893   46.7566148
  20.3352495   46.7533575
  20.2839039   46.7597729
  20.2563210   46.7849422
  20.2357472   46.7899571
  20.2361997   46.7831773
  20.2325782   46.7772897
  20.2197316   46.7711748
  20.2058708   46.7722636
  20.1921183   46.7548957
  20.1850691   46.7485589
  20.1796802   46.7461513
  20.1684557   46.7470676
  20.1272672   46.7649893
  20.1201065   46.7700759
  20.1190345   46.7646846
  20.1119186   46.7583693
  20.1062433   46.7560125
  20.0880584   46.7535402
  20.0812841   46.7561827
  20.0774694   46.7607697
  20.0761554   46.7662767
  20.0772917   46.7716512
  20.0724734   46.7801941
  20.0648657   46.7810793
  20.0575298   46.7841216
  20.0525011   46.7894757
  20.0501113   46.7957992
  20.0412362   46.7890117
  20.0343355   46.7873918
  20.0262355   46.7877615
  20.0036451   46.7994292
  19.9930566   46.8070728
  19.9888445   46.8132443
  19.9879610   46.8187932
  19.9907652   46.8262384
  19.9970390   46.8304314
  20.0210242   46.8374931
  20.0304081   46.8377538
  20.0319989   46.8413853
  20.0363897   46.8445933
  20.0580130   46.8497603
  20.0713042   46.8514785
  20.0799518   46.8495011
  20.0969131   46.8490958
  20.0831217   46.8563684
  20.0730144   46.8727341
  20.0741712   46.8788750
  20.1103732   46.8998277
  20.1102631   46.9079116
  20.1141423   46.9125725
  20.1246939   46.9162724
  20.1432729   46.9191471
  20.1468608   46.9217805
  20.1459602   46.9252877
  20.1409574   46.9314735
  20.1361002   46.9334915
  20.1282754   46.9346462
  20.1170490   46.9285657
  20.1072877   46.9276395
  20.1001274   46.9298145
  20.0943023   46.9357415
  20.0903143   46.9487186
  20.0921781   46.9559882
  20.0998672   46.9628950
  20.1160036   46.9670057
  20.1136790   46.9757654
  20.1159308   46.9805670
  20.1207237   46.9852819
  20.0867993   47.0002672
  20.0826423   47.0036832
  20.0813770   47.0071458
  20.0821797   47.0106725
  20.0980439   47.0329989
  20.0849484   47.0364423
  20.0800056   47.0402039
  20.0636197   47.0786292
  20.0536651   47.0843399
  20.0518456   47.0875200
  20.0520845   47.0915816
  20.0408760   47.1025745
  20.0404408   47.1076950
  20.0434643   47.1116360
  20.0347899   47.1232765
  20.0347986   47.1268753
  20.0441527   47.1498173
  20.0743304   47.1705640
  20.0844590   47.1824623
  20.0832163   47.1852029
  20.0735595   47.2023322
  20.0678086   47.2069890
  20.0666040   47.2145504
  20.0578663   47.2175007
  20.0408420   47.2287143
  20.0283184   47.2345222
  19.9835397   47.2446618
  19.9763288   47.2492126
  19.9751696   47.2542258
  19.9782393   47.2616923
  19.9914561   47.2871877
  20.0026953   47.3007342
  19.9888182   47.3172960
  19.9795986   47.3257035
  19.9760186   47.3335869
  19.9783664   47.3420412
  19.9710104   47.3465827
  19.9536377   47.3617948
  19.9151946   47.3750553
  19.8704014   47.3967293
  19.8468505   47.4064117
  19.8299594   47.4179973
  19.8157002   47.4221682
  19.8121038   47.4258504
  19.8122474   47.4320697
  19.8070490   47.4406634
  19.7933193   47.4538571
  19.7506658   47.4740034
  19.7363260   47.4835580
  19.7337162   47.4884105
  19.7348848   47.4926602
  19.7526310   47.5064764
  19.7575029   47.5196065
  19.7606020   47.5228259
  19.7565784   47.5249152
  19.7464936   47.5230535
  19.7376855   47.5250923
  19.7268042   47.5201402
  19.7219075   47.5135214
  19.7171705   47.5105231
  19.7042173   47.5083042
  19.6968483   47.5091699
  19.6740677   47.5263802
  19.6414417   47.5430353
  19.6393925   47.5480374
  19.6425755   47.5549655
  19.6387761   47.5584336
  19.6377525   47.5618794
END
END
