eszak-magyarorszag
1
  18.9192499   48.0639032
  18.9444295   48.0678510
  18.9693779   48.0673445
  18.9781576   48.0653036
  18.9821168   48.0711643
  18.9881813   48.0753761
  18.9952627   48.0772500
  19.0000939   48.0829814
  19.0145278   48.0871690
  19.0252919   48.0854985
  19.0309820   48.0805897
  19.0414163   48.0750357
  19.0503245   48.0750513
  19.0576406   48.0719413
  19.0674989   48.0742272
  19.0740844   48.0791146
  19.0817993   48.0816084
  19.0943611   48.0809286
  19.1077837   48.0752830
  19.1113861   48.0757132
  19.1226368   48.0820661
  19.1359924   48.0831275
  19.1489676   48.0804328
  19.1555595   48.0758342
  19.1603615   48.0744662
  19.1700823   48.0742599
  19.1890232   48.0699802
  19.1987776   48.0721832
  19.2154840   48.0731763
  19.2282146   48.0703247
  19.2357817   48.0653170
  19.2422755   48.0747277
  19.2477938   48.0787819
  19.2607318   48.0827048
  19.2691997   48.0832202
  19.2771487   48.0899120
  19.3005565   48.0975393
  19.3133500   48.0963795
  19.3251866   48.0993641
  19.3385008   48.0980930
  19.3563165   48.0997483
  19.3667150   48.0980280
  19.3871705   48.1009003
  19.3942949   48.0994188
  19.3999378   48.0955489
  19.4064372   48.0977653
  19.4180103   48.0981160
  19.4272217   48.1067654
  19.4420101   48.1102521
  19.4580039   48.1100460
  19.4636627   48.1078123
  19.4682560   48.1032715
  19.4708152   48.1036080
  19.4724137   48.1089072
  19.4775280   48.1129644
  19.4809308   48.1232798
  19.4818325   48.1337801
  19.4790491   48.1385165
  19.4797968   48.1428217
  19.4843635   48.1475592
  19.4965672   48.1542596
  19.4980659   48.1565014
  19.4978952   48.1627423
  19.4916778   48.1704496
  19.4915522   48.1758210
  19.4979878   48.1848098
  19.5050137   48.1895173
  19.5153444   48.1935683
  19.5115469   48.2005845
  19.5147672   48.2080330
  19.5202872   48.2117559
  19.5351909   48.2174253
  19.5479011   48.2174823
  19.5621354   48.2237217
  19.5705269   48.2245871
  19.5834131   48.2344051
  19.5927772   48.2387819
  19.5988370   48.2454369
  19.6110369   48.2497701
  19.6221281   48.2570556
  19.6287212   48.2589540
  19.6380306   48.2576693
  19.6520247   48.2491319
  19.6670224   48.2503356
  19.6772879   48.2470713
  19.6836424   48.2410555
  19.6867984   48.2344777
  19.6866711   48.2297021
  19.6893118   48.2232122
  19.6933699   48.2177150
  19.7015226   48.2128759
  19.7157437   48.2113135
  19.7259080   48.2218633
  19.7374133   48.2251186
  19.7486384   48.2253529
  19.7679007   48.2214003
  19.7728309   48.2182898
  19.7759556   48.2140768
  19.7893100   48.2082690
  19.7951475   48.2036856
  19.8047840   48.2028510
  19.8133197   48.1972524
  19.8192329   48.1847762
  19.8145057   48.1768646
  19.8229602   48.1780451
  19.8359223   48.1751645
  19.8383750   48.1766543
  19.8393258   48.1804793
  19.8428718   48.1840953
  19.8561503   48.1874140
  19.8635401   48.1855068
  19.8694007   48.1804469
  19.8847080   48.1786620
  19.8920196   48.1743073
  19.8985664   48.1753037
  19.9049867   48.1742764
  19.9111609   48.1697589
  19.9173125   48.1568529
  19.9267999   48.1505387
  19.9279424   48.1462544
  19.9264038   48.1426647
  19.9374196   48.1509567
  19.9419285   48.1578216
  19.9553537   48.1609571
  19.9636871   48.1714425
  19.9689709   48.1742333
  19.9817312   48.1746039
  19.9985110   48.1806216
  20.0053641   48.1811921
  20.0109264   48.1841825
  20.0270325   48.1865768
  20.0492262   48.1822461
  20.0545422   48.1861131
  20.0551614   48.1924233
  20.0605883   48.1981015
  20.0708544   48.2039884
  20.0816980   48.2057284
  20.0918441   48.2153510
  20.0999157   48.2191806
  20.1037053   48.2228543
  20.1200397   48.2295251
  20.1205125   48.2352201
  20.1231407   48.2405579
  20.1193338   48.2445827
  20.1186050   48.2499619
  20.1207770   48.2574700
  20.1269853   48.2619633
  20.1441851   48.2644215
  20.1605374   48.2597924
  20.1696777   48.2605573
  20.1898692   48.2575797
  20.1905935   48.2638125
  20.1940569   48.2680929
  20.2015976   48.2708366
  20.2125420   48.2700037
  20.2167506   48.2714238
  20.2145333   48.2766948
  20.2164463   48.2818782
  20.2212224   48.2850109
  20.2331188   48.2888418
  20.2431368   48.2894026
  20.2554532   48.2872444
  20.2911674   48.2718654
  20.2926424   48.2720144
  20.2952535   48.2774028
  20.2998268   48.2803579
  20.3136317   48.2823089
  20.3152162   48.2910793
  20.3260972   48.3064975
  20.3433302   48.3149420
  20.3468048   48.3191073
  20.3558181   48.3233132
  20.3570484   48.3251372
  20.3542365   48.3311361
  20.3550344   48.3354009
  20.3712763   48.3484376
  20.3707152   48.3521460
  20.3730290   48.3562712
  20.3958304   48.3691491
  20.3963375   48.3708372
  20.3901544   48.3789766
  20.3890766   48.3833045
  20.3912016   48.3874570
  20.4006817   48.3928483
  20.4029518   48.3969437
  20.4043462   48.4041989
  20.4016958   48.4075561
  20.4008096   48.4121972
  20.4048689   48.4232974
  20.4300948   48.4421923
  20.4358298   48.4508007
  20.4450243   48.4564165
  20.4532253   48.4583964
  20.4503747   48.4639811
  20.4533976   48.4696224
  20.4718941   48.4773170
  20.4762341   48.4804880
  20.4789313   48.4872614
  20.4842602   48.4930754
  20.4919771   48.4964149
  20.4945539   48.5125488
  20.4893761   48.5175580
  20.4885421   48.5284110
  20.4922983   48.5361862
  20.4980256   48.5414228
  20.5186456   48.5465046
  20.5251632   48.5455577
  20.5297222   48.5430763
  20.5369945   48.5507000
  20.5453498   48.5532504
  20.5617510   48.5517066
  20.5810005   48.5468408
  20.5961746   48.5511999
  20.6075612   48.5522629
  20.6158676   48.5582016
  20.6283636   48.5599709
  20.6505778   48.5701332
  20.6627229   48.5696956
  20.6716621   48.5715291
  20.6790553   48.5703461
  20.7109766   48.5792669
  20.7289150   48.5784366
  20.7993625   48.5839501
  20.8339363   48.5916937
  20.8448959   48.5898302
  20.8530216   48.5904583
  20.8600278   48.5879837
  20.8639303   48.5824490
  20.8624059   48.5744321
  20.8666451   48.5716674
  20.8706546   48.5647577
  20.8736389   48.5626038
  20.8818628   48.5615026
  20.9144118   48.5690764
  20.9297146   48.5669868
  20.9409612   48.5579278
  20.9427890   48.5518517
  20.9499503   48.5500343
  20.9534075   48.5474384
  20.9552002   48.5436648
  20.9666120   48.5394453
  20.9689060   48.5364163
  20.9693985   48.5322477
  20.9811100   48.5327855
  20.9884285   48.5356461
  21.0004621   48.5363838
  21.0148312   48.5413017
  21.0338674   48.5394488
  21.0462255   48.5347393
  21.0725423   48.5338789
  21.0818278   48.5284715
  21.0953895   48.5259927
  21.1026210   48.5218124
  21.1109284   48.5132138
  21.1108488   48.5016849
  21.1166634   48.5005956
  21.1218268   48.5009666
  21.1303078   48.5124107
  21.1398242   48.5210558
  21.1530442   48.5288322
  21.1602157   48.5305997
  21.1775323   48.5305003
  21.1873706   48.5348724
  21.1959871   48.5352706
  21.2015282   48.5408889
  21.2097848   48.5424849
  21.2172958   48.5461329
  21.2424373   48.5484258
  21.2683574   48.5362926
  21.2922661   48.5326146
  21.2964936   48.5355942
  21.2959774   48.5404124
  21.3004977   48.5467345
  21.2996861   48.5509176
  21.3029241   48.5603979
  21.3121973   48.5688217
  21.3231112   48.5713438
  21.3354334   48.5682536
  21.3492063   48.5695629
  21.3774629   48.5684461
  21.3930604   48.5723249
  21.4077328   48.5717903
  21.4100015   48.5820186
  21.4192345   48.5898785
  21.4259232   48.5923260
  21.4434644   48.5939404
  21.4504039   48.5913797
  21.4574782   48.5857426
  21.4669045   48.5836171
  21.4803489   48.5741197
  21.4875806   48.5727248
  21.4938590   48.5692368
  21.5058001   48.5682328
  21.5181406   48.5612618
  21.5308933   48.5503392
  21.5318646   48.5461411
  21.5303330   48.5415594
  21.5342944   48.5373274
  21.5348448   48.5333969
  21.5389613   48.5266117
  21.5523347   48.5185066
  21.5644967   48.5202445
  21.5701559   48.5182537
  21.5735957   48.5151509
  21.5798815   48.5194937
  21.5951864   48.5223054
  21.6050684   48.5190766
  21.6152102   48.5189301
  21.6246274   48.5149245
  21.6272947   48.5108343
  21.6274050   48.5046476
  21.6305657   48.5018091
  21.6344908   48.4938756
  21.6379503   48.4732142
  21.6362156   48.4685389
  21.6439613   48.4626747
  21.6442874   48.4563126
  21.6504633   48.4529498
  21.6563534   48.4458193
  21.6644080   48.4397329
  21.6700279   48.4257995
  21.6765830   48.4201479
  21.6792393   48.4127367
  21.6790077   48.4043797
  21.6808267   48.3998551
  21.6909357   48.3982273
  21.6961133   48.3936077
  21.7057662   48.3905022
  21.7130638   48.3856789
  21.7184368   48.3793872
  21.7192220   48.3746784
  21.7268089   48.3696553
  21.7277941   48.3616680
  21.7319149   48.3583727
  21.7496454   48.3571768
  21.7618587   48.3532600
  21.7706637   48.3484673
  21.7825830   48.3486553
  21.7997593   48.3514336
  21.8215843   48.3458368
  21.8235690   48.3508969
  21.8220813   48.3635159
  21.8255929   48.3683840
  21.8315204   48.3714052
  21.8553754   48.3752302
  21.8618902   48.3738332
  21.8693804   48.3691960
  21.8766523   48.3749165
  21.8829489   48.3774920
  21.8995660   48.3792144
  21.9176948   48.3775903
  21.9287399   48.3802053
  21.9490414   48.3881686
  21.9934982   48.3884088
  22.0076958   48.3933585
  22.0098066   48.3974582
  22.0136680   48.4001541
  22.0211150   48.4017392
  22.0343247   48.4002871
  22.0425698   48.3946062
  22.0545171   48.3905151
  22.0764959   48.3962323
  22.0850590   48.3941866
  22.0934139   48.3875382
  22.0986747   48.3867795
  22.1113225   48.3902830
  22.1220257   48.3886555
  22.1328496   48.3827110
  22.1345765   48.3785148
  22.1332505   48.3730309
  22.1396562   48.3699486
  22.1423662   48.3650506
  22.1367865   48.3459250
  22.1324701   48.3424785
  22.1249391   48.3402746
  22.1224685   48.3357454
  22.1158482   48.3322541
  22.1177808   48.3254347
  22.1136452   48.3189991
  22.1085747   48.3160450
  22.1000265   48.3144116
  22.0994322   48.3086909
  22.0972315   48.3055042
  22.0914135   48.3019535
  22.0816722   48.2996935
  22.0791880   48.2951116
  22.0737973   48.2908555
  22.0655249   48.2882380
  22.0557957   48.2881399
  22.0468006   48.2906267
  22.0400121   48.2961816
  22.0249887   48.2927940
  22.0146473   48.2945830
  22.0095721   48.2905380
  21.9951091   48.2865433
  21.9853547   48.2730790
  21.9757993   48.2679244
  21.9724967   48.2612381
  21.9574029   48.2555824
  21.9506936   48.2484735
  21.9377605   48.2447688
  21.9350611   48.2378431
  21.9283070   48.2323628
  21.9213693   48.2301653
  21.9131146   48.2301533
  21.9042792   48.2326666
  21.8974051   48.2368460
  21.8794012   48.2296244
  21.8640487   48.2285071
  21.8623021   48.2252227
  21.8567565   48.2217946
  21.8534823   48.2174421
  21.8443976   48.2142779
  21.8351391   48.2153879
  21.8264690   48.2215604
  21.8128122   48.2160704
  21.8126192   48.2112791
  21.8075975   48.2051124
  21.7975611   48.2016731
  21.7941723   48.1971316
  21.7859322   48.1939558
  21.7835216   48.1891853
  21.7772824   48.1859225
  21.7664772   48.1853536
  21.7553740   48.1823198
  21.7491287   48.1831492
  21.7423850   48.1866472
  21.7339087   48.1803677
  21.7203942   48.1774239
  21.7129518   48.1793994
  21.7065092   48.1845268
  21.6947183   48.1856195
  21.6803537   48.1825289
  21.6436012   48.1852760
  21.6247159   48.1846892
  21.5975117   48.1890414
  21.5826599   48.1960929
  21.5747616   48.1916269
  21.5622848   48.1909192
  21.5534738   48.1861040
  21.5454909   48.1862586
  21.5382415   48.1818027
  21.5379231   48.1767838
  21.5343904   48.1731145
  21.5290696   48.1706015
  21.5191177   48.1693617
  21.5102428   48.1640580
  21.4974019   48.1645931
  21.4919322   48.1670306
  21.4875973   48.1717245
  21.4856167   48.1633150
  21.4755093   48.1582305
  21.4666393   48.1582287
  21.4509824   48.1644113
  21.4479274   48.1592734
  21.4398452   48.1549815
  21.4424989   48.1445170
  21.4415176   48.1393622
  21.4436898   48.1354432
  21.4432571   48.1318878
  21.4384929   48.1255077
  21.4287687   48.1185596
  21.4356995   48.1109220
  21.4488599   48.1048205
  21.4614034   48.0960632
  21.4644208   48.0903698
  21.4631710   48.0848495
  21.4724473   48.0779970
  21.4754185   48.0701515
  21.4737435   48.0668271
  21.4692170   48.0636818
  21.4562108   48.0623027
  21.4495429   48.0593854
  21.4505995   48.0488043
  21.4469162   48.0415046
  21.4404428   48.0361477
  21.4285164   48.0333008
  21.4248176   48.0291665
  21.4136944   48.0238849
  21.4037540   48.0216582
  21.3932901   48.0223538
  21.3870471   48.0173721
  21.3795372   48.0160060
  21.3707209   48.0175297
  21.3603197   48.0232790
  21.3486081   48.0156642
  21.3398877   48.0133199
  21.3280149   48.0128943
  21.3174274   48.0159906
  21.3127510   48.0227123
  21.2943708   48.0196792
  21.2865902   48.0211802
  21.2761872   48.0272500
  21.2624464   48.0292913
  21.2532520   48.0346264
  21.2472312   48.0421140
  21.2387794   48.0367441
  21.2436498   48.0304194
  21.2428379   48.0263126
  21.2392528   48.0217135
  21.2243019   48.0150155
  21.2126035   48.0142837
  21.2020774   48.0158663
  21.1909648   48.0207769
  21.1720339   48.0178445
  21.1654694   48.0182593
  21.1584216   48.0221636
  21.1544765   48.0308814
  21.1461363   48.0311903
  21.1391232   48.0342083
  21.1314314   48.0308999
  21.1252846   48.0265311
  21.1235264   48.0207404
  21.1199650   48.0170291
  21.1118620   48.0141732
  21.1050180   48.0141113
  21.1042363   48.0069877
  21.0982773   48.0025122
  21.1163901   47.9857343
  21.1192520   47.9777591
  21.1347859   47.9647672
  21.1351062   47.9602484
  21.1266209   47.9332172
  21.1229587   47.9276586
  21.1291730   47.9264866
  21.1351184   47.9225284
  21.1378897   47.9171229
  21.1370863   47.9106605
  21.1334623   47.9031997
  21.1290653   47.8998344
  21.1181953   47.8964287
  21.1059791   47.8952822
  21.0995291   47.8883318
  21.0976726   47.8706104
  21.0944923   47.8602128
  21.0904690   47.8569477
  21.0842215   47.8552511
  21.0799168   47.8512685
  21.0744450   47.8494958
  21.0746743   47.8457217
  21.0763908   47.8441242
  21.0847379   47.8411164
  21.0886409   47.8375116
  21.0896128   47.8309375
  21.0942506   47.8231511
  21.0946260   47.8196507
  21.0845586   47.8077297
  21.0839562   47.8041448
  21.0802509   47.7995680
  21.0806878   47.7952074
  21.0782744   47.7869043
  21.0724375   47.7823984
  21.0468918   47.7411817
  21.0396264   47.7378372
  21.0305161   47.7380795
  21.0227264   47.7415197
  21.0177336   47.7492643
  21.0121793   47.7485300
  21.0154403   47.7431840
  21.0146960   47.7387949
  21.0115744   47.7354472
  21.0136988   47.7318935
  21.0141835   47.7265922
  21.0126195   47.7207874
  21.0059927   47.7140149
  20.9987715   47.7106591
  20.9893701   47.7087808
  20.9682179   47.7104627
  20.9587299   47.7081723
  20.9541945   47.7034308
  20.9471220   47.7009518
  20.9487836   47.6941455
  20.9452671   47.6884705
  20.9388464   47.6855407
  20.9270926   47.6865729
  20.9193558   47.6835941
  20.9144061   47.6804182
  20.9154437   47.6758859
  20.9137027   47.6719161
  20.8999597   47.6627410
  20.8881279   47.6619295
  20.8699797   47.6649218
  20.8869230   47.6579934
  20.8928754   47.6512967
  20.8917137   47.6421962
  20.8866103   47.6371702
  20.8812620   47.6348721
  20.8702533   47.6337055
  20.8595080   47.6353894
  20.8496340   47.6397156
  20.8414620   47.6481831
  20.8316812   47.6475684
  20.8241062   47.6491914
  20.8163830   47.6545887
  20.8143051   47.6620632
  20.8072971   47.6650014
  20.7964207   47.6730028
  20.7815525   47.6672299
  20.7788912   47.6652933
  20.7846922   47.6577655
  20.7844952   47.6518144
  20.7684785   47.6352737
  20.7560256   47.6315103
  20.7360554   47.6337421
  20.7285441   47.6303468
  20.7332516   47.6238347
  20.7337122   47.6179073
  20.7298590   47.6117152
  20.7301614   47.6066945
  20.7279589   47.6025067
  20.7224169   47.5986438
  20.7151126   47.5967480
  20.7205477   47.5923204
  20.7225469   47.5866931
  20.7199104   47.5765102
  20.7145173   47.5705388
  20.6958076   47.5617612
  20.6819287   47.5599557
  20.6797205   47.5504583
  20.6733611   47.5453358
  20.6623134   47.5420609
  20.6496174   47.5359507
  20.6202120   47.5270902
  20.6062676   47.5179947
  20.5935368   47.5134440
  20.5854162   47.5072992
  20.5330057   47.4938297
  20.5266505   47.4764515
  20.5156047   47.4637318
  20.5066832   47.4586111
  20.4934702   47.4545107
  20.4828613   47.4538812
  20.4745147   47.4557124
  20.4618659   47.4479137
  20.4606007   47.4460631
  20.4615538   47.4395606
  20.4602631   47.4355638
  20.4472746   47.4250492
  20.4256539   47.4149593
  20.4003307   47.4115721
  20.3855921   47.4123945
  20.3726825   47.4175765
  20.3692211   47.4209140
  20.3675877   47.4295632
  20.3650656   47.4318464
  20.3503888   47.4314541
  20.3292979   47.4351883
  20.2880915   47.4699911
  20.2761178   47.4819752
  20.2741826   47.4860653
  20.2752661   47.4902973
  20.2886833   47.5110460
  20.2883703   47.5190659
  20.2813772   47.5301172
  20.2776507   47.5349359
  20.2623566   47.5362989
  20.2486316   47.5396015
  20.2429019   47.5440755
  20.2422171   47.5491646
  20.2213273   47.5556743
  20.2155818   47.5645752
  20.2132365   47.5739008
  20.2053476   47.5767765
  20.2016401   47.5805833
  20.1962906   47.5985637
  20.1723897   47.5977166
  20.1624810   47.5937445
  20.1440975   47.5914580
  20.1213835   47.5854586
  20.1267146   47.5782327
  20.1420057   47.5709526
  20.1450573   47.5644643
  20.1414493   47.5589910
  20.1293661   47.5538668
  20.1223561   47.5474170
  20.1172157   47.5449469
  20.1084801   47.5446959
  20.0790379   47.5535898
  20.0493475   47.5610407
  20.0391767   47.5621092
  20.0284431   47.5686325
  20.0099230   47.5744551
  19.9929581   47.5907958
  19.9926436   47.5969604
  20.0037228   47.6140570
  19.9938614   47.6266554
  19.9907979   47.6489821
  19.9879013   47.6529546
  19.9887567   47.6584245
  19.9866635   47.6645254
  19.9765799   47.6644977
  19.9669671   47.6590201
  19.9359633   47.6532018
  19.9136412   47.6455807
  19.9070519   47.6459500
  19.8854524   47.6528348
  19.8826941   47.6403458
  19.8852640   47.6300419
  19.8830731   47.6258748
  19.8782098   47.6229171
  19.8560691   47.6154730
  19.8470737   47.6004325
  19.8385237   47.5964749
  19.8238268   47.5856619
  19.8124122   47.5859464
  19.7688104   47.6070980
  19.7625375   47.6079723
  19.7544639   47.6118177
  19.7462742   47.6113668
  19.7316690   47.6053314
  19.7161186   47.6020522
  19.7179753   47.5847721
  19.7156478   47.5806409
  19.7106928   47.5777590
  19.6924335   47.5763421
  19.6792753   47.5824378
  19.6690029   47.5797401
  19.6627760   47.5798831
  19.6564447   47.5825346
  19.6413046   47.5951655
  19.6404427   47.5995592
  19.6435991   47.6133713
  19.6318817   47.6255588
  19.6299751   47.6293943
  19.6249308   47.6331703
  19.6236434   47.6366265
  19.6247773   47.6406811
  19.6100290   47.6457859
  19.5968090   47.6559159
  19.5942445   47.6598655
  19.5942666   47.6649049
  19.5789839   47.6847186
  19.5782294   47.6890873
  19.5820437   47.6942766
  19.5821484   47.6997656
  19.5905742   47.7094048
  19.5586982   47.7304784
  19.5445528   47.7352070
  19.5380420   47.7255653
  19.5318115   47.7220360
  19.5282780   47.7172448
  19.5214129   47.7142165
  19.5131836   47.7130042
  19.5205791   47.7082638
  19.5244614   47.6994805
  19.5231381   47.6944047
  19.5171958   47.6888839
  19.5053286   47.6870714
  19.4795387   47.6789133
  19.4728990   47.6792936
  19.4666298   47.6823641
  19.4566466   47.6967320
  19.4529948   47.7055752
  19.4415761   47.7099664
  19.4320601   47.7233686
  19.4250451   47.7287022
  19.4213276   47.7355786
  19.4194408   47.7433605
  19.4219147   47.7522362
  19.4310576   47.7599400
  19.4218398   47.7625521
  19.4100102   47.7629791
  19.4050943   47.7655547
  19.4021392   47.7693954
  19.4024835   47.7801977
  19.4058040   47.7845778
  19.4099691   47.7868587
  19.4153803   47.8008811
  19.4217077   47.8048357
  19.4187981   47.8071042
  19.4079750   47.8073737
  19.3895491   47.8128723
  19.3768927   47.8096878
  19.3516514   47.8099692
  19.3229168   47.8229519
  19.2772399   47.8158485
  19.2608626   47.8181022
  19.2530813   47.8163672
  19.2285444   47.8163198
  19.2210157   47.8190004
  19.2093266   47.8288048
  19.2010252   47.8312761
  19.1963494   47.8349305
  19.1825056   47.8384914
  19.1633074   47.8355073
  19.1515861   47.8390805
  19.1309503   47.8414972
  19.1122589   47.8410058
  19.1074589   47.8351301
  19.0928227   47.8299017
  19.0844523   47.8292478
  19.0784046   47.8308345
  19.0626400   47.8406900
  19.0595193   47.8492057
  19.0470845   47.8507206
  19.0369562   47.8560310
  19.0311167   47.8651164
  19.0301802   47.8742676
  19.0235104   47.8793312
  19.0050248   47.8849488
  18.9903673   47.8941065
  18.9774815   47.9072793
  18.9664544   47.9102736
  18.9581892   47.9151969
  18.9496179   47.9222410
  18.9457662   47.9297156
  18.9365275   47.9342819
  18.9307726   47.9407286
  18.9306505   47.9470278
  18.9275813   47.9526917
  18.9297271   47.9591822
  18.9524526   47.9715077
  18.9775371   47.9826507
  18.9757115   47.9874788
  18.9775790   47.9923930
  18.9819979   47.9954284
  18.9904859   47.9978001
  18.9870885   48.0088924
  18.9887679   48.0146234
  18.9861380   48.0188854
  18.9754185   48.0154513
  18.9649205   48.0185905
  18.9520937   48.0190462
  18.9435924   48.0245632
  18.9365940   48.0342215
  18.9319832   48.0366468
  18.9221431   48.0460715
  18.9153725   48.0542047
  18.9148248   48.0585831
  18.9192499   48.0639032
END
END
