kozep-dunantul
1
  17.0607056   47.0486519
  17.0628060   47.0667195
  17.0669487   47.0713301
  17.0719479   47.0737866
  17.0889591   47.0731974
  17.1042549   47.0759806
  17.1261978   47.0824259
  17.1350994   47.0873004
  17.1444291   47.0889325
  17.1583686   47.0874058
  17.1701311   47.0883483
  17.1753874   47.0859221
  17.1789397   47.0810420
  17.1869023   47.0773404
  17.2027199   47.0881089
  17.1987134   47.0987533
  17.1985597   47.1136277
  17.1900843   47.1282449
  17.1870831   47.1424289
  17.1838039   47.1466239
  17.1838890   47.1537546
  17.1813520   47.1616748
  17.1841653   47.1695493
  17.1958880   47.1809225
  17.1948190   47.1931011
  17.1978539   47.2035386
  17.1940952   47.2131877
  17.1961219   47.2187055
  17.1960965   47.2301997
  17.1918786   47.2517737
  17.1865712   47.2573666
  17.1855850   47.2645017
  17.1867868   47.2694262
  17.1968269   47.2850177
  17.2047895   47.2892290
  17.2001714   47.2983385
  17.2012419   47.3034604
  17.2052249   47.3068381
  17.2101543   47.3084235
  17.2157499   47.3152765
  17.2373397   47.3261369
  17.2695137   47.3271249
  17.2741722   47.3294921
  17.2653832   47.3354494
  17.2545577   47.3350630
  17.2304684   47.3462494
  17.2190089   47.3479713
  17.2134723   47.3531653
  17.2027648   47.3561978
  17.1774352   47.3773163
  17.1758637   47.3815668
  17.1768772   47.3850176
  17.1852601   47.3910452
  17.1739253   47.4032953
  17.1594707   47.4326697
  17.1604304   47.4360755
  17.1647762   47.4410098
  17.1762838   47.4505299
  17.1952939   47.4544785
  17.2039141   47.4513843
  17.2114455   47.4432584
  17.2188788   47.4474016
  17.2353272   47.4491388
  17.2433864   47.4472460
  17.2487586   47.4430182
  17.2629129   47.4442449
  17.2898392   47.4408484
  17.3226277   47.4517806
  17.3290779   47.4518864
  17.3352961   47.4496179
  17.3480873   47.4530397
  17.3564184   47.4533187
  17.3702228   47.4627804
  17.3709856   47.4774334
  17.3776895   47.4901815
  17.3841465   47.4941929
  17.3920851   47.4949199
  17.4022620   47.4910774
  17.4135992   47.4908783
  17.4323346   47.4849077
  17.4365371   47.4788681
  17.4365076   47.4726612
  17.4346568   47.4694229
  17.4401954   47.4608696
  17.4503807   47.4589273
  17.4559350   47.4553107
  17.4611655   47.4423191
  17.4605614   47.4381335
  17.4679128   47.4380897
  17.4791075   47.4343967
  17.4915989   47.4412654
  17.4912850   47.4475220
  17.5040480   47.4630697
  17.5159768   47.4743519
  17.5224442   47.4773637
  17.5290043   47.4775927
  17.5349221   47.4756599
  17.5395614   47.4714153
  17.5426714   47.4643381
  17.5601241   47.4540036
  17.5661002   47.4553167
  17.5645929   47.4611845
  17.5688894   47.4677577
  17.5801139   47.4760586
  17.5859883   47.4780069
  17.5949606   47.4771324
  17.6071800   47.4698694
  17.6153649   47.4737686
  17.6241807   47.4739987
  17.6296280   47.4717713
  17.6360574   47.4655929
  17.6437747   47.4666262
  17.6505057   47.4647675
  17.6507281   47.4692226
  17.6540165   47.4739589
  17.6659794   47.4806654
  17.6760275   47.4814166
  17.6847378   47.4783496
  17.6903970   47.4785045
  17.6985866   47.4818267
  17.7054760   47.4821151
  17.7122371   47.4798182
  17.7166207   47.4750936
  17.7336003   47.4813861
  17.7414224   47.4815844
  17.7480477   47.4787588
  17.7674108   47.4599538
  17.7744989   47.4472997
  17.7751325   47.4400443
  17.7814397   47.4352742
  17.7905094   47.4249133
  17.7967652   47.4159584
  17.8003827   47.4052239
  17.7988651   47.4008815
  17.7946698   47.3975857
  17.7980398   47.3902519
  17.7959486   47.3843462
  17.7785011   47.3757866
  17.7650626   47.3598850
  17.7587712   47.3549503
  17.7395291   47.3492410
  17.7386940   47.3442435
  17.7362306   47.3410386
  17.7440827   47.3269649
  17.7567654   47.3252850
  17.7655924   47.3209414
  17.7705583   47.3285823
  17.7824309   47.3353675
  17.7900386   47.3361181
  17.8078632   47.3327890
  17.8192051   47.3467707
  17.8120982   47.3559837
  17.8114353   47.3613472
  17.8141568   47.3658381
  17.8505583   47.3881993
  17.8567669   47.3894939
  17.8644403   47.3888052
  17.8629402   47.3942769
  17.8643108   47.4058975
  17.8799045   47.4300729
  17.8748983   47.4356480
  17.8747835   47.4422082
  17.8656857   47.4455471
  17.8579353   47.4559165
  17.8580309   47.4606543
  17.8618557   47.4653562
  17.8601359   47.4695317
  17.8619127   47.4742741
  17.8612928   47.4794134
  17.8648208   47.4840556
  17.8709914   47.4864838
  17.8718905   47.4914915
  17.8765321   47.4960275
  17.8937796   47.5053764
  17.8723014   47.5292200
  17.8714035   47.5511424
  17.8739567   47.5552880
  17.8802780   47.5586507
  17.8918785   47.5594739
  17.8929813   47.5632013
  17.9048679   47.5778114
  17.8998876   47.5822823
  17.8999603   47.5882109
  17.9041948   47.5926823
  17.9103083   47.5960580
  17.9160487   47.6108522
  17.8860727   47.6200055
  17.8744786   47.6364314
  17.8753184   47.6411734
  17.8802691   47.6466129
  17.8869519   47.6714847
  17.8784275   47.6788319
  17.8767442   47.6838177
  17.8829539   47.6958970
  17.8890288   47.7032448
  17.8859919   47.7244013
  17.8814449   47.7391943
  17.8834902   47.7441537
  17.8880876   47.7471446
  17.9143771   47.7528670
  17.9400162   47.7530766
  17.9569380   47.7629991
  17.9672844   47.7656334
  17.9832810   47.7643646
  18.0023171   47.7561680
  18.0216221   47.7631187
  18.0331728   47.7653438
  18.0850663   47.7655284
  18.1337763   47.7591131
  18.1775394   47.7496388
  18.1956459   47.7489056
  18.2114452   47.7510504
  18.2278236   47.7506983
  18.2657208   47.7467343
  18.2808938   47.7415457
  18.2901817   47.7402060
  18.3687125   47.7532465
  18.3899911   47.7601068
  18.4258439   47.7644464
  18.4395721   47.7714367
  18.4509626   47.7740284
  18.4609536   47.7737726
  18.4762785   47.7703894
  18.4855907   47.7667560
  18.4931898   47.7617383
  18.5166350   47.7654325
  18.5346837   47.7730601
  18.5649185   47.7750564
  18.6180394   47.7663114
  18.6532132   47.7689319
  18.6646567   47.7712063
  18.6865977   47.7811049
  18.6968963   47.7841185
  18.7143089   47.7940308
  18.7163075   47.7957254
  18.7177039   47.8051525
  18.7205634   47.8112065
  18.7324483   47.8207507
  18.7671633   47.8283365
  18.7931813   47.8317685
  18.8069748   47.8307735
  18.8176769   47.8277960
  18.8413957   47.8259850
  18.8512561   47.8271753
  18.8566028   47.8256905
  18.8609052   47.8224586
  18.8856514   47.8193163
  18.9032543   47.8137071
  18.9126479   47.8080013
  18.9170415   47.8016993
  18.9230273   47.7764696
  18.9351314   47.7722996
  18.9400989   47.7673993
  18.9402450   47.7631214
  18.9363761   47.7576401
  18.9381192   47.7482026
  18.9346448   47.7433027
  18.9406843   47.7401921
  18.9472026   47.7330073
  18.9528833   47.7298932
  18.9553124   47.7248572
  18.9537936   47.7205437
  18.9433781   47.7088008
  18.9319697   47.7034510
  18.9214428   47.7008548
  18.9139057   47.7022966
  18.8980756   47.7107971
  18.8938282   47.7108837
  18.8854605   47.7070806
  18.8684766   47.7066049
  18.8667456   47.7019065
  18.8689110   47.6953497
  18.8656204   47.6906914
  18.8674055   47.6860631
  18.8721054   47.6815662
  18.8765453   47.6711552
  18.8769164   47.6584681
  18.8787254   47.6541588
  18.8781451   47.6494687
  18.8749717   47.6452231
  18.8656534   47.6421571
  18.8428239   47.6464682
  18.8270127   47.6448982
  18.8059677   47.6491006
  18.7913045   47.6580086
  18.7854556   47.6531305
  18.7880961   47.6485375
  18.7949159   47.6421652
  18.7952549   47.6378873
  18.7926278   47.6339887
  18.7876308   47.6313535
  18.7737227   47.6282949
  18.7560843   47.6193394
  18.7487421   47.6086144
  18.7330019   47.6025310
  18.7348558   47.5959552
  18.7315653   47.5893436
  18.7046410   47.5762233
  18.7111199   47.5691110
  18.7136572   47.5614452
  18.7124397   47.5572549
  18.7059990   47.5491051
  18.7079022   47.5355474
  18.7224180   47.5200664
  18.7363067   47.5006256
  18.7410879   47.4992288
  18.7531675   47.5013471
  18.7604142   47.4991101
  18.7692103   47.4922956
  18.7732875   47.4838903
  18.7911631   47.4711508
  18.7983358   47.4593306
  18.7999970   47.4515195
  18.7992984   47.4453786
  18.8038694   47.4363943
  18.8015252   47.4301543
  18.8021141   47.4228434
  18.7978591   47.4186680
  18.7834638   47.4108355
  18.7778054   47.4093641
  18.7727298   47.4054114
  18.7909798   47.3923083
  18.8009377   47.3784993
  18.8143233   47.3694182
  18.8219085   47.3592972
  18.8353842   47.3489113
  18.8416040   47.3472803
  18.8580302   47.3378930
  18.8789115   47.3192147
  18.8807097   47.3158294
  18.8801203   47.3116117
  18.8924627   47.3060414
  18.8941993   47.3000027
  18.8878120   47.2887978
  18.8887046   47.2863731
  18.9224856   47.2831733
  18.9282248   47.2809694
  18.9316867   47.2771536
  18.9336149   47.2639170
  18.9247273   47.2427975
  18.9226204   47.2283020
  18.9173181   47.2204312
  18.8984573   47.2005028
  18.8943801   47.1937904
  18.8911557   47.1739550
  18.8866177   47.1627330
  18.8859912   47.1457882
  18.8949660   47.1275306
  18.8982310   47.1127823
  18.9100958   47.0801276
  18.9558761   47.0552404
  18.9665106   47.0471068
  18.9791849   47.0333441
  18.9806424   47.0200853
  18.9784570   47.0104497
  18.9745476   47.0039703
  18.9618693   46.9908525
  18.9641777   46.9714686
  18.9709494   46.9631476
  18.9757279   46.9504375
  18.9788159   46.9358229
  18.9778954   46.9295342
  18.9706466   46.9029381
  18.9630907   46.8902994
  18.9435860   46.8717787
  18.9353762   46.8515935
  18.9269062   46.8482633
  18.9110997   46.8492951
  18.9040880   46.8473278
  18.8816777   46.8460497
  18.8872500   46.8419068
  18.8884060   46.8366817
  18.8832236   46.8288346
  18.8786464   46.8256718
  18.8764145   46.8205419
  18.8431422   46.7974300
  18.8261648   46.7888727
  18.8065423   46.7819441
  18.8103721   46.7695199
  18.8092522   46.7660888
  18.8053286   46.7626376
  18.7994990   46.7608683
  18.7900372   46.7616590
  18.7544157   46.7575081
  18.7449685   46.7526936
  18.7305434   46.7508649
  18.7437690   46.7286279
  18.7428939   46.7217721
  18.7346919   46.7138598
  18.7161917   46.7097929
  18.6997852   46.6958670
  18.6877788   46.6890403
  18.6779690   46.6856085
  18.6395473   46.6787376
  18.6275687   46.6805700
  18.6160964   46.6894372
  18.6149746   46.6978919
  18.6121669   46.7025808
  18.6128434   46.7076350
  18.6070835   46.7191057
  18.6084973   46.7248306
  18.6047082   46.7290246
  18.6025177   46.7362715
  18.5954257   46.7375932
  18.5803987   46.7465225
  18.5630486   46.7522946
  18.5494572   46.7721649
  18.5402860   46.7689207
  18.5306021   46.7624708
  18.5212853   46.7587900
  18.5260717   46.7458258
  18.5246592   46.7416360
  18.5205792   46.7383757
  18.5083385   46.7355318
  18.4981630   46.7367520
  18.4885586   46.7356462
  18.4822337   46.7370753
  18.4782375   46.7320570
  18.4696948   46.7296284
  18.4435674   46.7345214
  18.4285230   46.7405902
  18.4116597   46.7451416
  18.4074850   46.7485358
  18.4061875   46.7519917
  18.4102185   46.7621507
  18.4025674   46.7609056
  18.3898199   46.7626446
  18.3848559   46.7666704
  18.3832595   46.7731173
  18.3725716   46.7668861
  18.3627274   46.7657702
  18.3514618   46.7699274
  18.3392880   46.7768606
  18.3149164   46.7821562
  18.2991176   46.7924209
  18.2964778   46.7965755
  18.2958481   46.8032439
  18.2777245   46.7935205
  18.2749585   46.7882272
  18.2580130   46.7765392
  18.2318005   46.7709531
  18.2213973   46.7716269
  18.2111280   46.7692483
  18.2027470   46.7711364
  18.1994014   46.7737882
  18.1939707   46.7825081
  18.1906602   46.7912267
  18.1910328   46.8007907
  18.1853212   46.8122200
  18.1858670   46.8221829
  18.1883202   46.8308763
  18.1915967   46.8355251
  18.1908594   46.8446092
  18.1852994   46.8553478
  18.1844563   46.8649311
  18.1785453   46.8681317
  18.1761755   46.8730150
  18.1788105   46.8787089
  18.1972172   46.8905196
  18.1950887   46.8965380
  18.1836404   46.9128481
  18.1781553   46.9239358
  18.1782304   46.9277640
  18.1629967   46.9415440
  18.1611124   46.9457085
  18.1636110   46.9515067
  18.1898639   46.9729217
  18.1824889   46.9793393
  18.1755105   46.9801073
  18.1686355   46.9848649
  18.1621737   46.9863247
  18.0731882   46.9618418
  18.0381472   46.9453212
  17.9814062   46.9253230
  17.9494735   46.9186418
  17.9241758   46.9113761
  17.9254619   46.9062735
  17.9222311   46.8903882
  17.9108056   46.8794932
  17.8943717   46.8716429
  17.8773118   46.8691535
  17.8561583   46.8739573
  17.7941730   46.8454767
  17.7678048   46.8384448
  17.7346162   46.8320235
  17.7058250   46.8211526
  17.6729623   46.8038590
  17.6301217   46.7933077
  17.5398292   46.7634839
  17.5163829   46.7514816
  17.4963562   46.7445782
  17.4858172   46.7429174
  17.4683323   46.7439264
  17.4571984   46.7400432
  17.4462024   46.7388065
  17.4146209   46.7421939
  17.4079787   46.7458701
  17.4051269   46.7529952
  17.3510609   46.7876055
  17.3471005   46.7925164
  17.3468887   46.7968492
  17.3413455   46.8100435
  17.3272212   46.8194391
  17.3186359   46.8216453
  17.3138552   46.8255766
  17.3119276   46.8437398
  17.3193944   46.8589639
  17.3189532   46.8612801
  17.3080801   46.8676736
  17.3045994   46.8758877
  17.3071754   46.8818464
  17.3130750   46.8856521
  17.3028048   46.8883459
  17.2948028   46.8930377
  17.2919472   46.8969468
  17.2903760   46.9041819
  17.2793105   46.9113201
  17.2709664   46.9078430
  17.2545078   46.9075282
  17.2475723   46.9097661
  17.2405371   46.9091630
  17.2273503   46.9113965
  17.2192138   46.9162163
  17.2157922   46.9213365
  17.2129480   46.9323740
  17.2226516   46.9458928
  17.2273345   46.9490161
  17.2256967   46.9568566
  17.2323496   46.9625883
  17.2305601   46.9685451
  17.2252632   46.9709032
  17.2184511   46.9772461
  17.2172800   46.9847120
  17.2051735   46.9904130
  17.1825763   46.9870507
  17.1368111   46.9923654
  17.1308512   46.9975152
  17.1290223   47.0028682
  17.1295711   47.0066977
  17.1232888   47.0075421
  17.1135374   47.0117825
  17.1030939   47.0210087
  17.0771081   47.0347213
  17.0632876   47.0447263
  17.0607056   47.0486519
END
END
