nyugat-dunantul
1
  16.1065452   46.8582429
  16.1007856   46.8695028
  16.1040570   46.8750161
  16.1116307   46.8794801
  16.1228176   46.8826463
  16.1287424   46.8909970
  16.1356828   46.8941873
  16.1379719   46.8982151
  16.1471185   46.9043063
  16.1538695   46.9113282
  16.1593737   46.9135160
  16.1674804   46.9137143
  16.1825320   46.9412327
  16.1888940   46.9470083
  16.1951090   46.9501705
  16.2035773   46.9513976
  16.2194953   46.9497805
  16.2298985   46.9542017
  16.2313864   46.9604812
  16.2414219   46.9684312
  16.2521758   46.9729425
  16.2637247   46.9727718
  16.2627124   46.9849679
  16.2647072   46.9908250
  16.2692454   46.9966671
  16.2699555   47.0064781
  16.2756154   47.0155993
  16.2833055   47.0216671
  16.2904084   47.0230393
  16.2994239   47.0216344
  16.3089188   47.0150916
  16.3125344   47.0092290
  16.3226316   47.0115590
  16.3331187   47.0091489
  16.3399254   47.0165582
  16.3506535   47.0193753
  16.3605050   47.0160504
  16.3713242   47.0151169
  16.3805904   47.0087190
  16.3925944   47.0123851
  16.4159596   47.0134428
  16.4237335   47.0099612
  16.4317975   47.0021077
  16.4372805   47.0095323
  16.4490992   47.0131344
  16.4568560   47.0125233
  16.4709208   47.0068919
  16.4798201   47.0066996
  16.4675150   47.0156293
  16.4632949   47.0205317
  16.4516145   47.0140622
  16.4452659   47.0138415
  16.4395072   47.0156826
  16.4267079   47.0263238
  16.4257368   47.0297477
  16.4271395   47.0370759
  16.4309222   47.0425654
  16.4403471   47.0471484
  16.4722504   47.0554895
  16.4992920   47.0596338
  16.4948905   47.0611724
  16.4825899   47.0604206
  16.4741445   47.0646438
  16.4631847   47.0675270
  16.4579387   47.0756337
  16.4586453   47.0818478
  16.4536644   47.0861230
  16.4502633   47.0959985
  16.4538327   47.1041136
  16.4613508   47.1076706
  16.4659604   47.1119210
  16.4775404   47.1169846
  16.4870287   47.1181606
  16.4871422   47.1257228
  16.4912630   47.1302222
  16.4982047   47.1324356
  16.5132459   47.1336629
  16.5083707   47.1405426
  16.4918409   47.1398665
  16.4757898   47.1348000
  16.4617982   47.1330332
  16.4503939   47.1337179
  16.4448735   47.1360205
  16.4374344   47.1424781
  16.4359019   47.1524102
  16.4418973   47.1624454
  16.4474612   47.1658454
  16.4483757   47.1701978
  16.4440060   47.1763970
  16.4278288   47.1757058
  16.4174132   47.1797118
  16.4069847   47.1920613
  16.4068566   47.1975055
  16.4037235   47.2048266
  16.4063182   47.2132572
  16.4091055   47.2166897
  16.4153681   47.2196024
  16.4232736   47.2198027
  16.4253883   47.2321824
  16.4292451   47.2371729
  16.4289042   47.2413721
  16.4217355   47.2436065
  16.4176941   47.2480746
  16.4176332   47.2524671
  16.4203309   47.2574264
  16.4292559   47.2617741
  16.4392431   47.2608368
  16.4582933   47.2648165
  16.4643619   47.2647278
  16.4651733   47.2776892
  16.4711275   47.2850600
  16.4686616   47.2953816
  16.4619123   47.3091183
  16.4568441   47.3154758
  16.4558013   47.3217529
  16.4501196   47.3297050
  16.4383067   47.3336116
  16.4328684   47.3410585
  16.4237332   47.3469250
  16.4208227   47.3508054
  16.4209518   47.3552013
  16.4249297   47.3603847
  16.4391812   47.3650127
  16.4434412   47.3685273
  16.4381842   47.3759856
  16.4385308   47.3817788
  16.4412904   47.3863564
  16.4332964   47.3988465
  16.4326509   47.4095287
  16.4357192   47.4136593
  16.4412118   47.4171156
  16.4576703   47.4220377
  16.4896815   47.4174000
  16.4995948   47.4123344
  16.5094515   47.4180305
  16.5154799   47.4195376
  16.5408960   47.4190298
  16.5511621   47.4152705
  16.5628731   47.4157856
  16.5685182   47.4232553
  16.5730823   47.4264888
  16.5820493   47.4308541
  16.5909321   47.4320743
  16.6003570   47.4375010
  16.6111310   47.4409354
  16.6194083   47.4492263
  16.6299277   47.4537380
  16.6369630   47.4548827
  16.6400493   47.4578615
  16.6464721   47.4603874
  16.6502529   47.4699046
  16.6548707   47.4750149
  16.6504243   47.4792924
  16.6402786   47.4960642
  16.6390764   47.5006896
  16.6403513   47.5041882
  16.6478158   47.5122901
  16.6555514   47.5167096
  16.6630400   47.5180176
  16.6747578   47.5155376
  16.6804418   47.5174969
  16.6839209   47.5226524
  16.6909805   47.5271657
  16.6898954   47.5334340
  16.6917248   47.5377802
  16.6872820   47.5404872
  16.6783996   47.5512329
  16.6709424   47.5507399
  16.6631216   47.5529305
  16.6508637   47.5648931
  16.6498360   47.5687326
  16.6510403   47.5724246
  16.6615959   47.5813277
  16.6536357   47.5937436
  16.6531139   47.5982254
  16.6471404   47.6028398
  16.6415754   47.6160018
  16.6313305   47.6188308
  16.6184993   47.6142477
  16.5907237   47.6084402
  16.5685007   47.6112510
  16.5535030   47.6180968
  16.5414599   47.6258941
  16.5251117   47.6323144
  16.5173529   47.6331122
  16.5076393   47.6294272
  16.4928000   47.6307858
  16.4791962   47.6346407
  16.4713435   47.6415754
  16.4583478   47.6427938
  16.4211708   47.6530451
  16.4134211   47.6572701
  16.4094430   47.6614347
  16.4082652   47.6659641
  16.4110869   47.6708658
  16.4189402   47.6756909
  16.4293207   47.6785033
  16.4326272   47.6873106
  16.4345863   47.6989451
  16.4391090   47.7033874
  16.4459502   47.7054032
  16.4583279   47.7053412
  16.4646629   47.7022187
  16.4677617   47.6972689
  16.4915460   47.7117615
  16.5083570   47.7158044
  16.5139873   47.7200518
  16.5201502   47.7212424
  16.5316477   47.7200302
  16.5349592   47.7233646
  16.5247787   47.7323036
  16.5233170   47.7381261
  16.5257717   47.7441877
  16.5327100   47.7486513
  16.5351467   47.7550713
  16.5401662   47.7588329
  16.5464711   47.7604803
  16.5644055   47.7605777
  16.5803469   47.7638216
  16.5911822   47.7680494
  16.5990982   47.7669441
  16.6106045   47.7693482
  16.6246820   47.7665201
  16.6364132   47.7679567
  16.6450218   47.7644269
  16.6495164   47.7597632
  16.6528726   47.7532113
  16.6745508   47.7492378
  16.7267956   47.7434157
  16.7335706   47.7382181
  16.7347544   47.7246773
  16.7575526   47.6905696
  16.8191252   47.6915841
  16.8291427   47.7105860
  16.8458115   47.7177994
  16.8587577   47.7287631
  16.8658561   47.7306100
  16.8754536   47.7291463
  16.8813148   47.7244798
  16.8843464   47.6972091
  16.9114097   47.6967499
  16.9740121   47.7033350
  17.0373591   47.7131212
  17.0667518   47.7153653
  17.0572283   47.7263455
  17.0571794   47.7522903
  17.0524991   47.7646891
  17.0523798   47.7707001
  17.0485454   47.7741602
  17.0455552   47.7829345
  17.0377268   47.7929027
  17.0384637   47.7971125
  17.0422037   47.8023008
  17.0546528   47.8099525
  17.0467499   47.8179394
  17.0353766   47.8238209
  17.0336613   47.8272329
  17.0338114   47.8354816
  16.9990840   47.8531298
  16.9966940   47.8572439
  16.9975027   47.8616277
  17.0050703   47.8724455
  17.0105560   47.8759864
  17.0166544   47.8773724
  17.0376395   47.8769353
  17.0448836   47.8805240
  17.0793378   47.8864654
  17.0875033   47.8971343
  17.0833479   47.9006617
  17.0824080   47.9058441
  17.0845200   47.9104145
  17.0907106   47.9151991
  17.0956696   47.9232398
  17.0812856   47.9281564
  17.0779978   47.9320341
  17.0776428   47.9356102
  17.0801924   47.9399123
  17.0954687   47.9532679
  17.0976269   47.9579170
  17.0877778   47.9619068
  17.0825435   47.9670454
  17.0814313   47.9722631
  17.0848644   47.9770032
  17.1216412   47.9971292
  17.1255029   48.0008424
  17.1658903   48.0198258
  17.1973726   48.0286441
  17.2171604   48.0278389
  17.2244796   48.0253943
  17.2360925   48.0306122
  17.2424966   48.0314449
  17.2498194   48.0296562
  17.2566697   48.0245104
  17.2598919   48.0180885
  17.2609924   48.0077542
  17.2634256   48.0068717
  17.2811794   48.0029294
  17.2982293   48.0049047
  17.3261026   48.0042410
  17.3378890   48.0021365
  17.3454890   47.9987424
  17.3614420   47.9847171
  17.3746333   47.9766246
  17.3855994   47.9652074
  17.4064761   47.9581301
  17.4133790   47.9535234
  17.4222586   47.9404789
  17.4318832   47.9360210
  17.4441416   47.9253013
  17.4486972   47.9178265
  17.4494821   47.9124456
  17.4589410   47.9012404
  17.4638407   47.8913655
  17.4847792   47.8860379
  17.5028870   47.8759070
  17.5248312   47.8762448
  17.5371292   47.8711649
  17.5434803   47.8643036
  17.5550692   47.8563241
  17.5567213   47.8520108
  17.5561224   47.8464425
  17.5594836   47.8427367
  17.5622775   47.8355566
  17.5688866   47.8305693
  17.5729021   47.8247505
  17.5828256   47.8290592
  17.6002247   47.8313928
  17.6153798   47.8295546
  17.6420020   47.8088292
  17.7006573   47.7796278
  17.7170598   47.7637196
  17.7669030   47.7579542
  17.7758968   47.7545839
  17.7840791   47.7483586
  17.8008853   47.7531604
  17.8145080   47.7526536
  17.8274007   47.7489845
  17.8598043   47.7543894
  17.8704245   47.7544753
  17.9005309   47.7474770
  17.9074597   47.7421376
  17.9124753   47.7265618
  17.9158556   47.7038654
  17.9145710   47.6976745
  17.9078323   47.6893194
  17.9065391   47.6845404
  17.9136753   47.6750711
  17.9143146   47.6707734
  17.9060160   47.6412194
  17.9027713   47.6370032
  17.9048220   47.6343887
  17.9170294   47.6299727
  17.9393018   47.6245149
  17.9464362   47.6189662
  17.9465613   47.6137574
  17.9421682   47.6074361
  17.9334625   47.5870880
  17.9363441   47.5826838
  17.9362149   47.5790738
  17.9250836   47.5646358
  17.9327781   47.5646084
  17.9383521   47.5623060
  17.9482023   47.5543408
  17.9499547   47.5464432
  17.9437474   47.5402434
  17.9274748   47.5353215
  17.9104651   47.5323840
  17.9021293   47.5338611
  17.9137679   47.5175665
  17.9221519   47.5115718
  17.9246270   47.5065578
  17.9224502   47.5014046
  17.9229412   47.4964535
  17.9204749   47.4925558
  17.9156480   47.4898570
  17.9058573   47.4886334
  17.8989064   47.4852671
  17.9020610   47.4812217
  17.9026304   47.4769636
  17.9002359   47.4730083
  17.8948547   47.4700591
  17.8985807   47.4639062
  17.8976536   47.4605111
  17.8943347   47.4571971
  17.9024011   47.4444157
  17.9025940   47.4396417
  17.9077242   47.4305274
  17.9072503   47.4260085
  17.9039510   47.4220828
  17.9030769   47.4171351
  17.8953720   47.4107803
  17.8904001   47.4015797
  17.8908940   47.3977070
  17.8969048   47.3923097
  17.8967460   47.3871795
  17.8926909   47.3793152
  17.8854295   47.3738461
  17.8715964   47.3705867
  17.8614050   47.3707990
  17.8461635   47.3608761
  17.8427957   47.3573636
  17.8483856   47.3482080
  17.8487700   47.3428359
  17.8359389   47.3289496
  17.8349797   47.3228311
  17.8306580   47.3182732
  17.8091864   47.3131584
  17.7991005   47.3151520
  17.7917454   47.3144943
  17.7933373   47.3082420
  17.7918036   47.3021887
  17.7958189   47.2957488
  17.7951254   47.2878079
  17.8001748   47.2793415
  17.7987565   47.2751721
  17.7936026   47.2714509
  17.7690388   47.2633591
  17.7626376   47.2639421
  17.7557587   47.2674584
  17.7521349   47.2729896
  17.7533445   47.2780362
  17.7456615   47.2878779
  17.7474296   47.3026140
  17.7441443   47.3083847
  17.7347225   47.3087963
  17.7207056   47.3153029
  17.7153591   47.3221333
  17.7160078   47.3277137
  17.7143335   47.3306526
  17.7078208   47.3351745
  17.7052744   47.3392073
  17.7060042   47.3442840
  17.7118323   47.3496433
  17.7120986   47.3543535
  17.7173587   47.3618689
  17.7228478   47.3653469
  17.7390943   47.3683946
  17.7439397   47.3710453
  17.7510937   47.3790549
  17.7510436   47.3845290
  17.7540197   47.3895019
  17.7600327   47.3925369
  17.7663529   47.3930081
  17.7636762   47.3976025
  17.7637683   47.4011323
  17.7667509   47.4051881
  17.7722440   47.4081691
  17.7674549   47.4158117
  17.7484230   47.4358708
  17.7483242   47.4440653
  17.7446977   47.4494789
  17.7406914   47.4448382
  17.7310208   47.4408096
  17.7224635   47.4397667
  17.7120449   47.4423339
  17.7015300   47.4408631
  17.6948294   47.4433723
  17.6909163   47.4477029
  17.6881446   47.4538266
  17.6900247   47.4588147
  17.6826666   47.4575448
  17.6769403   47.4584027
  17.6755218   47.4526950
  17.6701751   47.4486295
  17.6428537   47.4426319
  17.6246609   47.4472214
  17.6173163   47.4523776
  17.6054854   47.4474624
  17.5946366   47.4495334
  17.5837949   47.4406426
  17.5589119   47.4324038
  17.5505504   47.4342473
  17.5459702   47.4386410
  17.5253030   47.4506242
  17.5200089   47.4450350
  17.5209214   47.4388358
  17.5144002   47.4301179
  17.4993935   47.4224862
  17.4905772   47.4155891
  17.4809159   47.4139724
  17.4679148   47.4180329
  17.4569618   47.4155250
  17.4469518   47.4187094
  17.4341369   47.4262950
  17.4317121   47.4311149
  17.4332191   47.4367204
  17.4325808   47.4426853
  17.4202659   47.4489531
  17.4153518   47.4536617
  17.4123819   47.4595834
  17.4076788   47.4628147
  17.4059055   47.4671225
  17.4072540   47.4732254
  17.3971091   47.4729351
  17.3989660   47.4699185
  17.3989560   47.4655956
  17.3964057   47.4575478
  17.3909732   47.4507463
  17.3696588   47.4362660
  17.3636502   47.4347112
  17.3563119   47.4351300
  17.3489290   47.4310274
  17.3244915   47.4314522
  17.3187740   47.4281993
  17.3115283   47.4274171
  17.3053844   47.4226052
  17.2938018   47.4202927
  17.2625597   47.4215106
  17.2539277   47.4250514
  17.2447591   47.4241485
  17.2324665   47.4263554
  17.2263416   47.4234572
  17.2199416   47.4231193
  17.1970836   47.4269235
  17.1911455   47.4296572
  17.1910422   47.4256023
  17.2016385   47.4060981
  17.2177364   47.3992559
  17.2216952   47.3949091
  17.2220675   47.3914848
  17.2198584   47.3874794
  17.2077833   47.3803091
  17.2167022   47.3729467
  17.2229879   47.3728131
  17.2285724   47.3706554
  17.2346506   47.3644796
  17.2626243   47.3533848
  17.2710602   47.3540492
  17.2772391   47.3523669
  17.3027482   47.3375267
  17.3081879   47.3319088
  17.3087946   47.3274859
  17.3044077   47.3220999
  17.2784779   47.3095454
  17.2473185   47.3091227
  17.2374776   47.3042132
  17.2302602   47.2960669
  17.2326884   47.2817293
  17.2318107   47.2782745
  17.2233394   47.2685099
  17.2124525   47.2649103
  17.2176568   47.2564636
  17.2225204   47.2345215
  17.2226568   47.2151563
  17.2262290   47.2119240
  17.2274033   47.2069746
  17.2216943   47.1933793
  17.2233860   47.1772580
  17.2095340   47.1596085
  17.2112350   47.1560148
  17.2108480   47.1519369
  17.2143788   47.1449016
  17.2157706   47.1325826
  17.2200306   47.1249596
  17.2303730   47.1208219
  17.2347870   47.1157072
  17.2335721   47.1098291
  17.2261694   47.1052757
  17.2299128   47.0843568
  17.2274945   47.0778481
  17.2228044   47.0741392
  17.2117183   47.0694765
  17.2059479   47.0611096
  17.1983831   47.0578842
  17.1824930   47.0578791
  17.1676032   47.0645954
  17.1614074   47.0628831
  17.1550863   47.0633964
  17.1491211   47.0659311
  17.1455725   47.0696746
  17.1377315   47.0659770
  17.1128880   47.0589119
  17.0875997   47.0541783
  17.0994376   47.0450318
  17.1221029   47.0340038
  17.1308152   47.0255747
  17.1465697   47.0233963
  17.1519994   47.0212234
  17.1556692   47.0167373
  17.1561041   47.0089643
  17.1926502   47.0078314
  17.1996391   47.0133651
  17.2101535   47.0141989
  17.2165994   47.0114010
  17.2216608   47.0048321
  17.2294968   47.0025980
  17.2388919   46.9960894
  17.2443902   46.9897439
  17.2454014   46.9851538
  17.2582223   46.9736842
  17.2589174   46.9676267
  17.2631689   46.9566010
  17.2607773   46.9515328
  17.2550459   46.9484045
  17.2535334   46.9407609
  17.2449652   46.9341058
  17.2411261   46.9276730
  17.2527377   46.9287619
  17.2657702   46.9270175
  17.2764514   46.9299270
  17.2900240   46.9286812
  17.3075757   46.9191251
  17.3166721   46.9103581
  17.3184499   46.9037102
  17.3279274   46.9015320
  17.3328467   46.8986682
  17.3398086   46.8888947
  17.3404952   46.8834644
  17.3372220   46.8758369
  17.3432052   46.8711240
  17.3486073   46.8585927
  17.3473396   46.8543593
  17.3385306   46.8421867
  17.3407497   46.8351685
  17.3519124   46.8270963
  17.3581135   46.8244835
  17.3655567   46.8175871
  17.3732035   46.7990266
  17.4280907   46.7624861
  17.4320660   46.7496523
  17.4298543   46.7455699
  17.4251121   46.7426803
  17.4020163   46.7398373
  17.3939939   46.7368360
  17.3791352   46.7265546
  17.3643344   46.7228806
  17.3099828   46.7241321
  17.2977645   46.7259399
  17.2800681   46.7250807
  17.2748016   46.7043405
  17.2722898   46.6997048
  17.2711625   46.6886074
  17.2681348   46.6827615
  17.2526472   46.6721339
  17.2335046   46.6656749
  17.2341575   46.6544706
  17.2316810   46.6483993
  17.2351282   46.6346214
  17.2283116   46.6102195
  17.2330241   46.5812318
  17.2356931   46.5345921
  17.2391808   46.5286153
  17.2397808   46.5111693
  17.2298953   46.4941271
  17.2226885   46.4877006
  17.2158568   46.4853818
  17.2106494   46.4785361
  17.2029092   46.4744978
  17.2082019   46.4666263
  17.2073355   46.4451064
  17.2061018   46.4401144
  17.2029414   46.4362908
  17.2004918   46.4260961
  17.1967831   46.4224154
  17.1909656   46.4204307
  17.1757539   46.4226811
  17.1527448   46.4196254
  17.1515895   46.4047320
  17.1474194   46.4004830
  17.1419034   46.3984818
  17.1282623   46.3968302
  17.1106571   46.3978115
  17.1043375   46.4009306
  17.1010540   46.4072542
  17.0921999   46.4102490
  17.0879601   46.3994827
  17.0718123   46.3930288
  17.0628714   46.3936817
  17.0455272   46.4019400
  17.0442911   46.3979763
  17.0507939   46.3957941
  17.0556166   46.3904253
  17.0596098   46.3814294
  17.0591270   46.3766994
  17.0672236   46.3710654
  17.0671549   46.3648241
  17.0719593   46.3489061
  17.0699671   46.3359978
  17.0638376   46.3317438
  17.0561986   46.3309145
  17.0508871   46.3246659
  17.0537461   46.3151736
  17.0511954   46.3111750
  17.0460927   46.3076919
  17.0155356   46.2958594
  17.0075493   46.2967338
  16.9967672   46.3029200
  16.9914726   46.3035168
  16.9845287   46.2974403
  16.9711482   46.2960197
  16.9660933   46.2900321
  16.9572749   46.2852358
  16.9485152   46.2828315
  16.9333431   46.2831772
  16.9256153   46.2893211
  16.9255028   46.2955036
  16.9214254   46.3014508
  16.9222087   46.3067005
  16.8949365   46.3036548
  16.8892101   46.3053781
  16.8795976   46.3116134
  16.8732532   46.3121936
  16.8667280   46.3149779
  16.8608599   46.3211660
  16.8601429   46.3256223
  16.8620262   46.3307653
  16.8582928   46.3367815
  16.8517749   46.3406452
  16.8489768   46.3448977
  16.8403053   46.3492488
  16.8377224   46.3548812
  16.8070239   46.3636154
  16.7915907   46.3737198
  16.7870492   46.3699508
  16.7807003   46.3679884
  16.7681529   46.3699398
  16.7588917   46.3687411
  16.7517276   46.3705215
  16.7445808   46.3761719
  16.7334845   46.3787571
  16.7285033   46.3841186
  16.7199089   46.3822702
  16.7101901   46.3847536
  16.7056234   46.3884985
  16.7031920   46.3938817
  16.6930400   46.4015764
  16.6689826   46.4346517
  16.6658259   46.4367988
  16.6537799   46.4368644
  16.6465891   46.4412051
  16.6441703   46.4472618
  16.6480769   46.4543340
  16.6408539   46.4547876
  16.6301020   46.4525705
  16.6200604   46.4558771
  16.6114830   46.4565862
  16.6017524   46.4623035
  16.5971202   46.4669121
  16.5744526   46.4703963
  16.5586081   46.4805889
  16.5245022   46.4931308
  16.5151813   46.4984532
  16.5114547   46.5020939
  16.5106051   46.5056256
  16.5134130   46.5122806
  16.5114368   46.5205358
  16.5154347   46.5265321
  16.5083177   46.5297378
  16.5042416   46.5355903
  16.5030218   46.5415148
  16.5052154   46.5507810
  16.5029639   46.5535135
  16.4893360   46.5538894
  16.4734774   46.5598157
  16.4691687   46.5651660
  16.4689828   46.5766285
  16.4590496   46.5798975
  16.4520509   46.5891980
  16.4420052   46.5950671
  16.4352573   46.6035429
  16.4176300   46.6056736
  16.3976269   46.6238184
  16.3827596   46.6272174
  16.3735618   46.6412943
  16.3723418   46.6552247
  16.3747386   46.6592253
  16.3786209   46.6616353
  16.3800159   46.6679638
  16.3845013   46.6713041
  16.3940655   46.6735998
  16.4083870   46.6703647
  16.4073881   46.6763614
  16.4101405   46.6868739
  16.3781296   46.6893963
  16.3603280   46.6972216
  16.3562779   46.7011325
  16.3555832   46.7053100
  16.3474316   46.7081497
  16.3414207   46.7164740
  16.3353547   46.7207372
  16.3341594   46.7250903
  16.3360389   46.7293337
  16.3212480   46.7415317
  16.3137324   46.7448014
  16.3063498   46.7510579
  16.3058630   46.7572188
  16.3106927   46.7689399
  16.3031254   46.7714790
  16.2993741   46.7761219
  16.2978933   46.7838978
  16.3000053   46.7993454
  16.3029415   46.8034449
  16.3109399   46.8082811
  16.3278031   46.8111345
  16.3273967   46.8233878
  16.3340379   46.8348983
  16.3230175   46.8368496
  16.3098991   46.8473779
  16.3021749   46.8484199
  16.2927372   46.8528220
  16.2867636   46.8581205
  16.2847937   46.8634226
  16.2641621   46.8628667
  16.2385095   46.8670849
  16.2333378   46.8632957
  16.2198651   46.8599491
  16.2072091   46.8603972
  16.1927065   46.8574373
  16.1828124   46.8494142
  16.1751349   46.8480974
  16.1682256   46.8495151
  16.1627620   46.8459645
  16.1557044   46.8447153
  16.1202428   46.8490289
  16.1138187   46.8548559
  16.1065452   46.8582429
END
END
