pest
1
  18.6758352   47.5798987
  18.6889312   47.5914374
  18.7060941   47.5998134
  18.7073558   47.6102758
  18.7109665   47.6148915
  18.7276872   47.6206023
  18.7341247   47.6299127
  18.7600967   47.6439887
  18.7482033   47.6489612
  18.7375396   47.6556465
  18.7350383   47.6622183
  18.7398808   47.6681654
  18.7469261   47.6701258
  18.7605991   47.6685765
  18.7666948   47.6694552
  18.7670809   47.6738922
  18.7704234   47.6775613
  18.7814614   47.6801134
  18.8001664   47.6756807
  18.8180587   47.6660180
  18.8313871   47.6631323
  18.8421953   47.6657606
  18.8504568   47.6644718
  18.8465241   47.6747571
  18.8428682   47.6778162
  18.8408531   47.6834215
  18.8353984   47.6879126
  18.8334727   47.6919622
  18.8345182   47.6961565
  18.8385211   47.6996677
  18.8403636   47.7055994
  18.8385584   47.7128600
  18.8431219   47.7196248
  18.8504801   47.7232602
  18.8670878   47.7263184
  18.8754239   47.7252565
  18.8804000   47.7283862
  18.8894963   47.7298384
  18.9049421   47.7287693
  18.9229864   47.7212492
  18.9239016   47.7223335
  18.9205452   47.7271457
  18.9135447   47.7304558
  18.9070805   47.7379364
  18.9063677   47.7445844
  18.9107922   47.7515176
  18.9096064   47.7607955
  18.9038295   47.7635313
  18.8978109   47.7701764
  18.8925966   47.7861971
  18.8923430   47.7944409
  18.8904476   47.7975830
  18.8775727   47.8020950
  18.8423957   47.8074643
  18.8358018   47.8156054
  18.8351721   47.8205651
  18.8167470   47.8294607
  18.8099056   47.8391518
  18.8087188   47.8462640
  18.7901831   47.8502220
  18.7826342   47.8562455
  18.7628319   47.8605546
  18.7510484   47.8682497
  18.7497904   47.8729076
  18.7508742   47.8810300
  18.7479652   47.8898902
  18.7435031   47.8963669
  18.7467537   47.9113438
  18.7440357   47.9184559
  18.7468995   47.9254772
  18.7580850   47.9336001
  18.7597366   47.9384429
  18.7584345   47.9502519
  18.7611896   47.9557517
  18.7456062   47.9658324
  18.7422259   47.9703692
  18.7413324   47.9745628
  18.7424638   47.9790253
  18.7459296   47.9833800
  18.7613735   47.9927868
  18.7872033   47.9958611
  18.7971898   47.9943294
  18.8020842   47.9967097
  18.8056917   48.0062885
  18.8038309   48.0101743
  18.8023489   48.0229206
  18.8052581   48.0276677
  18.8109985   48.0314381
  18.8070758   48.0372738
  18.8069485   48.0417475
  18.8119275   48.0485109
  18.8211243   48.0520326
  18.8257021   48.0556647
  18.8453418   48.0615635
  18.8711508   48.0572886
  18.8764235   48.0644835
  18.8854020   48.0676344
  18.8917647   48.0670023
  18.8992305   48.0631957
  18.9094146   48.0611489
  18.9259013   48.0659976
  18.9349713   48.0648301
  18.9516165   48.0491312
  18.9580005   48.0456499
  18.9637499   48.0376753
  18.9750012   48.0361368
  18.9917226   48.0382583
  19.0050878   48.0336491
  19.0112350   48.0252272
  19.0176779   48.0208524
  19.0205462   48.0112123
  19.0203919   48.0062827
  19.0177155   48.0024037
  19.0180132   47.9895948
  19.0139297   47.9849620
  19.0067510   47.9825562
  19.0075043   47.9784017
  19.0058288   47.9749812
  18.9609225   47.9528881
  18.9622894   47.9487216
  18.9610216   47.9449498
  18.9690690   47.9395497
  18.9763587   47.9285757
  18.9837104   47.9252533
  18.9919787   47.9238330
  18.9972526   47.9207975
  19.0121135   47.9047926
  19.0208853   47.8996601
  19.0356729   47.8974667
  19.0554334   47.8844175
  19.0594953   47.8790873
  19.0593409   47.8687743
  19.0715295   47.8666326
  19.0831710   47.8598333
  19.0867373   47.8563762
  19.0874804   47.8515758
  19.0980624   47.8575811
  19.1076333   47.8596564
  19.1336190   47.8594386
  19.1608331   47.8560814
  19.1813525   47.8580010
  19.2143998   47.8497733
  19.2203701   47.8452349
  19.2298496   47.8415529
  19.2346254   47.8355996
  19.2399144   47.8347758
  19.2491620   47.8343049
  19.2609701   47.8365241
  19.2755020   47.8341398
  19.2993736   47.8387315
  19.3255629   47.8415351
  19.3374476   47.8391366
  19.3497734   47.8315957
  19.3587959   47.8280314
  19.3714158   47.8277636
  19.3781564   47.8301567
  19.3944365   47.8310278
  19.4161297   47.8251239
  19.4299855   47.8250154
  19.4560020   47.8083368
  19.4593620   47.8036725
  19.4588202   47.7993485
  19.4553368   47.7956986
  19.4390209   47.7902072
  19.4341068   47.7788586
  19.4490513   47.7770062
  19.4572432   47.7712379
  19.4600664   47.7643263
  19.4595089   47.7583440
  19.4555493   47.7511142
  19.4472956   47.7456599
  19.4463630   47.7424384
  19.4480348   47.7385179
  19.4549952   47.7332009
  19.4617862   47.7229370
  19.4726715   47.7195956
  19.4780802   47.7149802
  19.4849543   47.7235422
  19.5073169   47.7307262
  19.5106952   47.7345713
  19.5171623   47.7378291
  19.5269961   47.7494773
  19.5346088   47.7542472
  19.5422111   47.7553687
  19.5753171   47.7445949
  19.6170554   47.7175940
  19.6194471   47.7145911
  19.6198505   47.7103529
  19.6165766   47.6992920
  19.6140050   47.6958563
  19.6137785   47.6903212
  19.6080672   47.6853200
  19.6160687   47.6762697
  19.6241302   47.6613624
  19.6295967   47.6584833
  19.6488357   47.6550209
  19.6564160   47.6499532
  19.6575386   47.6446269
  19.6545009   47.6391831
  19.6563258   47.6343275
  19.6695705   47.6182361
  19.6706471   47.6118696
  19.6679993   47.6007573
  19.6770144   47.5939021
  19.6794522   47.5899888
  19.6789642   47.5857550
  19.6701913   47.5729308
  19.6686596   47.5650184
  19.6718048   47.5583517
  19.6685693   47.5508558
  19.6788217   47.5472592
  19.6905480   47.5405586
  19.7045718   47.5300233
  19.7092519   47.5342542
  19.7229607   47.5405468
  19.7276521   47.5457390
  19.7348634   47.5478268
  19.7430224   47.5470298
  19.7497969   47.5432757
  19.7580038   47.5447732
  19.7651300   47.5429934
  19.7721438   47.5471385
  19.7798894   47.5476501
  19.7995635   47.5393969
  19.8040834   47.5343109
  19.8029403   47.5284257
  19.7965098   47.5214556
  19.7823103   47.5114891
  19.7752989   47.4968877
  19.7649451   47.4895535
  19.8131081   47.4660806
  19.8290339   47.4510791
  19.8392925   47.4348390
  19.8468891   47.4320543
  19.8622503   47.4212159
  19.9308198   47.3896456
  19.9558209   47.3822281
  19.9689052   47.3765004
  19.9769437   47.3717017
  19.9880622   47.3610534
  20.0021227   47.3508940
  20.0054658   47.3432038
  20.0036372   47.3333974
  20.0109278   47.3272566
  20.0225617   47.3128108
  20.0287914   47.3086765
  20.0308040   47.3043165
  20.0289398   47.2963301
  20.0154827   47.2795448
  20.0051604   47.2592179
  20.0405906   47.2504923
  20.0530811   47.2451651
  20.0731866   47.2322868
  20.0893056   47.2264711
  20.0923899   47.2225240
  20.0930021   47.2151045
  20.0973308   47.2111203
  20.1118419   47.1833768
  20.1105553   47.1770578
  20.0952122   47.1594653
  20.0684443   47.1405095
  20.0619643   47.1260249
  20.0681328   47.1182296
  20.0712704   47.1109792
  20.0705853   47.1047605
  20.0780192   47.0976209
  20.0792850   47.0930942
  20.0877686   47.0868870
  20.1026768   47.0513854
  20.1088807   47.0499978
  20.1184183   47.0451150
  20.1250357   47.0359957
  20.1253864   47.0306874
  20.1057057   47.0028282
  20.0999526   46.9993616
  20.0923517   46.9986788
  20.0837591   47.0007209
  20.0711222   47.0076468
  20.0651780   47.0047390
  20.0306363   46.9987363
  20.0080227   46.9912413
  19.9958455   46.9801768
  19.9964473   46.9612429
  19.9938242   46.9572438
  19.9887524   46.9545682
  19.9798954   46.9541684
  19.9496532   46.9634219
  19.9298434   46.9642382
  19.9040499   46.9728626
  19.8824041   46.9831209
  19.8756824   46.9735325
  19.8733562   46.9670884
  19.8561421   46.9440802
  19.8475770   46.9369964
  19.8411794   46.9355083
  19.8258125   46.9358645
  19.8010586   46.9453844
  19.7843059   46.9402568
  19.7778392   46.9397940
  19.7718405   46.9415118
  19.7187008   46.9702945
  19.6905262   46.9815646
  19.6536861   47.0087050
  19.6251317   47.0340057
  19.6166475   47.0597180
  19.6083765   47.0789027
  19.5859722   47.1055326
  19.5751646   47.1003182
  19.5617286   47.0983305
  19.5288687   47.1026885
  19.5134960   47.1070517
  19.5058397   47.0939157
  19.4982794   47.0692571
  19.4906953   47.0569126
  19.4824894   47.0478846
  19.4599701   47.0444758
  19.4307844   47.0525755
  19.3847646   47.0265138
  19.3770339   47.0240177
  19.3603826   47.0238710
  19.3395246   47.0188498
  19.3360736   47.0170087
  19.3274384   47.0058172
  19.3204903   47.0038449
  19.3130985   47.0048003
  19.3083588   47.0076352
  19.2845264   47.0309163
  19.2822081   47.0369478
  19.3028273   47.0711755
  19.3193780   47.0822148
  19.3301992   47.0921073
  19.3037430   47.1132762
  19.2935849   47.1172266
  19.2765882   47.1198435
  19.2658331   47.1248536
  19.2465718   47.1234187
  19.2211251   47.0854239
  19.2170443   47.0819615
  19.2110351   47.0802563
  19.2045642   47.0807242
  19.1992109   47.0832512
  19.1948248   47.0881607
  19.1712296   47.0870216
  19.1538818   47.0769066
  19.1497110   47.0714252
  19.1392922   47.0641530
  19.1118973   47.0588678
  19.1110833   47.0505702
  19.1057866   47.0399610
  19.0816530   47.0306195
  19.0756323   47.0263915
  19.0653584   47.0259634
  19.0487619   47.0330634
  19.0345381   47.0355299
  19.0179731   47.0409403
  19.0098250   47.0461771
  18.9853068   47.0500729
  18.9895152   47.0446287
  18.9904629   47.0408996
  18.9841438   47.0298016
  18.9744741   47.0230594
  18.9667202   47.0215910
  18.9605688   47.0226138
  18.9402546   47.0402588
  18.9190480   47.0529245
  18.8945743   47.0642400
  18.8869490   47.0712724
  18.8724889   47.1089092
  18.8670396   47.1294396
  18.8600654   47.1420640
  18.8588997   47.1508464
  18.8604552   47.1651739
  18.8651809   47.1772959
  18.8686118   47.1980254
  18.8751365   47.2090299
  18.8973363   47.2338048
  18.8986951   47.2464394
  18.9070368   47.2659666
  18.8773862   47.2684893
  18.8698630   47.2716356
  18.8604409   47.2846684
  18.8602799   47.2880793
  18.8635060   47.2959038
  18.8520383   47.2974877
  18.8456927   47.3027254
  18.8460090   47.3086955
  18.8518867   47.3147896
  18.8383860   47.3258254
  18.8314626   47.3299293
  18.8229508   47.3322706
  18.8014584   47.3478658
  18.7929322   47.3585980
  18.7794794   47.3672072
  18.7683980   47.3827276
  18.7454726   47.3990698
  18.7442093   47.4052613
  18.7515635   47.4168242
  18.7631193   47.4245080
  18.7745557   47.4290165
  18.7738709   47.4331509
  18.7752693   47.4364158
  18.7729320   47.4429854
  18.7725997   47.4543761
  18.7683378   47.4614258
  18.7516279   47.4727108
  18.7465546   47.4804112
  18.7393020   47.4799915
  18.7246832   47.4828657
  18.7124407   47.4904575
  18.6989693   47.5115689
  18.6828658   47.5287745
  18.6788609   47.5490517
  18.6819297   47.5579312
  18.6859520   47.5625751
  18.6755047   47.5754700
  18.6758352   47.5798987
END
END
